<svg xmlns="http://www.w3.org/2000/svg" xmlns:xlink="http://www.w3.org/1999/xlink" width="500" zoomAndPan="magnify" viewBox="0 0 375 374.999991" height="500" preserveAspectRatio="xMidYMid meet" version="1.0"><path fill="#ede2d9" d="M 72.546875 46.257812 C 70.148438 72.363281 73.878906 120.175781 89.324219 150.410156 C 104.769531 180.640625 130.863281 207.144531 176.269531 216.066406 C 221.671875 224.992188 247.101562 214.601562 272.136719 201.683594 C 289.976562 192.359375 323.265625 164.257812 338.441406 115.113281 C 347.496094 85.8125 347.761719 60.507812 345.632812 47.457031 C 343.636719 34.40625 318.472656 15.890625 250.164062 7.902344 C 181.859375 0.0429688 154.03125 5.105469 117.152344 15.492188 C 80.269531 25.882812 73.210938 38.667969 72.546875 46.257812 Z M 72.546875 46.257812 " fill-opacity="1" fill-rule="nonzero"/><path fill="#965123" d="M 90.921875 227.523438 C 90.789062 227.523438 90.65625 227.523438 90.519531 227.523438 C 78.273438 223.925781 75.476562 209.675781 73.613281 196.625 C 72.414062 187.433594 71.613281 182.640625 71.214844 180.507812 C 65.355469 183.039062 45.382812 192.359375 36.195312 204.082031 C 35.664062 204.746094 34.867188 204.878906 34.199219 204.347656 C 33.535156 203.816406 33.535156 203.015625 33.933594 202.351562 C 45.117188 187.964844 70.550781 177.578125 71.613281 177.179688 C 72.015625 177.046875 72.414062 177.046875 72.8125 177.179688 C 73.210938 177.3125 73.476562 177.710938 73.476562 178.109375 C 73.476562 178.242188 74.277344 181.707031 76.273438 196.222656 C 78.273438 211.273438 81.601562 221.929688 91.054688 224.726562 C 91.851562 224.992188 92.253906 225.789062 91.984375 226.457031 C 92.117188 227.121094 91.453125 227.523438 90.921875 227.523438 Z M 90.921875 227.523438 " fill-opacity="1" fill-rule="nonzero"/><path fill="#965123" d="M 256.691406 322.082031 C 256.289062 322.082031 255.757812 321.816406 255.492188 321.550781 C 255.226562 321.148438 255.09375 320.617188 255.359375 320.21875 C 255.492188 319.953125 267.609375 288.519531 264.945312 265.480469 C 263.214844 251.226562 257.488281 235.113281 249.632812 222.59375 C 249.234375 221.929688 249.367188 220.996094 250.03125 220.597656 C 250.699219 220.195312 251.628906 220.328125 252.03125 220.996094 C 260.152344 233.914062 266.011719 250.296875 267.742188 265.078125 C 270.136719 285.457031 261.75 311.160156 258.953125 318.886719 C 265.34375 317.6875 283.453125 313.160156 300.230469 297.308594 C 300.761719 296.777344 301.695312 296.777344 302.226562 297.308594 C 302.757812 297.84375 302.757812 298.773438 302.226562 299.308594 C 280.921875 319.550781 257.886719 321.949219 256.957031 322.082031 C 256.691406 322.082031 256.691406 322.082031 256.691406 322.082031 Z M 256.691406 322.082031 " fill-opacity="1" fill-rule="nonzero"/><path fill="#965123" d="M 102.902344 240.972656 C 99.308594 240.972656 95.714844 240.574219 92.253906 239.90625 C 73.476562 236.179688 68.152344 223.925781 65.890625 206.480469 C 65.355469 202.75 64.425781 200.484375 62.828125 199.554688 C 60.695312 198.355469 57.367188 199.554688 54.304688 200.75 C 41.390625 206.078125 35.265625 204.613281 35.132812 204.480469 C 34.332031 204.214844 33.933594 203.546875 34.066406 202.75 C 34.332031 201.949219 35 201.550781 35.796875 201.683594 C 35.796875 201.683594 41.390625 203.015625 53.238281 198.089844 C 57.101562 196.488281 61.230469 195.15625 64.292969 197.023438 C 66.6875 198.355469 68.152344 201.417969 68.683594 206.078125 C 70.816406 222.726562 75.609375 233.78125 92.785156 237.109375 C 111.957031 240.839844 133.394531 233.648438 154.566406 216.335938 C 155.230469 215.800781 156.03125 215.933594 156.5625 216.601562 C 157.09375 217.265625 156.960938 218.066406 156.296875 218.597656 C 138.320312 233.382812 120.082031 240.972656 102.902344 240.972656 Z M 102.902344 240.972656 " fill-opacity="1" fill-rule="nonzero"/><path fill="#965123" d="M 274.929688 303.035156 C 274.53125 303.035156 274.132812 302.902344 273.867188 302.503906 C 273.601562 302.105469 273.464844 301.570312 273.601562 301.039062 C 273.734375 300.773438 281.722656 279.195312 277.328125 252.695312 C 274.664062 236.445312 269.207031 224.058594 265.210938 216.46875 C 264.8125 215.800781 265.078125 214.871094 265.742188 214.46875 C 266.410156 214.070312 267.34375 214.335938 267.742188 215.003906 C 271.867188 222.726562 277.460938 235.511719 280.125 252.027344 C 283.851562 274.535156 279.058594 293.179688 277.0625 299.574219 C 300.761719 295.578125 301.695312 296.378906 302.226562 296.777344 C 302.492188 297.042969 302.757812 297.578125 302.757812 297.976562 C 302.757812 298.773438 302.09375 299.441406 301.292969 299.441406 C 301.027344 299.441406 300.761719 299.308594 300.628906 299.308594 C 298.367188 299.175781 286.117188 301.039062 275.199219 302.902344 C 275.066406 303.035156 275.066406 303.035156 274.929688 303.035156 Z M 299.964844 298.242188 Z M 299.964844 298.242188 Z M 299.964844 298.242188 " fill-opacity="1" fill-rule="nonzero"/><path fill="#965123" d="M 283.1875 232.316406 C 281.054688 225.390625 277.0625 217.933594 273.199219 211.804688 C 266.675781 215.402344 256.558594 219.132812 241.246094 222.59375 C 240.3125 222.859375 239.246094 222.992188 238.316406 223.261719 C 244.574219 230.585938 250.164062 238.710938 253.496094 252.695312 C 258.554688 274.269531 256.023438 298.640625 256.023438 298.640625 C 256.023438 298.640625 282.652344 292.515625 286.78125 286.65625 C 291.042969 280.796875 292.90625 264.015625 283.1875 232.316406 Z M 283.1875 232.316406 " fill-opacity="1" fill-rule="nonzero"/><path fill="#965123" d="M 132.996094 199.019531 C 130.066406 201.949219 126.472656 205.414062 123.941406 207.277344 C 119.015625 211.007812 106.101562 220.597656 94.515625 219.132812 C 85.0625 217.933594 82 208.210938 80.933594 198.886719 C 80.933594 198.886719 58.300781 209.808594 62.828125 219.796875 C 67.355469 229.785156 77.472656 249.628906 105.300781 249.097656 C 134.328125 248.699219 157.09375 227.121094 165.484375 217.933594 C 152.96875 213.136719 141.515625 205.679688 132.996094 199.019531 Z M 132.996094 199.019531 " fill-opacity="1" fill-rule="nonzero"/><path fill="#965123" d="M 155.230469 340.59375 C 180.929688 353.246094 193.445312 364.300781 190.648438 369.628906 C 187.71875 374.957031 150.96875 366.300781 107.296875 343.523438 C 63.625 320.75 46.714844 303.835938 50.578125 302.371094 C 56.433594 300.105469 83.066406 310.097656 109.160156 320.351562 C 135.257812 330.605469 155.230469 340.59375 155.230469 340.59375 Z M 155.230469 340.59375 " fill-opacity="1" fill-rule="nonzero"/><path fill="#965123" d="M 213.417969 227.789062 C 193.578125 227.789062 170.144531 223.394531 144.980469 209.542969 C 113.289062 190.894531 92.652344 161.730469 83.332031 123.105469 C 75.875 92.074219 77.871094 63.171875 78.804688 50.917969 L 78.9375 48.789062 C 78.9375 47.988281 79.601562 47.324219 80.402344 47.457031 C 81.199219 47.457031 81.734375 48.121094 81.734375 48.921875 L 81.601562 51.054688 C 76.40625 126.035156 98.109375 178.511719 146.445312 207.011719 C 195.441406 233.78125 237.648438 224.589844 258.421875 216.734375 C 300.628906 200.886719 328.589844 164.527344 339.640625 138.421875 C 358.148438 94.738281 353.621094 53.851562 353.621094 53.449219 C 353.488281 52.652344 354.15625 51.984375 354.820312 51.851562 C 355.617188 51.71875 356.285156 52.386719 356.417969 53.050781 C 356.417969 53.449219 361.078125 95.136719 342.304688 139.488281 C 330.988281 166.257812 302.492188 203.148438 259.484375 219.398438 C 248.703125 223.394531 232.855469 227.789062 213.417969 227.789062 Z M 213.417969 227.789062 " fill-opacity="1" fill-rule="nonzero"/><path fill="#965123" d="M 221.140625 87.679688 C 218.210938 87.679688 215.28125 87.679688 212.484375 87.546875 C 150.703125 86.214844 95.046875 70.097656 81.867188 55.714844 C 79.738281 53.316406 78.671875 51.054688 78.804688 48.789062 C 80.269531 27.078125 148.175781 3.507812 222.472656 7.769531 C 298.097656 12.164062 356.949219 32.40625 356.285156 53.714844 C 355.886719 66.101562 324.59375 74.894531 311.148438 78.089844 C 284.917969 84.214844 252.5625 87.679688 221.140625 87.679688 Z M 204.230469 10.03125 C 136.457031 10.03125 82.664062 32.140625 81.601562 48.921875 C 81.46875 50.386719 82.265625 51.984375 83.863281 53.851562 C 96.378906 67.433594 152.167969 83.550781 212.351562 84.75 C 246.171875 85.414062 281.988281 81.953125 310.347656 75.292969 C 336.578125 69.03125 353.089844 60.777344 353.355469 53.714844 C 353.886719 34.136719 295.167969 14.828125 222.203125 10.699219 C 216.214844 10.296875 210.222656 10.03125 204.230469 10.03125 Z M 204.230469 10.03125 " fill-opacity="1" fill-rule="nonzero"/><path fill="#965123" d="M 55.503906 134.292969 C 47.515625 134.292969 38.992188 132.5625 31.535156 127.101562 C 20.75 119.507812 14.492188 108.054688 14.09375 95.667969 C 13.828125 85.148438 17.957031 75.425781 25.144531 69.699219 C 32.601562 63.707031 43.386719 61.441406 54.171875 63.574219 C 65.355469 65.703125 74.941406 72.496094 80.269531 81.953125 C 80.667969 82.617188 80.402344 83.550781 79.738281 83.949219 C 79.070312 84.347656 78.136719 84.082031 77.738281 83.417969 C 72.8125 74.625 64.023438 68.5 53.640625 66.503906 C 43.652344 64.503906 33.667969 66.636719 26.875 72.097656 C 20.351562 77.289062 16.625 86.214844 16.890625 95.804688 C 17.15625 107.257812 23.148438 117.910156 33.132812 125.101562 C 53.90625 139.886719 83.863281 124.96875 84.128906 124.835938 C 84.796875 124.4375 85.726562 124.703125 85.996094 125.503906 C 86.261719 126.300781 86.128906 127.101562 85.328125 127.367188 C 84.53125 127.5 70.949219 134.292969 55.503906 134.292969 Z M 55.503906 134.292969 " fill-opacity="1" fill-rule="nonzero"/><path fill="#965123" d="M 82.664062 43.996094 C 97.710938 30.011719 128.203125 28.945312 154.832031 32.40625 C 202.234375 38.402344 247.101562 53.714844 289.179688 76.359375 C 290.375 77.023438 294.503906 80.21875 295.835938 79.953125 C 295.835938 79.953125 230.460938 90.609375 181.0625 84.347656 C 131.664062 78.089844 105.167969 69.433594 93.851562 62.507812 C 82.664062 55.714844 80.667969 53.050781 80.269531 48.921875 C 79.738281 44.527344 82.664062 43.996094 82.664062 43.996094 Z M 82.664062 43.996094 " fill-opacity="1" fill-rule="nonzero"/><path fill="#965123" d="M 266.144531 113.25 C 260.683594 113.25 256.023438 113.117188 254.160156 112.984375 C 253.363281 112.851562 252.828125 112.183594 252.960938 111.386719 C 253.09375 110.585938 253.761719 110.054688 254.558594 110.1875 C 259.484375 110.71875 283.054688 110.320312 290.109375 110.1875 L 290.507812 110.1875 C 290.507812 110.1875 290.507812 110.1875 290.644531 110.1875 C 291.441406 110.1875 292.109375 110.851562 292.109375 111.652344 C 292.109375 112.449219 291.441406 112.984375 290.777344 113.117188 C 290.777344 113.117188 290.777344 113.117188 290.644531 113.117188 L 290.242188 113.117188 C 284.652344 113.117188 274.398438 113.25 266.144531 113.25 Z M 266.144531 113.25 " fill-opacity="1" fill-rule="nonzero"/><path fill="#965123" d="M 202.5 111.386719 C 202.097656 111.386719 199.171875 111.386719 195.042969 111.386719 L 190.648438 111.386719 C 181.0625 111.253906 167.878906 111.117188 164.152344 111.117188 C 163.351562 111.117188 162.6875 110.453125 162.6875 109.652344 C 162.6875 108.855469 163.351562 108.1875 164.152344 108.1875 C 167.878906 108.1875 181.0625 108.320312 190.648438 108.457031 L 195.042969 108.457031 C 199.035156 108.457031 201.964844 108.457031 202.5 108.457031 C 203.296875 108.457031 203.964844 109.121094 203.964844 109.921875 C 203.964844 110.71875 203.296875 111.386719 202.5 111.386719 Z M 202.5 111.386719 " fill-opacity="1" fill-rule="nonzero"/><path fill="#965123" d="M 228.195312 181.707031 C 227.53125 181.707031 226.863281 181.171875 226.730469 180.507812 C 226.597656 179.707031 227.132812 179.042969 227.929688 178.910156 L 242.175781 175.847656 C 240.710938 172.917969 228.460938 148.144531 227.796875 146.414062 C 227.53125 145.613281 227.929688 144.816406 228.730469 144.546875 C 229.527344 144.28125 230.328125 144.679688 230.59375 145.480469 C 230.992188 146.546875 238.183594 161.328125 244.972656 174.78125 C 245.371094 175.578125 245.371094 176.378906 244.972656 177.046875 C 244.574219 177.710938 243.90625 178.375 243.109375 178.511719 L 228.597656 181.574219 C 228.597656 181.574219 228.460938 181.574219 228.460938 181.574219 C 228.328125 181.707031 228.195312 181.707031 228.195312 181.707031 Z M 228.195312 181.707031 " fill-opacity="1" fill-rule="nonzero"/><path fill="#965123" d="M 271.070312 149.609375 C 262.148438 149.609375 254.425781 144.546875 252.296875 137.355469 C 252.03125 136.558594 252.5625 135.757812 253.226562 135.625 C 254.027344 135.359375 254.824219 135.890625 254.960938 136.558594 C 256.691406 142.550781 263.347656 146.8125 270.9375 146.8125 C 279.324219 146.8125 286.382812 141.75 287.3125 134.957031 C 287.445312 134.160156 288.113281 133.628906 288.910156 133.761719 C 289.710938 133.894531 290.242188 134.558594 290.109375 135.359375 C 289.179688 143.484375 280.921875 149.609375 271.070312 149.609375 Z M 271.070312 149.609375 " fill-opacity="1" fill-rule="nonzero"/><path fill="#965123" d="M 184.125 147.613281 L 183.992188 147.613281 C 175.070312 147.613281 167.347656 142.550781 165.351562 135.359375 C 165.085938 134.558594 165.617188 133.761719 166.28125 133.628906 C 167.082031 133.359375 167.878906 133.894531 168.011719 134.558594 C 169.746094 140.550781 176.269531 144.679688 183.992188 144.816406 L 184.125 144.816406 C 192.511719 144.816406 199.4375 139.886719 200.367188 133.226562 C 200.5 132.429688 201.167969 131.894531 201.964844 132.027344 C 202.765625 132.160156 203.296875 132.828125 203.164062 133.628906 C 202.097656 141.617188 193.84375 147.613281 184.125 147.613281 Z M 184.125 147.613281 " fill-opacity="1" fill-rule="nonzero"/></svg>