<svg xmlns="http://www.w3.org/2000/svg" xmlns:xlink="http://www.w3.org/1999/xlink" width="259" zoomAndPan="magnify" viewBox="0 0 194.25 299.999996" height="400" preserveAspectRatio="xMidYMid meet" version="1.0"><defs><clipPath id="a646c29cda"><path d="M 67.726562 120.972656 L 125.777344 120.972656 L 125.777344 179.027344 L 67.726562 179.027344 Z M 67.726562 120.972656 " clip-rule="nonzero"/></clipPath><clipPath id="18206be5ac"><path d="M 138 267 L 193.503906 267 L 193.503906 299.421875 L 138 299.421875 Z M 138 267 " clip-rule="nonzero"/></clipPath></defs><g clip-path="url(#a646c29cda)"><path fill="#965123" d="M 67.726562 120.972656 L 125.777344 120.972656 L 125.777344 179.027344 L 67.726562 179.027344 Z M 67.726562 120.972656 " fill-opacity="1" fill-rule="nonzero"/></g><path fill="#ede2d9" d="M 147.8125 64.285156 C 147.8125 64.285156 149.515625 54.691406 125.316406 54.074219 C 101.121094 53.453125 80.476562 57.011719 74.0625 58.714844 C 67.722656 60.417969 46.847656 67.457031 42.597656 70.628906 C 38.34375 73.800781 37.109375 77.203125 37.109375 80.609375 L 38.964844 91.75 C 34.789062 89.273438 32.316406 88.34375 28.605469 88.886719 C 23.113281 89.738281 18.863281 94.222656 17.550781 97.78125 C 10.589844 117.585938 15.847656 134.140625 26.902344 150.773438 C 29.453125 154.5625 37.496094 162.917969 42.828125 163.304688 C 46.152344 163.539062 48.78125 163.152344 50.792969 161.292969 L 54.503906 183.265625 C 54.503906 183.265625 59.605469 191.773438 82.796875 191.773438 C 105.988281 191.773438 123.152344 188.988281 135.289062 183.265625 C 147.425781 177.539062 158.636719 169.882812 159.71875 165.394531 C 160.800781 161.0625 147.8125 64.285156 147.8125 64.285156 Z M 41.824219 152.167969 C 38.269531 152.398438 35.019531 147.523438 33.320312 145.050781 C 27.675781 136.769531 25.203125 127.101562 24.894531 117.121094 C 24.738281 112.636719 24.042969 101.882812 30.148438 100.488281 C 34.867188 99.40625 38.34375 102.886719 40.894531 106.367188 C 41.128906 106.679688 41.4375 107.144531 41.746094 107.53125 L 48.242188 145.824219 C 46.152344 149.382812 44.066406 152.011719 41.824219 152.167969 Z M 41.824219 152.167969 " fill-opacity="1" fill-rule="nonzero"/><path fill="#965123" d="M 82.101562 195.023438 C 73.054688 195.023438 65.171875 194.25 61.074219 192.625 C 51.488281 188.835938 50.714844 185.738281 50.636719 185.199219 L 33.089844 81.460938 C 33.011719 80.996094 33.320312 80.53125 33.785156 80.453125 C 34.246094 80.375 34.710938 80.6875 34.789062 81.148438 L 52.414062 184.964844 C 52.414062 184.964844 53.109375 187.597656 61.769531 191 C 70.816406 194.636719 102.664062 194.019531 120.445312 188.757812 C 153.226562 178.933594 155.777344 168.566406 155.929688 167.714844 L 153.300781 137.699219 L 143.792969 65.523438 C 143.714844 65.058594 144.101562 64.59375 144.566406 64.515625 C 145.03125 64.441406 145.496094 64.828125 145.570312 65.292969 L 155.003906 137.546875 L 157.632812 167.714844 C 157.632812 167.792969 157.632812 167.792969 157.632812 167.871094 C 157.632812 168.335938 156.472656 179.859375 120.910156 190.460938 C 110.9375 193.398438 95.320312 195.023438 82.101562 195.023438 Z M 82.101562 195.023438 " fill-opacity="1" fill-rule="nonzero"/><path fill="#965123" d="M 64.476562 90.972656 C 47.542969 90.972656 34.171875 88.035156 33.242188 81.535156 C 31.773438 71.710938 59.371094 61.5 86.972656 57.398438 C 101.816406 55.15625 115.960938 54.617188 126.863281 55.929688 C 134.824219 56.859375 144.566406 59.101562 145.417969 64.75 C 146.886719 74.574219 119.285156 84.785156 91.6875 88.886719 C 82.488281 90.277344 73.054688 90.972656 64.476562 90.972656 Z M 114.105469 57.011719 C 105.914062 57.011719 96.710938 57.710938 87.203125 59.179688 C 54.734375 64.054688 33.9375 74.574219 34.945312 81.304688 C 35.949219 88.035156 58.910156 92.058594 91.378906 87.183594 C 123.847656 82.308594 144.644531 71.789062 143.640625 65.058594 C 143.097656 61.578125 136.914062 58.871094 126.632812 57.710938 C 122.84375 57.167969 118.667969 57.011719 114.105469 57.011719 Z M 114.105469 57.011719 " fill-opacity="1" fill-rule="nonzero"/><path fill="#965123" d="M 62.464844 87.800781 C 59.992188 87.800781 57.671875 87.726562 55.429688 87.570312 C 48.242188 87.105469 39.582031 85.636719 38.964844 81.304688 C 38.269531 76.972656 46.152344 73.027344 52.800781 70.398438 C 61.847656 66.914062 74.214844 63.820312 87.4375 61.808594 C 100.734375 59.796875 113.335938 59.023438 123.074219 59.644531 C 130.265625 60.109375 138.921875 61.578125 139.542969 65.910156 C 140.238281 70.242188 132.351562 74.1875 125.703125 76.816406 C 116.660156 80.300781 104.289062 83.394531 91.070312 85.40625 C 80.789062 87.027344 70.890625 87.800781 62.464844 87.800781 Z M 116.117188 61.269531 C 107.769531 61.269531 97.949219 62.121094 87.746094 63.667969 C 74.601562 65.679688 62.386719 68.695312 53.421875 72.175781 C 43.601562 75.964844 40.355469 79.292969 40.664062 81.148438 C 40.972656 83.007812 44.992188 85.171875 55.507812 85.867188 C 65.09375 86.488281 77.617188 85.714844 90.761719 83.703125 C 103.902344 81.691406 116.117188 78.675781 125.085938 75.191406 C 134.902344 71.402344 138.148438 68.074219 137.839844 66.21875 C 137.53125 64.363281 133.511719 62.195312 122.996094 61.5 C 120.832031 61.34375 118.515625 61.269531 116.117188 61.269531 Z M 116.117188 61.269531 " fill-opacity="1" fill-rule="nonzero"/><path fill="#965123" d="M 38.421875 154.5625 C 33.9375 154.5625 29.53125 149.84375 25.742188 141.179688 C 21.957031 132.285156 18.398438 114.800781 21.957031 106.292969 C 23.5 102.5 26.207031 101.648438 28.140625 101.574219 C 28.21875 101.574219 28.292969 101.574219 28.371094 101.574219 C 32.390625 101.574219 37.183594 105.054688 39.351562 109.539062 C 39.582031 110.003906 39.351562 110.46875 38.964844 110.703125 C 38.5 110.933594 38.035156 110.703125 37.804688 110.3125 C 35.871094 106.445312 31.695312 103.351562 28.371094 103.351562 C 28.292969 103.351562 28.292969 103.351562 28.21875 103.351562 C 26.128906 103.429688 24.585938 104.667969 23.65625 106.988281 C 20.410156 114.722656 23.65625 131.742188 27.367188 140.5625 C 30.921875 148.917969 35.175781 153.402344 39.039062 152.863281 C 42.597656 152.320312 44.21875 146.90625 44.21875 146.828125 C 44.375 146.363281 44.839844 146.132812 45.300781 146.210938 C 45.765625 146.363281 46 146.828125 45.921875 147.292969 C 45.84375 147.523438 43.910156 153.867188 39.273438 154.5625 C 39.039062 154.5625 38.730469 154.5625 38.421875 154.5625 Z M 38.421875 154.5625 " fill-opacity="1" fill-rule="nonzero"/><path fill="#965123" d="M 42.210938 166.476562 C 40.046875 166.476562 37.726562 165.9375 35.871094 165.085938 C 31.542969 163.226562 19.019531 153.558594 13.453125 131.898438 C 8.347656 112.015625 12.757812 96.777344 19.714844 92.058594 C 26.207031 87.648438 34.324219 91.4375 37.03125 94.84375 C 37.339844 95.230469 37.261719 95.769531 36.875 96.082031 C 36.488281 96.390625 35.949219 96.3125 35.640625 95.925781 C 33.320312 92.984375 26.285156 89.738281 20.71875 93.527344 C 15.460938 97.085938 9.664062 110.082031 15.152344 131.433594 C 20.488281 152.242188 32.703125 161.757812 36.566406 163.382812 C 39.738281 164.777344 43.292969 165.007812 45.300781 164.003906 C 46.152344 163.539062 46.617188 162.917969 46.773438 162.066406 C 46.847656 161.605469 47.3125 161.292969 47.777344 161.371094 C 48.242188 161.449219 48.550781 161.914062 48.472656 162.378906 C 48.164062 163.769531 47.390625 164.851562 46.074219 165.550781 C 44.992188 166.246094 43.601562 166.476562 42.210938 166.476562 Z M 42.210938 166.476562 " fill-opacity="1" fill-rule="nonzero"/><path fill="#965123" d="M 80.554688 244.765625 C 78.390625 244.765625 72.515625 242.910156 54.117188 232.542969 C 42.054688 225.8125 30.382812 218.617188 30.226562 218.539062 C 29.839844 218.308594 29.6875 217.765625 29.917969 217.378906 L 40.742188 198.039062 C 40.820312 197.808594 41.050781 197.652344 41.28125 197.652344 C 41.515625 197.578125 41.746094 197.652344 41.976562 197.730469 L 65.09375 211.191406 L 70.890625 193.476562 C 71.046875 193.011719 71.511719 192.78125 71.972656 192.933594 C 72.4375 193.089844 72.667969 193.554688 72.515625 194.019531 L 66.40625 212.738281 C 66.332031 212.972656 66.097656 213.203125 65.867188 213.28125 C 65.636719 213.359375 65.324219 213.359375 65.09375 213.203125 L 41.902344 199.664062 L 31.929688 217.457031 C 54.117188 231.074219 78.3125 244.222656 80.941406 242.910156 C 83.027344 241.285156 93.386719 212.972656 97.796875 200.824219 C 99.109375 197.34375 100.113281 194.558594 100.734375 192.933594 C 100.886719 192.46875 101.429688 192.238281 101.890625 192.394531 C 102.355469 192.546875 102.589844 193.089844 102.433594 193.554688 C 101.816406 195.179688 100.808594 197.886719 99.574219 201.367188 C 89.988281 227.4375 84.113281 242.832031 82.023438 244.222656 C 81.636719 244.535156 81.328125 244.765625 80.554688 244.765625 Z M 80.554688 244.765625 " fill-opacity="1" fill-rule="nonzero"/><path fill="#965123" d="M 1.238281 220.707031 C 0.925781 220.707031 0.617188 220.550781 0.464844 220.320312 C 0 219.699219 0 219.699219 3.632812 215.367188 C 5.488281 213.125 7.960938 210.109375 10.4375 207.246094 C 13.761719 203.300781 17.394531 198.890625 18.476562 197.652344 C 17.9375 196.648438 17.007812 194.792969 15.382812 191.15625 C 15.230469 190.847656 15.308594 190.535156 15.460938 190.304688 C 20.796875 182.257812 21.414062 182.492188 22.109375 182.722656 C 22.34375 182.800781 22.960938 183.03125 41.515625 198.660156 C 41.902344 198.96875 41.902344 199.511719 41.59375 199.898438 C 41.28125 200.285156 40.742188 200.285156 40.355469 199.972656 C 33.785156 194.40625 23.964844 186.28125 21.800781 184.578125 C 20.949219 185.429688 18.941406 188.292969 17.238281 190.847656 C 18.554688 193.632812 19.945312 196.492188 20.253906 197.113281 C 20.332031 197.265625 20.410156 197.421875 20.488281 197.578125 C 20.488281 197.652344 20.488281 197.730469 20.488281 197.808594 C 20.488281 198.039062 20.332031 198.195312 20.175781 198.351562 C 19.558594 199.277344 17.625 201.597656 11.90625 208.40625 C 8.890625 212.042969 5.257812 216.296875 3.402344 218.539062 C 9.585938 217.535156 26.207031 215.058594 32.003906 214.207031 C 32.46875 214.132812 32.933594 214.441406 33.011719 214.980469 C 33.089844 215.445312 32.777344 215.910156 32.238281 215.988281 C 20.410156 217.765625 2.472656 220.476562 1.625 220.707031 C 1.3125 220.707031 1.3125 220.707031 1.238281 220.707031 Z M 1.238281 220.707031 " fill-opacity="1" fill-rule="nonzero"/><path fill="#965123" d="M 136.835938 279.113281 C 136.679688 279.113281 136.605469 279.113281 136.449219 279.035156 C 136.21875 278.957031 136.0625 278.726562 135.984375 278.496094 L 108.15625 192.625 C 108 192.160156 108.230469 191.695312 108.695312 191.542969 C 109.160156 191.386719 109.625 191.621094 109.777344 192.082031 L 137.378906 277.023438 L 164.359375 266.8125 L 138.148438 183.730469 C 137.996094 183.265625 138.226562 182.800781 138.691406 182.644531 C 139.15625 182.492188 139.617188 182.722656 139.773438 183.1875 L 166.214844 267.046875 C 166.367188 267.507812 166.136719 267.972656 165.671875 268.128906 L 137.066406 278.957031 C 136.992188 279.035156 136.914062 279.113281 136.835938 279.113281 Z M 136.835938 279.113281 " fill-opacity="1" fill-rule="nonzero"/><g clip-path="url(#18206be5ac)"><path fill="#965123" d="M 145.496094 299.382812 C 145.339844 299.382812 145.261719 299.382812 145.109375 299.304688 C 144.875 299.226562 144.722656 298.996094 144.644531 298.761719 L 138.074219 278.03125 C 137.917969 277.566406 138.148438 277.101562 138.613281 276.949219 C 139.078125 276.792969 139.542969 277.023438 139.695312 277.488281 L 145.957031 297.292969 L 152.992188 294.664062 L 151.371094 290.019531 C 151.292969 289.789062 151.292969 289.480469 151.445312 289.246094 C 151.601562 289.015625 151.910156 288.859375 152.144531 288.859375 C 152.375 288.859375 177.5 288.628906 190.566406 286.152344 C 180.359375 278.417969 162.964844 269.289062 162.8125 269.210938 C 162.347656 268.980469 162.191406 268.4375 162.425781 268.050781 C 162.65625 267.585938 163.199219 267.433594 163.585938 267.664062 C 163.816406 267.742188 183.144531 277.875 193.117188 285.921875 C 193.347656 286.152344 193.503906 286.460938 193.425781 286.773438 C 193.347656 287.082031 193.117188 287.390625 192.730469 287.46875 C 181.597656 290.019531 158.945312 290.484375 153.378906 290.5625 L 154.925781 294.816406 C 155.082031 295.28125 154.847656 295.746094 154.386719 295.976562 L 145.648438 299.304688 C 145.726562 299.382812 145.570312 299.382812 145.496094 299.382812 Z M 145.496094 299.382812 " fill-opacity="1" fill-rule="nonzero"/></g><path fill="#965123" d="M 100.886719 157.734375 C 100.269531 157.734375 99.804688 157.734375 99.496094 157.660156 C 99.339844 157.660156 99.1875 157.660156 99.109375 157.660156 C 98.644531 157.660156 98.257812 157.273438 98.257812 156.808594 C 98.257812 156.34375 98.644531 155.957031 99.109375 155.957031 C 99.1875 155.957031 99.339844 155.957031 99.574219 155.957031 C 100.734375 156.035156 103.902344 156.1875 107.84375 154.796875 C 111.554688 153.480469 113.796875 151.703125 114.570312 150.929688 C 112.175781 145.203125 102.898438 123.15625 102.742188 122.613281 C 102.589844 122.152344 102.820312 121.6875 103.285156 121.53125 C 103.746094 121.375 104.210938 121.609375 104.367188 122.074219 C 104.675781 122.847656 113.101562 143.113281 116.347656 150.851562 C 116.503906 151.160156 116.425781 151.546875 116.195312 151.777344 C 116.117188 151.933594 113.644531 154.71875 108.308594 156.574219 C 105.292969 157.503906 102.589844 157.734375 100.886719 157.734375 Z M 100.886719 157.734375 " fill-opacity="1" fill-rule="nonzero"/><path fill="#965123" d="M 72.207031 134.605469 C 64.320312 134.605469 60.144531 129.730469 59.914062 129.5 C 59.605469 129.113281 59.683594 128.570312 59.992188 128.261719 C 60.378906 127.953125 60.917969 128.03125 61.226562 128.339844 C 61.460938 128.570312 66.484375 134.296875 75.917969 132.4375 C 80.632812 131.511719 85.269531 127.023438 86.429688 123.542969 C 86.585938 123.078125 87.125 122.847656 87.589844 123 C 88.054688 123.15625 88.285156 123.699219 88.132812 124.160156 C 86.738281 128.105469 81.636719 133.136719 76.304688 134.21875 C 74.835938 134.449219 73.519531 134.605469 72.207031 134.605469 Z M 72.207031 134.605469 " fill-opacity="1" fill-rule="nonzero"/><path fill="#965123" d="M 122.148438 120.371094 C 119.90625 120.371094 117.507812 119.828125 114.878906 118.4375 C 114.417969 118.207031 114.261719 117.664062 114.492188 117.277344 C 114.726562 116.8125 115.265625 116.65625 115.652344 116.890625 C 120.679688 119.597656 125.164062 118.515625 128.023438 117.199219 C 130.496094 116.039062 133.742188 112.324219 134.207031 110.160156 C 134.285156 109.695312 134.75 109.386719 135.210938 109.464844 C 135.675781 109.539062 135.984375 110.003906 135.90625 110.46875 C 135.289062 113.484375 131.5 117.507812 128.796875 118.824219 C 127.09375 119.597656 124.777344 120.371094 122.148438 120.371094 Z M 122.148438 120.371094 " fill-opacity="1" fill-rule="nonzero"/><path fill="#965123" d="M 63.625 3.945312 C 63.238281 4.875 63.46875 5.957031 64.9375 6.960938 C 66.949219 8.277344 70.195312 7.117188 69.578125 4.332031 C 68.726562 0.617188 64.476562 1.777344 63.625 3.945312 Z M 63.625 3.945312 " fill-opacity="1" fill-rule="nonzero"/><path fill="#965123" d="M 59.605469 86.875 C 46.617188 86.253906 41.902344 84.011719 40.585938 82.15625 C 38.269531 78.90625 33.785156 72.71875 33.011719 62.660156 C 31.308594 40.769531 41.4375 35.585938 45.613281 37.671875 C 51.410156 40.535156 50.097656 51.210938 57.980469 55.464844 C 65.867188 59.644531 70.890625 50.746094 81.097656 55.464844 C 91.378906 60.183594 88.441406 72.332031 98.722656 74.109375 C 109.003906 75.964844 119.671875 69.238281 126.089844 75.039062 C 126.863281 77.050781 104.367188 82.308594 85.582031 85.019531 C 74.292969 86.71875 59.605469 86.875 59.605469 86.875 Z M 59.605469 86.875 " fill-opacity="1" fill-rule="nonzero"/><path fill="#965123" d="M 68.960938 37.90625 C 65.324219 38.214844 64.628906 23.980469 73.984375 24.523438 C 83.339844 25.0625 73.753906 37.519531 68.960938 37.90625 Z M 68.960938 37.90625 " fill-opacity="1" fill-rule="nonzero"/></svg>