<svg xmlns="http://www.w3.org/2000/svg" xmlns:xlink="http://www.w3.org/1999/xlink" width="300" zoomAndPan="magnify" viewBox="0 0 224.87999 168.749997" height="225" preserveAspectRatio="xMidYMid meet" version="1.0"><defs><filter x="0%" y="0%" width="100%" height="100%" id="336efb48c4"><feColorMatrix values="0 0 0 0 1 0 0 0 0 1 0 0 0 0 1 0 0 0 1 0" color-interpolation-filters="sRGB"/></filter><clipPath id="6b3d2fb772"><path d="M 0.105469 0 L 144 0 L 144 144 L 0.105469 144 Z M 0.105469 0 " clip-rule="nonzero"/></clipPath><mask id="7663cdc7da"><g filter="url(#336efb48c4)"><rect x="-22.487999" width="269.855988" fill="#000000" y="-16.875" height="202.499996" fill-opacity="0.29"/></g></mask><clipPath id="47bfebfc42"><path d="M 0.105469 0 L 143.777344 0 L 143.777344 143.671875 L 0.105469 143.671875 Z M 0.105469 0 " clip-rule="nonzero"/></clipPath><clipPath id="57c281af85"><path d="M 71.941406 0 C 32.269531 0 0.105469 32.160156 0.105469 71.835938 C 0.105469 111.507812 32.269531 143.671875 71.941406 143.671875 C 111.613281 143.671875 143.777344 111.507812 143.777344 71.835938 C 143.777344 32.160156 111.613281 0 71.941406 0 Z M 71.941406 0 " clip-rule="nonzero"/></clipPath><clipPath id="181e557941"><rect x="0" width="144" y="0" height="144"/></clipPath><clipPath id="0f8c8e7316"><path d="M 117 14 L 224.652344 14 L 224.652344 123 L 117 123 Z M 117 14 " clip-rule="nonzero"/></clipPath><mask id="17244f8792"><g filter="url(#336efb48c4)"><rect x="-22.487999" width="269.855988" fill="#000000" y="-16.875" height="202.499996" fill-opacity="0.29"/></g></mask><clipPath id="11236082f1"><path d="M 0.382812 0.816406 L 107.652344 0.816406 L 107.652344 108.203125 L 0.382812 108.203125 Z M 0.382812 0.816406 " clip-rule="nonzero"/></clipPath><clipPath id="08511291e6"><path d="M 54.078125 0.816406 C 24.425781 0.816406 0.382812 24.855469 0.382812 54.507812 C 0.382812 84.164062 24.425781 108.203125 54.078125 108.203125 C 83.734375 108.203125 107.773438 84.164062 107.773438 54.507812 C 107.773438 24.855469 83.734375 0.816406 54.078125 0.816406 Z M 54.078125 0.816406 " clip-rule="nonzero"/></clipPath><clipPath id="8fa80ccbd1"><rect x="0" width="108" y="0" height="109"/></clipPath><clipPath id="8aa07be215"><path d="M 110 102 L 177 102 L 177 168.5 L 110 168.5 Z M 110 102 " clip-rule="nonzero"/></clipPath><mask id="fa75cd0cfd"><g filter="url(#336efb48c4)"><rect x="-22.487999" width="269.855988" fill="#000000" y="-16.875" height="202.499996" fill-opacity="0.29"/></g></mask><clipPath id="45d7dc4bd9"><path d="M 1.042969 1.035156 L 66.507812 1.035156 L 66.507812 66.5 L 1.042969 66.5 Z M 1.042969 1.035156 " clip-rule="nonzero"/></clipPath><clipPath id="78ce7d1095"><path d="M 33.777344 1.035156 C 15.699219 1.035156 1.042969 15.691406 1.042969 33.769531 C 1.042969 51.84375 15.699219 66.5 33.777344 66.5 C 51.855469 66.5 66.507812 51.84375 66.507812 33.769531 C 66.507812 15.691406 51.855469 1.035156 33.777344 1.035156 Z M 33.777344 1.035156 " clip-rule="nonzero"/></clipPath><clipPath id="cb873739fd"><rect x="0" width="67" y="0" height="67"/></clipPath></defs><g clip-path="url(#6b3d2fb772)"><g mask="url(#7663cdc7da)"><g transform="matrix(1, 0, 0, 1, 0.000000000000000014, 0)"><g clip-path="url(#181e557941)"><g clip-path="url(#47bfebfc42)"><g clip-path="url(#57c281af85)"><path fill="#b0c4de" d="M 0.105469 0 L 143.777344 0 L 143.777344 143.671875 L 0.105469 143.671875 Z M 0.105469 0 " fill-opacity="1" fill-rule="nonzero"/></g></g></g></g></g></g><g clip-path="url(#0f8c8e7316)"><g mask="url(#17244f8792)"><g transform="matrix(1, 0, 0, 1, 117, 14)"><g clip-path="url(#8fa80ccbd1)"><g clip-path="url(#11236082f1)"><g clip-path="url(#08511291e6)"><path fill="#b0c4de" d="M 0.382812 0.816406 L 107.773438 0.816406 L 107.773438 108.203125 L 0.382812 108.203125 Z M 0.382812 0.816406 " fill-opacity="1" fill-rule="nonzero"/></g></g></g></g></g></g><g clip-path="url(#8aa07be215)"><g mask="url(#fa75cd0cfd)"><g transform="matrix(1, 0, 0, 1, 110, 102)"><g clip-path="url(#cb873739fd)"><g clip-path="url(#45d7dc4bd9)"><g clip-path="url(#78ce7d1095)"><path fill="#b0c4de" d="M 1.042969 1.035156 L 66.507812 1.035156 L 66.507812 66.5 L 1.042969 66.5 Z M 1.042969 1.035156 " fill-opacity="1" fill-rule="nonzero"/></g></g></g></g></g></g></svg>