<svg xmlns="http://www.w3.org/2000/svg" xmlns:xlink="http://www.w3.org/1999/xlink" width="2880" zoomAndPan="magnify" viewBox="0 0 2160 659.999997" height="880" preserveAspectRatio="xMidYMid meet" version="1.0"><defs><clipPath id="bab9d39ec3"><path d="M 0 376 L 2160 376 L 2160 660 L 0 660 Z M 0 376 " clip-rule="nonzero"/></clipPath><clipPath id="75a1f99f4a"><path d="M -1174.53125 1136.03125 L 2311.34375 -816.921875 L 4209.410156 2570.992188 L 723.535156 4523.941406 Z M -1174.53125 1136.03125 " clip-rule="nonzero"/></clipPath><clipPath id="85d23b3fe7"><path d="M 3362.554688 1338.882812 C 3319.773438 1419.808594 3249.238281 1481.890625 3182.53125 1545.054688 C 2862.972656 1845.523438 2880.039062 2288.394531 3094.292969 2640.132812 C 3224.367188 2853.121094 3176.679688 3142.050781 2951.488281 3271.4375 C 2653.960938 3442.429688 2431.546875 3202.726562 2188.339844 3056.347656 C 2026.8125 2959.851562 1721.007812 2803.40625 1547.21875 2919.039062 C 1392.957031 3021.582031 1193.269531 3050.710938 1016.144531 2997.34375 C 815.585938 2936.683594 638.667969 2762.839844 584.574219 2558.871094 C 468.824219 2124 347.761719 1629.777344 -39.339844 1351.234375 C -223.125 1218.851562 -302.683594 973.261719 -230.507812 758.734375 C -176.355469 598.359375 -65.125 482.3125 100.824219 440.921875 C 321.089844 385.222656 561.535156 446.101562 780.570312 480.285156 C 991.136719 512.773438 1175.253906 509.5625 1383.085938 466.203125 C 1701.480469 399.589844 2230.28125 246.257812 2433.640625 607.324219 C 2597.136719 897.230469 2871.414062 794.078125 3146.578125 888.164062 C 3338.429688 933.28125 3457.804688 1159.785156 3362.554688 1338.882812 Z M 340.796875 1999.066406 C 302.828125 1923.617188 229.6875 1867.875 144.480469 1850.058594 C 137.28125 1848.71875 130.082031 1847.378906 122.0625 1846.496094 C 75.601562 1840.289062 31.199219 1851.195312 -8.527344 1818.644531 C -44.789062 1788.449219 -62.53125 1741.433594 -85.347656 1702.632812 C -173.394531 1553.148438 -368.746094 1496.019531 -523.730469 1574.253906 C -738.160156 1682.566406 -770.199219 1991.75 -580.980469 2141.507812 C -519.066406 2190.644531 -435.917969 2218.210938 -356.734375 2206.089844 C -310.5 2198.457031 -224.425781 2127.664062 -178.9375 2166.660156 C -170.167969 2174.640625 -166.664062 2186.648438 -162.800781 2197.382812 C -152.289062 2233.40625 -142.042969 2272.800781 -123.710938 2305.515625 C -46.269531 2443.746094 102.085938 2447.675781 238.746094 2363.59375 C 330.515625 2306.804688 381.570312 2196.527344 368.988281 2089.664062 C 364.5 2056.714844 355.101562 2026.515625 340.796875 1999.066406 Z M 340.796875 1999.066406 " clip-rule="nonzero"/></clipPath></defs><g clip-path="url(#bab9d39ec3)"><g clip-path="url(#75a1f99f4a)"><g clip-path="url(#85d23b3fe7)"><path fill="#ede2d9" d="M -1245.398438 1143.554688 L 2330.277344 -859.707031 L 4242.066406 2552.695312 L 666.390625 4555.957031 Z M -1245.398438 1143.554688 " fill-opacity="1" fill-rule="nonzero"/></g></g></g></svg>