<svg xmlns="http://www.w3.org/2000/svg" xmlns:xlink="http://www.w3.org/1999/xlink" width="2880" zoomAndPan="magnify" viewBox="0 0 2160 659.999997" height="880" preserveAspectRatio="xMidYMid meet" version="1.0"><defs><clipPath id="d5b7eecab2"><path d="M 0 0 L 2160 0 L 2160 296 L 0 296 Z M 0 0 " clip-rule="nonzero"/></clipPath><clipPath id="46132765db"><path d="M 3529.351562 -498.503906 L 65.152344 1492.648438 L -1870.042969 -1874.195312 L 1594.15625 -3865.347656 Z M 3529.351562 -498.503906 " clip-rule="nonzero"/></clipPath><clipPath id="00052aac2a"><path d="M -1009.691406 -651.46875 C -967.800781 -732.859375 -897.953125 -795.714844 -831.945312 -859.609375 C -515.710938 -1163.570312 -537.640625 -1606.226562 -755.75 -1955.589844 C -888.15625 -2167.132812 -843.652344 -2456.574219 -619.894531 -2588.429688 C -324.261719 -2762.675781 -99.226562 -2525.433594 145.574219 -2381.738281 C 308.152344 -2287.023438 615.65625 -2133.949219 788.167969 -2251.488281 C 941.289062 -2355.71875 1140.644531 -2387.039062 1318.347656 -2335.621094 C 1519.558594 -2277.171875 1698.378906 -2105.28125 1754.710938 -1901.917969 C 1875.234375 -1468.351562 2001.71875 -975.488281 2391.863281 -701.214844 C 2577.089844 -570.859375 2659.34375 -326.164062 2589.53125 -110.851562 C 2537.144531 50.109375 2427.199219 167.371094 2261.710938 210.582031 C 2042.070312 268.699219 1800.976562 210.46875 1581.574219 178.691406 C 1370.664062 148.523438 1186.59375 153.757812 979.25 199.398438 C 661.609375 269.507812 134.523438 428.644531 -72.792969 69.832031 C -239.464844 -218.257812 -512.589844 -112.09375 -788.773438 -203.152344 C -981.109375 -246.15625 -1102.964844 -471.332031 -1009.691406 -651.46875 Z M 2004.625 -1344.828125 C 2043.421875 -1269.804688 2117.171875 -1214.871094 2202.570312 -1197.992188 C 2209.785156 -1196.730469 2216.996094 -1195.46875 2225.023438 -1194.675781 C 2271.554688 -1188.976562 2315.832031 -1200.371094 2355.914062 -1168.257812 C 2392.503906 -1138.464844 2410.765625 -1091.644531 2434.003906 -1053.097656 C 2523.6875 -904.589844 2719.65625 -849.613281 2873.769531 -929.542969 C 3086.996094 -1040.207031 3115.636719 -1349.726562 2924.785156 -1497.394531 C 2862.332031 -1545.847656 2778.882812 -1572.5 2699.839844 -1559.507812 C 2653.695312 -1551.367188 2568.402344 -1479.632812 2522.488281 -1518.125 C 2513.628906 -1526.011719 2509.996094 -1537.980469 2506.015625 -1548.667969 C 2495.109375 -1584.574219 2484.425781 -1623.851562 2465.738281 -1656.367188 C 2386.78125 -1793.738281 2238.390625 -1796.039062 2102.664062 -1710.457031 C 2011.523438 -1652.664062 1961.683594 -1541.828125 1975.441406 -1435.113281 C 1980.292969 -1402.214844 1990.019531 -1372.121094 2004.625 -1344.828125 Z M 2004.625 -1344.828125 " clip-rule="nonzero"/></clipPath></defs><g clip-path="url(#d5b7eecab2)"><g clip-path="url(#46132765db)"><g clip-path="url(#00052aac2a)"><path fill="#ede2d9" d="M 3600.128906 -506.808594 L 46.691406 1535.640625 L -1902.492188 -1855.542969 L 1650.945312 -3897.988281 Z M 3600.128906 -506.808594 " fill-opacity="1" fill-rule="nonzero"/></g></g></g></svg>