<svg xmlns="http://www.w3.org/2000/svg" xmlns:xlink="http://www.w3.org/1999/xlink" width="600" zoomAndPan="magnify" viewBox="0 0 450 449.999984" height="600" preserveAspectRatio="xMidYMid meet" version="1.0"><defs><clipPath id="1bd448977a"><path d="M 6.339844 169 L 291 169 L 291 175 L 6.339844 175 Z M 6.339844 169 " clip-rule="nonzero"/></clipPath><clipPath id="b39c227816"><path d="M 6.339844 169 L 9 169 L 9 174 L 6.339844 174 Z M 6.339844 169 " clip-rule="nonzero"/></clipPath><clipPath id="4d7039766d"><path d="M 6.339844 149 L 291 149 L 291 192 L 6.339844 192 Z M 6.339844 149 " clip-rule="nonzero"/></clipPath><clipPath id="9303a5eac5"><path d="M 6.339844 169 L 249 169 L 249 435.289062 L 6.339844 435.289062 Z M 6.339844 169 " clip-rule="nonzero"/></clipPath><clipPath id="18c9541a70"><path d="M 134.390625 100.273438 L 183.648438 100.273438 L 183.648438 131.960938 L 134.390625 131.960938 Z M 134.390625 100.273438 " clip-rule="nonzero"/></clipPath></defs><path fill="#ede2d9" d="M 361.273438 40.085938 C 340.339844 29.316406 317.710938 23.160156 294.003906 21.773438 L 285.078125 21.621094 C 268.605469 22.390625 265.988281 21.3125 259.984375 19.003906 C 258.601562 18.542969 257.0625 17.925781 255.214844 17.3125 C 247.054688 14.539062 232.894531 15.15625 222.578125 15.464844 C 219.65625 15.617188 217.039062 15.617188 215.191406 15.617188 C 206.726562 15.617188 201.183594 17.003906 198.566406 19.621094 C 197.488281 20.851562 196.871094 22.234375 197.027344 23.773438 C 197.179688 28.546875 199.183594 30.546875 202.722656 31.316406 C 202.414062 31.621094 201.953125 32.085938 201.796875 32.546875 C 200.566406 34.394531 200.105469 36.394531 200.875 38.242188 C 201.644531 40.394531 203.800781 41.933594 207.339844 42.855469 C 207.496094 42.855469 207.496094 42.855469 207.648438 42.855469 C 207.648438 42.855469 210.109375 44.089844 210.882812 44.089844 C 211.1875 43.78125 211.496094 43.78125 211.957031 43.78125 C 211.035156 44.394531 210.574219 45.164062 210.109375 46.089844 C 209.339844 48.089844 209.496094 51.476562 211.957031 53.476562 C 212.882812 54.246094 214.113281 54.707031 216.269531 55.167969 C 215.808594 56.554688 215.652344 58.402344 216.113281 60.246094 C 216.578125 62.554688 217.960938 64.25 219.808594 65.480469 C 221.347656 66.402344 223.347656 66.863281 225.8125 67.171875 L 228.582031 67.480469 C 227.8125 69.171875 227.660156 70.710938 228.121094 71.789062 C 228.738281 73.328125 230.585938 74.097656 231.816406 74.558594 C 233.816406 75.175781 238.742188 75.328125 243.667969 75.175781 C 243.824219 75.175781 243.976562 75.023438 244.128906 75.023438 C 244.59375 75.023438 245.054688 75.023438 245.515625 75.023438 C 245.671875 75.023438 245.976562 75.023438 246.132812 75.023438 C 251.210938 75.023438 255.367188 74.40625 258.910156 73.484375 C 258.601562 74.097656 258.292969 74.714844 257.832031 75.175781 C 256.597656 76.558594 251.671875 77.328125 246.441406 77.636719 C 257.0625 77.484375 263.527344 75.023438 269.835938 72.714844 C 274.917969 70.867188 279.691406 69.171875 286 68.558594 L 292.464844 68.710938 C 308.628906 69.636719 324.484375 74.097656 339.570312 81.792969 C 378.976562 102.105469 392.371094 140.582031 378.976562 196.445312 C 366.046875 250.460938 315.09375 289.859375 284.152344 309.25 C 290.617188 284.320312 294.773438 258.617188 297.546875 233.070312 C 299.546875 215.066406 300.777344 196.90625 301.242188 178.746094 C 301.394531 171.820312 302.78125 165.511719 296.160156 161.511719 C 290.925781 158.277344 284.460938 156.894531 278.613281 155.507812 C 258.140625 150.890625 236.894531 149.199219 215.960938 147.8125 C 196.871094 146.582031 177.785156 146.121094 158.695312 146.121094 C 133.144531 146.121094 107.589844 147.042969 82.039062 149.351562 C 64.027344 151.046875 44.9375 152.585938 27.699219 158.585938 C 24.003906 159.816406 19.847656 161.355469 17.386719 164.589844 C 15.84375 166.589844 16 168.742188 16 171.207031 C 16 174.4375 16.152344 177.515625 16.152344 180.746094 C 16.460938 190.90625 16.921875 201.214844 17.691406 211.371094 C 18.769531 225.222656 20.15625 239.074219 22.15625 252.925781 C 24.3125 268.621094 27.238281 284.320312 30.929688 299.707031 C 34.78125 315.558594 39.398438 331.101562 45.402344 346.339844 C 51.097656 360.652344 58.175781 374.65625 67.257812 387.121094 C 75.265625 398.203125 84.808594 408.203125 96.199219 415.59375 C 96.046875 416.515625 96.199219 418.054688 97.277344 419.746094 C 100.972656 425.441406 115.289062 432.367188 162.851562 432.367188 C 202.105469 432.367188 216.113281 425.902344 220.886719 420.515625 C 221.808594 419.4375 222.425781 418.054688 222.886719 416.667969 C 223.503906 415.285156 223.503906 413.898438 223.8125 412.359375 C 235.355469 404.050781 245.515625 392.507812 254.597656 377.117188 C 260.910156 374.964844 400.683594 307.710938 424.695312 207.527344 C 443.476562 130.117188 420.847656 70.710938 361.273438 40.085938 Z M 361.273438 40.085938 " fill-opacity="1" fill-rule="nonzero"/><g clip-path="url(#1bd448977a)"><path fill="#965123" d="M 8.457031 170.898438 L 8.457031 170.589844 C 8.457031 169.820312 7.839844 169.207031 7.070312 169.207031 C 6.917969 169.207031 6.761719 169.207031 6.609375 169.359375 C 6.609375 169.667969 6.457031 169.976562 6.457031 170.28125 C 6.457031 171.667969 7.070312 172.898438 8.457031 173.976562 C 8.457031 172.746094 8.457031 171.667969 8.457031 170.898438 Z M 290.621094 169.820312 C 290.464844 169.820312 290.3125 169.667969 290.003906 169.667969 C 289.234375 169.667969 288.617188 170.28125 288.617188 171.050781 C 288.617188 171.667969 288.617188 172.746094 288.617188 174.128906 C 289.847656 172.898438 290.621094 171.667969 290.621094 170.28125 C 290.621094 170.128906 290.621094 169.976562 290.621094 169.820312 Z M 290.621094 169.820312 " fill-opacity="1" fill-rule="nonzero"/></g><path fill="#965123" d="M 204.109375 44.394531 C 203.953125 43.625 203.183594 43.164062 202.414062 43.472656 C 200.257812 43.933594 199.027344 44.859375 198.257812 45.78125 C 199.335938 45.78125 201.183594 45.78125 203.492188 45.78125 C 203.953125 45.628906 204.261719 45.011719 204.109375 44.394531 Z M 197.027344 32.085938 C 194.71875 32.546875 193.332031 33.160156 192.253906 34.238281 C 193.484375 34.546875 195.027344 34.699219 196.871094 34.699219 C 197.640625 34.699219 198.257812 34.238281 198.257812 33.46875 C 198.257812 32.855469 197.640625 32.238281 197.027344 32.085938 Z M 197.027344 32.085938 " fill-opacity="1" fill-rule="nonzero"/><path fill="#965123" d="M 222.425781 58.09375 C 218.730469 58.246094 215.652344 58.246094 213.035156 58.246094 C 211.1875 58.246094 209.804688 58.246094 208.417969 58.09375 C 207.339844 58.09375 206.417969 57.9375 205.648438 57.9375 C 202.722656 57.632812 201.027344 56.863281 199.488281 55.785156 C 197.796875 54.554688 196.257812 51.320312 196.871094 48.550781 C 197.027344 47.78125 197.335938 46.859375 198.257812 45.933594 C 199.027344 45.011719 200.414062 44.089844 202.414062 43.625 C 203.183594 43.472656 203.800781 43.933594 204.109375 44.550781 C 204.261719 45.164062 203.953125 45.78125 203.492188 46.089844 C 203.339844 46.089844 203.339844 46.242188 203.183594 46.242188 C 201.183594 46.703125 199.953125 47.78125 199.644531 49.167969 C 199.335938 51.015625 200.414062 53.167969 201.335938 53.785156 C 203.800781 55.628906 207.03125 56.09375 222.425781 55.628906 C 221.65625 55.785156 221.195312 56.398438 221.347656 57.167969 C 221.195312 57.632812 221.808594 58.09375 222.425781 58.09375 Z M 222.425781 58.09375 " fill-opacity="1" fill-rule="nonzero"/><path fill="#965123" d="M 229.351562 57.476562 C 227.503906 57.785156 225.351562 57.9375 222.734375 58.09375 L 222.425781 58.09375 C 222.425781 58.09375 222.578125 58.09375 222.578125 58.09375 C 222.734375 58.09375 225.042969 57.785156 229.351562 57.476562 Z M 229.351562 57.476562 " fill-opacity="1" fill-rule="nonzero"/><path fill="#965123" d="M 208.726562 57.785156 C 208.570312 57.9375 208.570312 58.09375 208.417969 58.246094 C 207.339844 58.246094 206.417969 58.09375 205.648438 58.09375 C 205.800781 57.476562 206.109375 56.863281 206.417969 56.398438 C 206.878906 55.785156 207.648438 55.628906 208.265625 56.09375 C 209.035156 56.246094 209.1875 57.167969 208.726562 57.785156 Z M 208.726562 57.785156 " fill-opacity="1" fill-rule="nonzero"/><path fill="#965123" d="M 218.421875 69.636719 C 218.269531 69.789062 218.269531 70.097656 218.117188 70.25 C 217.191406 70.25 216.269531 70.097656 215.34375 70.097656 C 215.5 69.480469 215.808594 69.019531 216.113281 68.402344 C 216.421875 67.789062 217.191406 67.480469 217.960938 67.789062 C 218.421875 68.25 218.730469 69.019531 218.421875 69.636719 Z M 218.421875 69.636719 " fill-opacity="1" fill-rule="nonzero"/><path fill="#965123" d="M 229.199219 54.859375 C 227.503906 55.167969 225.351562 55.324219 222.734375 55.476562 L 222.578125 55.476562 C 223.042969 55.324219 225.351562 55.015625 229.199219 54.859375 Z M 229.199219 54.859375 " fill-opacity="1" fill-rule="nonzero"/><path fill="#965123" d="M 248.59375 76.558594 C 248.285156 77.175781 247.980469 77.792969 247.515625 78.253906 C 246.285156 79.636719 241.359375 80.40625 236.125 80.714844 C 234.277344 80.871094 232.277344 80.871094 230.429688 80.871094 C 225.964844 80.871094 221.964844 80.5625 220.578125 80.101562 C 217.808594 79.332031 215.960938 77.792969 215.191406 75.789062 C 214.421875 74.097656 214.574219 72.25 215.34375 70.097656 C 215.5 69.480469 215.808594 69.019531 216.113281 68.402344 C 216.421875 67.789062 217.191406 67.480469 217.960938 67.789062 C 218.578125 68.097656 218.886719 68.867188 218.578125 69.636719 C 218.421875 69.789062 218.421875 70.097656 218.269531 70.25 C 217.5 72.097656 217.347656 73.484375 217.808594 74.714844 C 218.421875 76.253906 220.269531 77.023438 221.503906 77.484375 C 223.503906 78.097656 228.429688 78.253906 233.355469 78.097656 C 233.972656 78.097656 234.742188 78.097656 235.355469 77.945312 C 235.511719 77.945312 235.816406 77.945312 235.972656 77.945312 C 240.898438 77.945312 245.054688 77.328125 248.59375 76.558594 Z M 248.59375 76.558594 " fill-opacity="1" fill-rule="nonzero"/><path fill="#965123" d="M 198.105469 33.46875 C 198.105469 34.238281 197.488281 34.699219 196.71875 34.699219 C 195.027344 34.699219 193.484375 34.546875 192.101562 34.238281 C 193.179688 33.316406 194.5625 32.546875 196.871094 32.085938 C 197.640625 32.238281 198.257812 32.855469 198.105469 33.46875 Z M 198.105469 33.46875 " fill-opacity="1" fill-rule="nonzero"/><path fill="#965123" d="M 248.59375 378.347656 C 248.59375 378.503906 248.441406 378.503906 248.441406 378.65625 C 248.285156 378.65625 248.132812 378.8125 248.132812 378.8125 C 247.980469 378.8125 247.824219 378.964844 247.671875 378.964844 C 247.210938 378.964844 246.746094 378.65625 246.441406 378.195312 C 246.285156 377.734375 246.285156 377.273438 246.59375 376.964844 C 246.59375 376.964844 246.746094 376.808594 246.746094 376.808594 C 246.746094 376.808594 246.902344 376.65625 246.902344 376.65625 C 247.363281 376.503906 247.824219 376.347656 248.285156 376.65625 C 248.75 376.808594 248.902344 377.578125 248.59375 378.347656 Z M 248.59375 378.347656 " fill-opacity="1" fill-rule="nonzero"/><g clip-path="url(#b39c227816)"><path fill="#965123" d="M 8.457031 173.976562 C 7.226562 172.746094 6.457031 171.515625 6.457031 170.28125 C 6.457031 169.976562 6.457031 169.667969 6.609375 169.359375 C 6.761719 169.359375 6.917969 169.207031 7.070312 169.207031 C 7.839844 169.207031 8.457031 169.820312 8.457031 170.589844 L 8.457031 170.898438 C 8.457031 171.667969 8.457031 172.746094 8.457031 173.976562 Z M 8.457031 173.976562 " fill-opacity="1" fill-rule="nonzero"/></g><path fill="#965123" d="M 88.8125 420.207031 C 87.886719 419.746094 87.269531 419.4375 86.808594 419.132812 C 86.195312 418.667969 86.039062 417.898438 86.5 417.285156 C 86.808594 416.824219 87.425781 416.515625 88.039062 416.824219 C 88.039062 416.824219 88.195312 416.824219 88.195312 416.976562 C 88.8125 417.285156 88.964844 418.054688 88.65625 418.667969 C 88.65625 418.515625 88.503906 419.132812 88.8125 420.207031 Z M 88.8125 420.207031 " fill-opacity="1" fill-rule="nonzero"/><path fill="#965123" d="M 248.59375 378.347656 C 248.59375 378.503906 248.441406 378.503906 248.441406 378.65625 C 238.742188 395.433594 227.660156 408.511719 215.191406 417.59375 C 215.039062 417.59375 215.039062 417.746094 214.882812 417.746094 C 214.730469 417.898438 213.191406 418.667969 210.109375 419.59375 C 210.417969 418.976562 210.417969 418.515625 210.417969 418.515625 C 210.417969 418.054688 210.574219 417.59375 211.035156 417.285156 C 211.957031 416.667969 212.726562 416.054688 213.652344 415.4375 C 213.652344 415.4375 213.652344 415.4375 213.804688 415.4375 C 225.964844 406.664062 237.050781 393.738281 246.441406 377.117188 C 246.441406 377.117188 246.441406 376.964844 246.59375 376.964844 C 246.59375 376.964844 246.746094 376.808594 246.746094 376.808594 C 246.746094 376.808594 246.902344 376.65625 246.902344 376.65625 C 247.363281 376.503906 247.824219 376.347656 248.285156 376.65625 C 248.75 376.808594 248.902344 377.578125 248.59375 378.347656 Z M 248.59375 378.347656 " fill-opacity="1" fill-rule="nonzero"/><path fill="#965123" d="M 273.996094 312.328125 C 273.839844 313.097656 273.53125 314.019531 273.378906 314.789062 C 273.222656 315.40625 272.609375 315.714844 272.148438 315.714844 C 271.992188 315.714844 271.992188 315.714844 271.839844 315.714844 C 271.683594 315.714844 271.378906 315.558594 271.222656 315.40625 C 270.914062 314.789062 271.222656 314.175781 271.839844 313.714844 C 272.300781 313.40625 273.070312 312.789062 273.996094 312.328125 Z M 273.996094 312.328125 " fill-opacity="1" fill-rule="nonzero"/><path fill="#965123" d="M 290.621094 170.28125 C 290.621094 171.667969 290.003906 172.898438 288.617188 174.128906 C 288.617188 172.746094 288.617188 171.667969 288.617188 171.050781 C 288.617188 170.28125 289.234375 169.667969 290.003906 169.667969 C 290.15625 169.667969 290.464844 169.667969 290.621094 169.820312 C 290.621094 169.976562 290.621094 170.128906 290.621094 170.28125 Z M 290.621094 170.28125 " fill-opacity="1" fill-rule="nonzero"/><path fill="#965123" d="M 88.8125 420.207031 C 87.886719 419.746094 87.269531 419.4375 86.808594 419.132812 C 86.195312 418.667969 86.039062 417.898438 86.5 417.285156 C 86.808594 416.824219 87.425781 416.515625 88.039062 416.824219 C 88.039062 416.824219 88.195312 416.824219 88.195312 416.976562 C 88.8125 417.285156 88.964844 418.054688 88.65625 418.667969 C 88.65625 418.515625 88.503906 419.132812 88.8125 420.207031 Z M 88.8125 420.207031 " fill-opacity="1" fill-rule="nonzero"/><path fill="#965123" d="M 215.039062 417.4375 C 214.882812 417.4375 214.882812 417.59375 214.730469 417.59375 C 214.574219 417.746094 213.035156 418.515625 209.957031 419.4375 C 210.265625 418.824219 210.265625 418.363281 210.265625 418.363281 C 210.265625 417.902344 210.417969 417.4375 210.882812 417.132812 C 211.804688 416.515625 212.574219 415.898438 213.496094 415.285156 C 213.496094 415.285156 213.496094 415.285156 213.652344 415.285156 C 214.265625 414.976562 215.191406 415.285156 215.5 415.898438 C 215.652344 416.363281 215.5 417.132812 215.039062 417.4375 Z M 215.039062 417.4375 " fill-opacity="1" fill-rule="nonzero"/><g clip-path="url(#4d7039766d)"><path fill="#965123" d="M 148.539062 191.210938 C 79.726562 191.210938 6.457031 183.824219 6.457031 170.128906 C 6.457031 156.433594 79.574219 149.046875 148.539062 149.046875 C 217.5 149.046875 290.621094 156.433594 290.621094 170.128906 C 290.621094 183.824219 217.347656 191.210938 148.539062 191.210938 Z M 148.539062 151.96875 C 110.976562 151.96875 75.726562 153.96875 49.25 157.664062 C 11.074219 163.050781 9.226562 169.050781 9.226562 170.28125 C 9.226562 171.515625 11.226562 177.515625 49.25 182.902344 C 75.726562 186.59375 110.976562 188.597656 148.539062 188.597656 C 186.097656 188.597656 221.347656 186.59375 247.824219 182.902344 C 286 177.515625 287.847656 171.515625 287.847656 170.28125 C 287.847656 169.050781 285.847656 163.050781 247.824219 157.664062 C 221.347656 153.96875 186.097656 151.96875 148.539062 151.96875 Z M 148.539062 151.96875 " fill-opacity="1" fill-rule="nonzero"/></g><path fill="#965123" d="M 243.667969 184.59375 C 218.117188 180.902344 181.941406 178.59375 142.070312 178.59375 C 105.742188 178.59375 72.492188 180.59375 47.554688 183.671875 C 47.554688 183.671875 113.285156 190.597656 137.609375 190.597656 C 161.929688 190.597656 205.648438 188.597656 207.1875 188.132812 C 208.570312 187.671875 243.667969 184.59375 243.667969 184.59375 Z M 243.667969 184.59375 " fill-opacity="1" fill-rule="nonzero"/><path fill="#965123" d="M 208.109375 45.933594 C 201.796875 45.933594 197.027344 45.78125 197.027344 45.78125 C 196.871094 45.78125 196.871094 45.78125 196.71875 45.78125 C 193.179688 44.859375 191.023438 43.320312 190.253906 41.164062 C 189.636719 39.316406 189.945312 37.316406 191.175781 35.46875 C 193.179688 32.699219 195.796875 31.621094 206.570312 31.316406 C 217.5 31.007812 225.351562 31.777344 228.277344 32.546875 C 231.199219 33.316406 234.125 36.703125 233.816406 39.933594 C 233.664062 41.78125 232.125 45.011719 224.273438 45.472656 C 218.730469 45.933594 213.035156 45.933594 208.109375 45.933594 Z M 197.335938 43.164062 C 198.875 43.164062 212.265625 43.625 224.121094 42.855469 C 228.429688 42.550781 230.890625 41.472656 231.046875 39.625 C 231.199219 37.777344 229.199219 35.625 227.507812 35.164062 C 225.351562 34.546875 217.960938 33.777344 206.570312 33.929688 C 195.179688 34.238281 194.257812 35.46875 193.332031 36.855469 C 193.023438 37.316406 192.253906 38.703125 192.714844 40.085938 C 193.179688 41.472656 194.871094 42.550781 197.335938 43.164062 Z M 197.335938 43.164062 " fill-opacity="1" fill-rule="nonzero"/><path fill="#965123" d="M 213.035156 58.246094 C 204.878906 58.246094 201.953125 57.632812 199.488281 55.785156 C 197.796875 54.554688 196.257812 51.320312 196.871094 48.550781 C 197.179688 47.167969 198.257812 44.550781 202.414062 43.472656 C 203.183594 43.320312 203.800781 43.78125 204.109375 44.394531 C 204.261719 45.164062 203.800781 45.78125 203.183594 46.089844 C 201.183594 46.550781 199.953125 47.628906 199.644531 49.011719 C 199.335938 50.859375 200.414062 53.015625 201.183594 53.628906 C 203.644531 55.476562 206.878906 55.9375 222.734375 55.324219 C 231.355469 55.015625 234.433594 53.320312 235.355469 51.9375 C 235.972656 51.015625 235.972656 50.089844 235.355469 48.550781 C 234.585938 46.550781 230.429688 44.703125 225.503906 45.472656 C 224.734375 45.628906 224.121094 45.011719 223.964844 44.394531 C 223.8125 43.625 224.425781 43.011719 225.042969 42.855469 C 231.046875 42.089844 236.433594 44.089844 237.820312 47.78125 C 238.433594 49.320312 238.898438 51.476562 237.511719 53.628906 C 235.664062 56.398438 230.738281 57.9375 222.886719 58.09375 C 218.886719 58.246094 215.652344 58.246094 213.035156 58.246094 Z M 213.035156 58.246094 " fill-opacity="1" fill-rule="nonzero"/><path fill="#965123" d="M 221.195312 70.40625 C 216.421875 70.40625 211.804688 69.941406 209.339844 68.402344 C 207.339844 67.328125 206.109375 65.480469 205.492188 63.171875 C 204.878906 60.402344 205.492188 57.632812 206.570312 56.09375 C 207.03125 55.476562 207.800781 55.324219 208.417969 55.785156 C 209.035156 56.246094 209.1875 57.015625 208.726562 57.632812 C 208.109375 58.707031 207.648438 60.710938 208.109375 62.554688 C 208.417969 64.09375 209.339844 65.324219 210.574219 66.09375 C 214.421875 68.402344 225.042969 67.632812 232.125 67.171875 L 232.433594 67.171875 C 238.128906 66.863281 241.515625 65.941406 242.746094 64.402344 C 243.207031 63.789062 243.359375 63.171875 243.207031 62.402344 C 243.054688 61.015625 242.589844 56.863281 231.96875 57.324219 C 225.8125 57.632812 222.578125 58.09375 222.578125 58.09375 C 221.808594 58.246094 221.195312 57.632812 221.039062 57.015625 C 220.886719 56.246094 221.503906 55.628906 222.117188 55.476562 C 222.273438 55.476562 225.503906 55.015625 231.816406 54.707031 C 240.4375 54.398438 245.054688 56.863281 245.671875 62.09375 C 245.824219 63.632812 245.515625 65.019531 244.59375 66.09375 C 242.746094 68.25 239.050781 69.480469 232.433594 69.789062 L 232.125 69.789062 C 228.890625 70.097656 224.890625 70.40625 221.195312 70.40625 Z M 221.195312 70.40625 " fill-opacity="1" fill-rule="nonzero"/><path fill="#965123" d="M 230.429688 80.871094 C 225.964844 80.871094 221.964844 80.5625 220.578125 80.253906 C 217.808594 79.484375 215.960938 77.945312 215.191406 75.945312 C 214.265625 73.789062 214.574219 71.328125 216.113281 68.558594 C 216.421875 67.941406 217.191406 67.632812 217.960938 67.941406 C 218.578125 68.25 218.886719 69.019531 218.578125 69.789062 C 217.5 71.789062 217.191406 73.636719 217.808594 74.867188 C 218.421875 76.40625 220.269531 77.175781 221.503906 77.636719 C 225.8125 78.867188 243.976562 78.097656 245.671875 76.558594 C 246.441406 75.636719 246.746094 74.714844 246.59375 73.636719 C 246.441406 72.558594 245.515625 71.636719 244.132812 70.867188 C 241.207031 69.328125 233.816406 69.941406 231.355469 70.25 C 230.585938 70.40625 229.96875 69.789062 229.816406 69.171875 C 229.660156 68.402344 230.277344 67.789062 230.890625 67.632812 C 231.96875 67.480469 240.898438 66.402344 245.207031 68.558594 C 247.980469 69.941406 248.902344 71.945312 249.210938 73.175781 C 249.519531 75.019531 249.058594 76.867188 247.671875 78.40625 C 245.824219 80.101562 237.511719 80.871094 230.429688 80.871094 Z M 230.429688 80.871094 " fill-opacity="1" fill-rule="nonzero"/><path fill="#965123" d="M 149.460938 171.515625 C 149 171.515625 148.539062 171.359375 148.382812 170.898438 L 95.582031 88.871094 C 95.121094 88.257812 95.429688 87.488281 96.046875 87.023438 C 96.660156 86.5625 97.429688 86.871094 97.894531 87.488281 L 150.691406 169.511719 C 151.152344 170.128906 150.847656 170.898438 150.230469 171.359375 C 149.921875 171.359375 149.769531 171.515625 149.460938 171.515625 Z M 149.460938 171.515625 " fill-opacity="1" fill-rule="nonzero"/><path fill="#965123" d="M 231.355469 97.796875 C 231.046875 97.796875 230.738281 97.644531 230.585938 97.488281 L 151.617188 35.777344 C 151 35.316406 151 34.546875 151.460938 33.929688 C 151.925781 33.316406 152.695312 33.316406 153.308594 33.777344 L 232.277344 95.488281 C 232.894531 95.953125 232.894531 96.722656 232.433594 97.335938 C 232.125 97.644531 231.816406 97.796875 231.355469 97.796875 Z M 231.355469 97.796875 " fill-opacity="1" fill-rule="nonzero"/><path fill="#965123" d="M 96.507812 88.257812 C 95.738281 88.257812 95.121094 88.101562 94.660156 87.488281 C 93.429688 86.253906 93.273438 83.792969 100.355469 75.175781 C 105.128906 69.480469 111.902344 62.402344 119.597656 55.476562 C 127.292969 48.550781 134.835938 42.394531 141.148438 38.394531 C 150.382812 32.238281 152.847656 32.699219 153.925781 34.085938 C 155.15625 35.316406 155.308594 37.777344 148.230469 46.398438 C 143.457031 52.089844 136.683594 59.171875 128.988281 66.09375 C 126.0625 68.402344 104.050781 88.257812 96.507812 88.257812 Z M 96.660156 85.640625 C 99.433594 85.640625 111.285156 78.253906 127.140625 63.941406 C 143.148438 49.476562 151.617188 38.546875 151.769531 35.777344 C 149 35.777344 137.300781 43.164062 121.445312 57.476562 C 105.28125 71.945312 96.816406 83.023438 96.660156 85.640625 Z M 96.660156 85.640625 " fill-opacity="1" fill-rule="nonzero"/><path fill="#965123" d="M 152.230469 172.898438 C 150.691406 172.898438 149.613281 172.4375 148.84375 171.667969 C 146.382812 168.898438 148.691406 162.742188 155.617188 153.507812 C 162.082031 144.890625 171.628906 134.734375 182.558594 124.882812 C 193.484375 114.878906 204.722656 106.417969 213.804688 100.875 C 223.8125 94.875 230.121094 93.179688 232.585938 95.953125 C 235.046875 98.722656 232.738281 104.878906 225.8125 114.109375 C 219.347656 122.730469 209.804688 132.886719 198.875 142.734375 C 184.25 155.96875 161.777344 172.898438 152.230469 172.898438 Z M 229.199219 97.183594 C 227.042969 97.183594 222.886719 98.414062 215.191406 103.03125 C 206.109375 108.417969 195.179688 116.882812 184.402344 126.730469 C 173.476562 136.578125 164.085938 146.582031 157.773438 155.046875 C 150.539062 164.742188 149.921875 168.898438 150.847656 169.820312 C 153.464844 172.746094 172.398438 163.050781 197.179688 140.734375 C 208.109375 130.886719 217.5 120.882812 223.8125 112.417969 C 231.046875 102.722656 231.660156 98.566406 230.738281 97.644531 C 230.429688 97.488281 229.96875 97.183594 229.199219 97.183594 Z M 229.199219 97.183594 " fill-opacity="1" fill-rule="nonzero"/><path fill="#965123" d="M 213.191406 83.792969 C 212.882812 83.792969 212.574219 83.640625 212.265625 83.484375 C 211.652344 83.023438 211.652344 82.101562 212.113281 81.640625 C 212.421875 81.332031 212.726562 81.023438 212.882812 80.5625 C 213.960938 79.175781 215.039062 77.636719 215.808594 76.097656 C 216.113281 75.484375 216.882812 75.175781 217.652344 75.484375 C 218.269531 75.789062 218.578125 76.714844 218.269531 77.328125 C 217.347656 79.023438 216.269531 80.714844 215.035156 82.101562 C 214.730469 82.410156 214.421875 82.871094 214.113281 83.179688 C 213.960938 83.640625 213.652344 83.792969 213.191406 83.792969 Z M 213.191406 83.792969 " fill-opacity="1" fill-rule="nonzero"/><path fill="#965123" d="M 164.546875 45.320312 C 164.238281 45.320312 163.929688 45.164062 163.777344 45.011719 C 163.160156 44.550781 163.007812 43.78125 163.46875 43.164062 C 163.777344 42.855469 164.085938 42.394531 164.394531 42.089844 C 170.394531 34.394531 179.476562 29.929688 189.175781 29.777344 C 189.945312 29.777344 190.5625 30.390625 190.5625 31.007812 C 190.5625 31.777344 189.945312 32.390625 189.328125 32.390625 C 180.402344 32.546875 172.089844 36.703125 166.546875 43.625 C 166.238281 43.933594 166.085938 44.394531 165.777344 44.703125 C 165.316406 45.164062 164.855469 45.320312 164.546875 45.320312 Z M 164.546875 45.320312 " fill-opacity="1" fill-rule="nonzero"/><path fill="#965123" d="M 95.121094 90.257812 C 99.585938 89.796875 147.304688 166.589844 147.304688 166.589844 C 147.304688 166.589844 150.230469 172.4375 154.847656 171.050781 C 161.3125 169.050781 187.019531 151.507812 199.953125 139.503906 C 213.035156 127.5 225.503906 114.417969 228.121094 109.339844 C 230.585938 104.261719 234.433594 99.027344 231.355469 96.414062 C 228.121094 93.796875 213.34375 82.5625 213.34375 82.5625 L 93.429688 88.257812 " fill-opacity="1" fill-rule="nonzero"/><path fill="#965123" d="M 88.347656 94.875 L 103.433594 102.261719 L 108.515625 102.261719 L 97.125 85.488281 L 89.425781 88.410156 C 89.425781 88.410156 78.34375 89.949219 74.800781 103.492188 C 72.648438 111.957031 71.722656 155.199219 71.417969 186.59375 L 86.808594 188.289062 C 86.347656 159.046875 85.578125 119.804688 85.269531 113.035156 C 84.808594 101.953125 83.730469 95.488281 88.347656 94.875 " fill-opacity="1" fill-rule="nonzero"/><path fill="#965123" d="M 106.976562 105.339844 C 106.820312 105.339844 106.667969 105.339844 106.511719 105.183594 L 85.730469 96.566406 C 85.269531 96.414062 85.117188 96.105469 84.960938 95.644531 C 84.808594 95.183594 84.960938 94.875 85.269531 94.414062 C 87.886719 91.027344 95.121094 81.945312 95.890625 80.5625 C 96.199219 79.945312 97.125 79.792969 97.738281 80.101562 C 98.355469 80.40625 98.507812 81.332031 98.199219 81.945312 C 97.277344 83.484375 91.121094 91.335938 88.503906 94.71875 L 107.589844 102.570312 C 108.207031 102.875 108.667969 103.644531 108.359375 104.261719 C 108.050781 105.03125 107.589844 105.339844 106.976562 105.339844 Z M 106.976562 105.339844 " fill-opacity="1" fill-rule="nonzero"/><path fill="#965123" d="M 272.300781 316.328125 C 271.839844 316.328125 271.378906 316.175781 271.222656 315.714844 C 270.761719 315.097656 271.070312 314.328125 271.683594 313.867188 C 302.316406 294.9375 355.578125 255.078125 368.816406 199.523438 C 382.054688 143.8125 368.816406 105.183594 329.410156 84.871094 C 314.324219 77.175781 298.46875 72.714844 282.304688 71.789062 L 275.839844 71.636719 C 269.53125 72.097656 264.757812 73.945312 259.679688 75.789062 C 252.90625 78.253906 245.824219 80.871094 233.816406 80.714844 C 233.046875 80.714844 232.433594 80.101562 232.433594 79.332031 C 232.433594 78.5625 233.046875 77.945312 233.816406 77.945312 C 245.363281 78.097656 252.136719 75.636719 258.753906 73.175781 C 263.988281 71.175781 268.914062 69.480469 275.839844 68.867188 L 282.460938 69.019531 C 299.085938 69.941406 315.25 74.558594 330.640625 82.410156 C 371.28125 103.339844 385.136719 142.890625 371.433594 199.984375 C 358.042969 256.308594 304.011719 296.785156 273.070312 315.867188 C 272.761719 316.175781 272.453125 316.328125 272.300781 316.328125 Z M 272.300781 316.328125 " fill-opacity="1" fill-rule="nonzero"/><path fill="#965123" d="M 247.515625 378.8125 C 247.054688 378.8125 246.441406 378.503906 246.285156 378.042969 C 245.976562 377.425781 246.285156 376.503906 247.054688 376.347656 C 279.691406 362.34375 388.367188 309.25 412.074219 209.832031 C 430.238281 133.808594 408.070312 75.484375 349.730469 45.472656 C 329.101562 34.855469 306.9375 28.851562 283.539062 27.46875 L 274.765625 27.3125 C 257.832031 28.082031 254.753906 26.851562 248.59375 24.542969 C 247.210938 24.082031 245.671875 23.464844 243.824219 22.851562 C 236.125 20.234375 221.65625 20.851562 212.113281 21.15625 C 209.1875 21.3125 206.570312 21.3125 204.570312 21.3125 C 197.027344 21.3125 191.945312 22.390625 189.945312 24.542969 C 189.328125 25.160156 189.023438 25.929688 189.175781 26.699219 C 189.328125 30.855469 190.871094 31.929688 196.871094 32.238281 C 197.640625 32.238281 198.257812 32.855469 198.105469 33.625 C 198.105469 34.394531 197.488281 34.855469 196.71875 34.855469 C 190.253906 34.546875 186.714844 33.160156 186.40625 26.851562 C 186.40625 25.3125 186.867188 23.929688 187.945312 22.695312 C 190.5625 20.082031 196.101562 18.695312 204.570312 18.695312 C 206.417969 18.695312 209.035156 18.542969 211.957031 18.542969 C 222.273438 18.082031 236.433594 17.617188 244.59375 20.386719 C 246.441406 21.003906 247.980469 21.621094 249.363281 22.082031 C 255.367188 24.390625 258.140625 25.46875 274.609375 24.699219 L 283.539062 24.851562 C 307.398438 26.238281 329.871094 32.390625 350.808594 43.164062 C 410.378906 73.789062 433.007812 133.195312 414.535156 210.601562 C 390.523438 310.941406 281.074219 364.652344 247.980469 378.8125 C 247.824219 378.8125 247.671875 378.8125 247.515625 378.8125 Z M 247.515625 378.8125 " fill-opacity="1" fill-rule="nonzero"/><g clip-path="url(#9303a5eac5)"><path fill="#965123" d="M 152.695312 435.289062 C 105.128906 435.289062 90.8125 428.519531 87.117188 422.671875 C 86.039062 420.976562 85.886719 419.59375 86.039062 418.515625 C 52.636719 396.664062 29.082031 350.03125 16.308594 279.855469 C 7.070312 229.839844 6.609375 183.824219 6.609375 170.898438 L 6.609375 170.4375 C 6.609375 169.667969 7.226562 169.050781 7.996094 169.050781 C 8.765625 169.050781 9.378906 169.667969 9.378906 170.4375 L 9.378906 170.898438 C 9.378906 183.824219 9.84375 229.53125 18.925781 279.394531 C 31.699219 349.261719 55.097656 395.585938 88.347656 416.667969 C 88.964844 416.976562 89.117188 417.746094 88.8125 418.363281 C 88.8125 418.363281 88.347656 419.59375 89.582031 421.132812 C 92.503906 425.289062 104.511719 432.367188 152.847656 432.367188 C 192.714844 432.367188 204.878906 425.59375 208.570312 421.59375 C 210.417969 419.59375 210.265625 418.207031 210.265625 418.207031 C 210.265625 417.746094 210.417969 417.285156 210.882812 416.976562 C 224.273438 408.203125 236.125 394.660156 246.285156 376.808594 C 246.59375 376.195312 247.515625 375.886719 248.132812 376.347656 C 248.75 376.65625 249.058594 377.578125 248.59375 378.195312 C 238.433594 396.199219 226.429688 409.898438 212.882812 418.976562 C 212.726562 419.902344 212.265625 421.59375 210.726562 423.285156 C 205.953125 428.828125 191.945312 435.289062 152.695312 435.289062 Z M 152.695312 435.289062 " fill-opacity="1" fill-rule="nonzero"/></g><path fill="#965123" d="M 271.992188 315.867188 C 271.839844 315.867188 271.839844 315.867188 271.683594 315.867188 C 270.914062 315.714844 270.609375 314.945312 270.761719 314.175781 C 287.386719 251.539062 288.15625 183.824219 288.003906 170.746094 L 288.003906 170.4375 C 288.003906 169.667969 288.617188 169.050781 289.386719 169.050781 C 290.15625 169.050781 290.773438 169.667969 290.773438 170.4375 L 290.773438 170.746094 C 290.773438 183.824219 290.15625 251.847656 273.378906 314.789062 C 273.070312 315.40625 272.609375 315.867188 271.992188 315.867188 Z M 271.992188 315.867188 " fill-opacity="1" fill-rule="nonzero"/><path fill="#965123" d="M 144.074219 427.441406 C 101.585938 427.441406 89.117188 420.671875 86.964844 419.132812 C 86.347656 418.667969 86.195312 417.902344 86.65625 417.285156 C 87.117188 416.667969 87.886719 416.515625 88.503906 416.976562 C 89.886719 417.898438 103.125 425.75 152.847656 424.671875 C 196.410156 423.75 213.652344 415.4375 213.804688 415.285156 C 214.421875 414.976562 215.191406 415.285156 215.652344 415.898438 C 215.960938 416.515625 215.652344 417.285156 215.039062 417.746094 C 214.265625 418.054688 197.335938 426.519531 153 427.441406 C 149.613281 427.441406 146.84375 427.441406 144.074219 427.441406 Z M 144.074219 427.441406 " fill-opacity="1" fill-rule="nonzero"/><g clip-path="url(#18c9541a70)"><path fill="#965123" d="M 134.390625 100.273438 L 183.652344 100.273438 L 183.652344 131.960938 L 134.390625 131.960938 Z M 134.390625 100.273438 " fill-opacity="1" fill-rule="nonzero"/></g></svg>