<svg xmlns="http://www.w3.org/2000/svg" xmlns:xlink="http://www.w3.org/1999/xlink" width="310" zoomAndPan="magnify" viewBox="0 0 232.5 187.499995" height="250" preserveAspectRatio="xMidYMid meet" version="1.0"><defs><clipPath id="c0d2954d55"><path d="M 33.371094 88 L 56 88 L 56 107 L 33.371094 107 Z M 33.371094 88 " clip-rule="nonzero"/></clipPath><clipPath id="1850cf2280"><path d="M 33.371094 99 L 52 99 L 52 107 L 33.371094 107 Z M 33.371094 99 " clip-rule="nonzero"/></clipPath></defs><path stroke-linecap="butt" transform="matrix(0.748005, 0, 0, 0.748005, 108.896941, 71.97422)" fill="none" stroke-linejoin="miter" d="M 0.0020001 1.99802 L 42.396003 1.99802 " stroke="#ede2d9" stroke-width="4" stroke-opacity="1" stroke-miterlimit="4"/><path fill="#ede2d9" d="M 172.867188 53.523438 C 172.808594 53.464844 172.75 53.410156 172.691406 53.410156 L 172.636719 53.523438 L 172.691406 53.410156 C 172.519531 53.292969 172.40625 53.121094 172.175781 53.007812 C 172.347656 53.121094 172.519531 53.292969 172.691406 53.410156 L 174.363281 48.859375 C 174.421875 48.6875 174.363281 48.457031 174.25 48.339844 C 173.960938 48.109375 167.21875 42.636719 150.625 37.109375 C 134.03125 31.578125 127.402344 31.460938 127.117188 31.460938 C 126.886719 31.460938 126.710938 31.578125 126.65625 31.808594 L 125.097656 36.1875 C 125.214844 36.1875 125.273438 36.1875 125.386719 36.1875 C 125.503906 36.1875 125.617188 36.1875 125.789062 36.1875 C 125.617188 36.1875 125.503906 36.1875 125.386719 36.1875 C 125.273438 36.1875 125.214844 36.1875 125.097656 36.1875 C 117.722656 36.703125 111.097656 38.835938 105.105469 42.003906 C 103.375 38.027344 100.324219 34.628906 96.460938 32.328125 C 93.695312 30.65625 90.644531 29.675781 87.472656 29.332031 C 83.671875 28.929688 79.753906 29.503906 76.179688 30.945312 C 69.4375 33.707031 64.65625 40.277344 63.675781 48.050781 C 62.640625 56.117188 65.808594 63.71875 71.972656 68.269531 C 73.300781 69.25 74.625 70.113281 75.949219 70.804688 C 72.378906 76.449219 69.496094 81.921875 67.308594 86.53125 C 67.25 86.644531 67.25 86.820312 67.308594 86.933594 C 67.363281 87.050781 67.480469 87.164062 67.59375 87.222656 L 185.542969 123.683594 C 185.597656 123.683594 185.65625 123.683594 185.65625 123.683594 C 185.714844 123.683594 185.828125 123.683594 185.886719 123.625 C 186.003906 123.570312 186.058594 123.453125 186.117188 123.339844 C 186.234375 122.820312 198.679688 79.101562 172.867188 53.523438 Z M 97.5 47.074219 C 97.441406 46.957031 97.441406 46.84375 97.382812 46.726562 C 97.441406 46.84375 97.5 46.957031 97.5 47.074219 Z M 76.582031 71.035156 C 76.699219 71.035156 76.8125 70.976562 76.929688 70.921875 C 76.929688 70.921875 76.929688 70.863281 76.988281 70.863281 C 76.988281 70.863281 76.988281 70.921875 76.929688 70.921875 C 76.8125 70.976562 76.699219 71.035156 76.582031 71.035156 Z M 76.410156 69.882812 C 76.527344 69.941406 76.699219 70.054688 76.8125 70.113281 C 76.871094 70.113281 76.871094 70.171875 76.929688 70.171875 C 76.871094 70.171875 76.871094 70.113281 76.8125 70.113281 C 76.699219 70.054688 76.527344 70 76.410156 69.882812 Z M 77.042969 70.691406 C 77.042969 70.746094 77.042969 70.746094 77.042969 70.691406 C 77.042969 70.746094 77.042969 70.746094 77.042969 70.691406 C 77.042969 70.632812 77.042969 70.515625 77.042969 70.460938 C 77.042969 70.515625 77.042969 70.632812 77.042969 70.691406 Z M 81.828125 63.664062 C 81.769531 63.835938 81.597656 63.949219 81.421875 63.949219 C 81.367188 63.949219 81.308594 63.949219 81.25 63.894531 C 81.308594 63.894531 81.367188 63.949219 81.421875 63.949219 C 81.597656 63.894531 81.769531 63.777344 81.828125 63.664062 C 81.941406 63.433594 81.882812 63.203125 81.710938 63.085938 C 81.882812 63.203125 81.941406 63.433594 81.828125 63.664062 Z M 81.367188 62.855469 C 80.214844 62.28125 79.117188 61.589844 77.964844 60.78125 C 74.625 58.304688 72.953125 54.15625 73.53125 49.664062 C 74.046875 45.34375 76.527344 41.886719 80.097656 40.449219 C 82.171875 39.585938 84.363281 39.296875 86.550781 39.527344 C 88.339844 39.699219 90.007812 40.277344 91.621094 41.199219 C 94.101562 42.636719 95.886719 44.882812 96.636719 47.359375 C 90.757812 51.796875 85.6875 57.210938 81.367188 62.855469 Z M 97.269531 47.9375 Z M 97.441406 47.878906 C 97.5 47.820312 97.558594 47.707031 97.613281 47.648438 C 97.558594 47.707031 97.5 47.820312 97.441406 47.878906 Z M 97.613281 47.535156 Z M 104.296875 42.578125 C 104.242188 42.523438 104.242188 42.40625 104.183594 42.347656 C 104.355469 42.234375 104.472656 42.175781 104.644531 42.117188 C 104.472656 42.175781 104.355469 42.292969 104.183594 42.347656 C 104.242188 42.40625 104.296875 42.523438 104.296875 42.578125 C 104.355469 42.695312 104.472656 42.808594 104.585938 42.867188 C 104.472656 42.808594 104.355469 42.695312 104.296875 42.578125 Z M 125.214844 37.050781 C 125.042969 36.992188 124.925781 36.820312 124.925781 36.703125 C 124.925781 36.820312 125.042969 36.992188 125.214844 37.050781 C 125.273438 37.050781 125.273438 37.050781 125.328125 37.050781 C 125.273438 37.050781 125.273438 37.050781 125.214844 37.050781 Z M 125.675781 36.933594 C 125.734375 36.878906 125.789062 36.820312 125.789062 36.761719 L 125.90625 36.359375 L 125.789062 36.761719 C 125.789062 36.820312 125.734375 36.878906 125.675781 36.933594 Z M 171.710938 53.234375 L 171.886719 52.777344 L 171.710938 53.234375 C 171.65625 53.410156 171.710938 53.582031 171.828125 53.695312 C 171.710938 53.582031 171.65625 53.410156 171.710938 53.234375 Z M 171.886719 53.753906 Z M 172.058594 53.871094 C 172.117188 53.871094 172.175781 53.871094 172.230469 53.871094 C 172.347656 53.871094 172.460938 53.8125 172.519531 53.753906 C 172.460938 53.8125 172.347656 53.871094 172.230469 53.871094 C 172.117188 53.871094 172.058594 53.871094 172.058594 53.871094 Z M 172.058594 53.871094 " fill-opacity="1" fill-rule="nonzero"/><path fill="#965123" d="M 72.894531 72.074219 C 72.839844 72.074219 72.722656 72.074219 72.664062 72.015625 C 71.167969 71.207031 69.667969 70.285156 68.230469 69.191406 C 62.007812 64.585938 58.894531 57.039062 59.875 48.972656 C 60.855469 41.199219 65.636719 34.628906 72.378906 31.867188 C 76.007812 30.367188 79.925781 29.792969 83.671875 30.253906 C 86.839844 30.597656 89.894531 31.636719 92.71875 33.25 C 96.691406 35.609375 99.863281 39.179688 101.53125 43.269531 C 101.648438 43.5 101.53125 43.789062 101.246094 43.90625 C 101.015625 44.019531 100.726562 43.90625 100.609375 43.617188 C 98.996094 39.699219 96.058594 36.300781 92.199219 34.054688 C 89.546875 32.5 86.609375 31.519531 83.554688 31.175781 C 79.925781 30.769531 76.179688 31.347656 72.722656 32.730469 C 66.269531 35.378906 61.71875 41.601562 60.796875 49.03125 C 59.816406 56.75 62.8125 64.007812 68.746094 68.386719 C 70.128906 69.421875 71.628906 70.34375 73.070312 71.09375 C 73.300781 71.207031 73.414062 71.496094 73.300781 71.726562 C 73.242188 72.015625 73.070312 72.074219 72.894531 72.074219 Z M 72.894531 72.074219 " fill-opacity="1" fill-rule="nonzero"/><path fill="#965123" d="M 77.734375 64.929688 C 77.679688 64.929688 77.621094 64.929688 77.503906 64.871094 C 76.238281 64.238281 74.96875 63.488281 73.703125 62.566406 C 70.074219 59.859375 68.285156 55.425781 68.863281 50.585938 C 69.4375 45.921875 72.148438 42.175781 76.007812 40.5625 C 78.195312 39.640625 80.617188 39.296875 82.921875 39.585938 C 84.824219 39.816406 86.667969 40.390625 88.339844 41.371094 C 91.105469 43.039062 93.121094 45.574219 93.871094 48.398438 C 93.925781 48.628906 93.8125 48.917969 93.523438 48.972656 C 93.292969 49.03125 93.003906 48.859375 92.949219 48.628906 C 92.257812 46.035156 90.414062 43.730469 87.820312 42.175781 C 86.265625 41.253906 84.59375 40.679688 82.804688 40.507812 C 80.675781 40.277344 78.425781 40.621094 76.351562 41.425781 C 72.78125 42.867188 70.304688 46.324219 69.785156 50.644531 C 69.207031 55.136719 70.878906 59.285156 74.222656 61.761719 C 75.429688 62.625 76.640625 63.375 77.851562 63.949219 C 78.082031 64.066406 78.195312 64.355469 78.082031 64.585938 C 78.082031 64.871094 77.910156 64.929688 77.734375 64.929688 Z M 77.734375 64.929688 " fill-opacity="1" fill-rule="nonzero"/><path fill="#965123" d="M 168.542969 54.90625 C 168.484375 54.90625 168.429688 54.90625 168.371094 54.847656 C 168.140625 54.734375 167.96875 54.503906 168.082031 54.214844 L 169.695312 49.835938 C 168.3125 48.800781 161.285156 43.847656 146.648438 39.007812 C 132.242188 34.226562 125.328125 33.535156 123.773438 33.421875 L 122.21875 37.796875 C 122.101562 38.027344 121.871094 38.203125 121.585938 38.085938 C 121.355469 37.972656 121.179688 37.742188 121.296875 37.453125 L 122.96875 32.789062 C 123.023438 32.613281 123.199219 32.441406 123.429688 32.441406 C 123.714844 32.441406 130.34375 32.613281 146.9375 38.085938 C 163.589844 43.617188 170.328125 49.089844 170.558594 49.320312 C 170.734375 49.433594 170.789062 49.664062 170.734375 49.835938 L 169.003906 54.5625 C 168.890625 54.792969 168.714844 54.90625 168.542969 54.90625 Z M 168.542969 54.90625 " fill-opacity="1" fill-rule="nonzero"/><path fill="#965123" d="M 181.96875 124.664062 C 181.910156 124.664062 181.855469 124.664062 181.855469 124.664062 L 63.90625 88.203125 C 63.792969 88.144531 63.675781 88.085938 63.621094 87.914062 C 63.5625 87.796875 63.5625 87.625 63.621094 87.511719 C 72.03125 69.539062 90.699219 39.125 121.699219 37.109375 C 123.199219 36.820312 137.027344 41.253906 140.367188 42.464844 L 144.921875 44.136719 C 159.902344 49.605469 166.757812 52.140625 169.292969 54.503906 C 195.105469 80.136719 182.660156 123.855469 182.546875 124.261719 C 182.488281 124.375 182.429688 124.492188 182.316406 124.546875 C 182.140625 124.664062 182.085938 124.664062 181.96875 124.664062 Z M 64.714844 87.453125 L 181.679688 123.625 C 182.949219 118.847656 192.511719 79.042969 168.542969 55.308594 C 166.179688 53.0625 159.382812 50.585938 144.515625 45.113281 L 139.964844 43.445312 C 135.066406 41.65625 122.851562 37.914062 121.757812 38.085938 C 91.507812 39.988281 73.125 69.59375 64.714844 87.453125 Z M 64.714844 87.453125 " fill-opacity="1" fill-rule="nonzero"/><path fill="#965123" d="M 142.210938 31.519531 C 141.980469 31.519531 141.75 31.347656 141.75 31.117188 L 138.8125 12.511719 C 138.753906 12.222656 138.925781 11.992188 139.214844 11.933594 C 139.503906 11.878906 139.734375 12.050781 139.792969 12.339844 L 142.730469 30.945312 C 142.789062 31.230469 142.617188 31.460938 142.328125 31.519531 C 142.269531 31.519531 142.210938 31.519531 142.210938 31.519531 Z M 142.210938 31.519531 " fill-opacity="1" fill-rule="nonzero"/><path fill="#965123" d="M 153.792969 30.195312 C 153.734375 30.195312 153.679688 30.195312 153.621094 30.195312 C 153.390625 30.136719 153.21875 29.847656 153.332031 29.621094 L 162.722656 0.472656 C 162.78125 0.242188 163.070312 0.0703125 163.300781 0.183594 C 163.53125 0.242188 163.703125 0.53125 163.589844 0.761719 L 154.195312 29.90625 C 154.195312 30.078125 154.023438 30.195312 153.792969 30.195312 Z M 153.792969 30.195312 " fill-opacity="1" fill-rule="nonzero"/><path fill="#965123" d="M 161.917969 37.109375 C 161.800781 37.109375 161.6875 37.050781 161.570312 36.992188 C 161.398438 36.820312 161.339844 36.53125 161.570312 36.300781 L 173.210938 23.917969 C 173.382812 23.742188 173.671875 23.6875 173.902344 23.917969 C 174.074219 24.089844 174.132812 24.378906 173.902344 24.609375 L 162.261719 36.992188 C 162.148438 37.109375 162.03125 37.109375 161.917969 37.109375 Z M 161.917969 37.109375 " fill-opacity="1" fill-rule="nonzero"/><path fill="#965123" d="M 170.789062 42.003906 C 170.617188 42.003906 170.503906 41.945312 170.386719 41.832031 C 170.214844 41.601562 170.273438 41.3125 170.503906 41.140625 L 175.632812 37.339844 C 175.863281 37.164062 176.148438 37.222656 176.324219 37.453125 C 176.496094 37.683594 176.4375 37.972656 176.207031 38.144531 L 171.078125 41.945312 C 170.964844 42.003906 170.90625 42.003906 170.789062 42.003906 Z M 170.789062 42.003906 " fill-opacity="1" fill-rule="nonzero"/><path fill="#965123" d="M 131.035156 29.445312 C 130.859375 29.445312 130.6875 29.332031 130.574219 29.160156 L 128.152344 22.996094 C 128.039062 22.765625 128.152344 22.476562 128.441406 22.359375 C 128.671875 22.246094 128.960938 22.359375 129.074219 22.648438 L 131.550781 28.8125 C 131.667969 29.042969 131.550781 29.332031 131.265625 29.445312 C 131.148438 29.445312 131.089844 29.445312 131.035156 29.445312 Z M 131.035156 29.445312 " fill-opacity="1" fill-rule="nonzero"/><g clip-path="url(#c0d2954d55)"><path fill="#965123" d="M 33.945312 106.347656 C 33.886719 106.347656 33.832031 106.347656 33.714844 106.289062 C 33.484375 106.171875 33.371094 105.886719 33.484375 105.65625 C 37.804688 96.839844 50.019531 88.546875 50.539062 88.203125 C 50.65625 88.144531 50.828125 88.085938 50.941406 88.144531 C 51.058594 88.203125 51.171875 88.316406 51.230469 88.429688 C 51.230469 88.488281 52.960938 92.925781 55.609375 100.414062 C 55.726562 100.644531 55.554688 100.929688 55.324219 101.046875 C 55.09375 101.160156 54.804688 100.988281 54.6875 100.757812 C 52.613281 94.824219 51.058594 90.851562 50.539062 89.410156 C 48.175781 91.082031 37.980469 98.570312 34.292969 106.171875 C 34.292969 106.230469 34.117188 106.347656 33.945312 106.347656 Z M 33.945312 106.347656 " fill-opacity="1" fill-rule="nonzero"/></g><path fill="#965123" d="M 145.09375 169.996094 C 144.804688 169.996094 144.632812 169.996094 144.632812 169.996094 C 144.460938 169.996094 144.285156 169.882812 144.230469 169.765625 C 144.171875 169.59375 144.171875 169.421875 144.230469 169.304688 C 144.285156 169.25 147.28125 163.949219 149.875 157.09375 C 149.992188 156.863281 150.222656 156.75 150.507812 156.804688 C 150.738281 156.921875 150.855469 157.152344 150.796875 157.441406 C 148.722656 162.910156 146.359375 167.40625 145.4375 169.074219 C 148.378906 169.019531 159.09375 168.269531 169.925781 160.722656 C 170.15625 160.550781 170.445312 160.609375 170.617188 160.839844 C 170.789062 161.070312 170.734375 161.355469 170.503906 161.53125 C 158.980469 169.535156 147.511719 169.996094 145.09375 169.996094 Z M 145.09375 169.996094 " fill-opacity="1" fill-rule="nonzero"/><g clip-path="url(#1850cf2280)"><path fill="#965123" d="M 34.117188 106.289062 C 34.0625 106.289062 34.0625 106.289062 34.003906 106.289062 C 33.714844 106.289062 33.542969 106.058594 33.542969 105.769531 C 33.542969 105.480469 33.773438 105.308594 34.0625 105.308594 C 34.0625 105.308594 37.230469 105.425781 43.050781 101.390625 C 45.238281 99.894531 46.96875 99.375 48.40625 99.894531 C 49.847656 100.355469 51 101.796875 51.863281 104.273438 C 51.980469 104.503906 51.808594 104.789062 51.578125 104.90625 C 51.347656 105.019531 51.058594 104.847656 50.941406 104.617188 C 50.195312 102.488281 49.214844 101.21875 48.0625 100.816406 C 46.910156 100.414062 45.46875 100.875 43.566406 102.199219 C 37.980469 106.117188 34.695312 106.289062 34.117188 106.289062 Z M 34.117188 106.289062 " fill-opacity="1" fill-rule="nonzero"/></g><path fill="#965123" d="M 170.386719 161.472656 C 170.386719 161.472656 170.328125 161.472656 170.328125 161.472656 C 170.214844 161.472656 170.15625 161.414062 170.042969 161.355469 C 169.003906 161.070312 162.148438 161.070312 155.984375 161.242188 C 155.808594 161.242188 155.636719 161.183594 155.578125 161.011719 C 155.464844 160.839844 155.464844 160.664062 155.578125 160.550781 C 155.578125 160.550781 156.558594 158.765625 157.710938 155.769531 C 157.828125 155.539062 158.058594 155.421875 158.34375 155.480469 C 158.574219 155.597656 158.691406 155.828125 158.632812 156.113281 C 157.882812 158.074219 157.25 159.457031 156.847656 160.261719 C 170.214844 159.972656 170.617188 160.492188 170.789062 160.664062 C 170.90625 160.78125 170.964844 160.953125 170.90625 161.070312 C 170.847656 161.300781 170.617188 161.472656 170.386719 161.472656 Z M 169.925781 160.953125 Z M 169.925781 160.953125 Z M 169.925781 160.953125 Z M 169.925781 160.953125 " fill-opacity="1" fill-rule="nonzero"/><path fill="#965123" d="M 146.128906 158.132812 C 146.015625 158.132812 145.84375 158.074219 145.785156 157.957031 C 145.667969 157.84375 145.667969 157.671875 145.667969 157.554688 C 145.726562 157.441406 148.953125 144.652344 147.972656 132.957031 C 147.167969 123.339844 143.652344 118.269531 140.023438 112.855469 C 139.675781 112.394531 139.386719 111.875 139.042969 111.414062 C 138.871094 111.183594 138.925781 110.898438 139.15625 110.722656 C 139.386719 110.550781 139.675781 110.609375 139.847656 110.839844 C 140.195312 111.300781 140.484375 111.816406 140.828125 112.277344 C 144.574219 117.808594 148.089844 122.992188 148.953125 132.84375 C 149.816406 143.210938 147.457031 154.328125 146.765625 157.152344 C 151.257812 156.75 161.226562 155.421875 163.242188 153.351562 C 166.007812 150.527344 168.023438 141.484375 165.488281 124.433594 C 165.257812 122.820312 164.796875 120.976562 164.164062 119.019531 C 164.105469 118.789062 164.222656 118.5 164.453125 118.441406 C 164.683594 118.386719 164.972656 118.5 165.027344 118.730469 C 165.664062 120.746094 166.125 122.589844 166.355469 124.316406 C 169.636719 146.207031 165.257812 152.601562 163.875 154.042969 C 161.109375 156.863281 146.765625 158.074219 146.128906 158.132812 Z M 146.128906 158.132812 " fill-opacity="1" fill-rule="nonzero"/><path fill="#965123" d="M 70.1875 123.511719 C 58.605469 123.511719 52.5 115.21875 50.019531 111.816406 C 46.277344 106.75 56.9375 98.453125 57.398438 98.050781 C 57.511719 97.9375 57.683594 97.9375 57.859375 97.992188 C 58.03125 98.050781 58.144531 98.167969 58.144531 98.28125 C 60.277344 104.558594 63.214844 107.5 67.132812 107.152344 C 73.300781 106.632812 78.945312 100.183594 81.078125 97.761719 C 81.828125 96.957031 82.75 95.632812 83.960938 93.847656 C 84.132812 93.617188 84.421875 93.558594 84.652344 93.730469 C 84.882812 93.902344 84.9375 94.191406 84.765625 94.421875 C 83.554688 96.207031 82.519531 97.589844 81.769531 98.453125 C 79.578125 100.988281 73.761719 107.613281 67.191406 108.1875 C 62.929688 108.535156 59.703125 105.65625 57.453125 99.320312 C 55.378906 101.046875 48.0625 107.554688 50.828125 111.300781 C 53.652344 115.160156 61.140625 125.296875 76.121094 121.898438 C 90.238281 118.671875 99.402344 106.691406 103.664062 99.835938 C 103.78125 99.605469 104.125 99.550781 104.296875 99.664062 C 104.527344 99.78125 104.585938 100.125 104.472656 100.296875 C 100.148438 107.269531 90.757812 119.480469 76.351562 122.761719 C 74.105469 123.339844 72.089844 123.511719 70.1875 123.511719 Z M 70.1875 123.511719 " fill-opacity="1" fill-rule="nonzero"/><path fill="#965123" d="M 103.894531 168.328125 C 117.78125 175.125 124.636719 181.171875 123.023438 184.050781 C 121.410156 186.933594 101.53125 182.207031 77.910156 169.882812 C 54.285156 157.554688 45.125 148.394531 47.199219 147.589844 C 50.367188 146.378906 64.773438 151.792969 78.945312 157.265625 C 93.121094 162.796875 103.894531 168.328125 103.894531 168.328125 Z M 103.894531 168.328125 " fill-opacity="1" fill-rule="nonzero"/></svg>