<svg xmlns="http://www.w3.org/2000/svg" xmlns:xlink="http://www.w3.org/1999/xlink" width="794" zoomAndPan="magnify" viewBox="0 0 595.5 842.249979" height="1123" preserveAspectRatio="xMidYMid meet" version="1.0"><defs><clipPath id="9c0cee9c80"><path d="M 0.015625 629 L 594.984375 629 L 594.984375 841.5 L 0.015625 841.5 Z M 0.015625 629 " clip-rule="nonzero"/></clipPath><clipPath id="e5330a81bf"><path d="M 533 121 L 594.941406 121 L 594.941406 125 L 533 125 Z M 533 121 " clip-rule="nonzero"/></clipPath><clipPath id="90d61ff00a"><path d="M 467 192 L 469 192 L 469 254.023438 L 467 254.023438 Z M 467 192 " clip-rule="nonzero"/></clipPath><clipPath id="149ea17657"><path d="M 340.917969 127 L 403 127 L 403 132 L 340.917969 132 Z M 340.917969 127 " clip-rule="nonzero"/></clipPath></defs><g clip-path="url(#9c0cee9c80)"><path fill="#965123" d="M 592.722656 630.886719 C 591.71875 631.925781 587.902344 635.625 584.238281 639.117188 C 580.574219 642.605469 576.738281 646.261719 575.714844 647.242188 C 574.695312 648.222656 571.753906 650.988281 569.179688 653.390625 C 566.605469 655.789062 564.125 658.109375 563.664062 658.542969 C 563.207031 658.980469 560.070312 661.835938 556.695312 664.886719 C 553.324219 667.941406 550.003906 670.972656 549.316406 671.628906 C 548.632812 672.28125 547.023438 673.726562 545.738281 674.839844 C 542.46875 677.671875 536.355469 683.035156 535.820312 683.542969 C 535.578125 683.773438 534.441406 684.757812 533.300781 685.726562 C 532.164062 686.695312 530.847656 687.816406 530.378906 688.214844 C 529.910156 688.617188 529.019531 689.328125 528.394531 689.800781 C 527.773438 690.273438 526.695312 691.195312 526.007812 691.847656 C 525.316406 692.503906 523.863281 693.746094 522.777344 694.609375 C 521.695312 695.476562 520.71875 696.277344 520.605469 696.398438 C 520.5 696.515625 519.695312 697.136719 518.824219 697.78125 C 517.953125 698.425781 517.058594 699.152344 516.839844 699.398438 C 516.621094 699.640625 515.640625 700.445312 514.660156 701.1875 C 513.679688 701.929688 512.785156 702.640625 512.675781 702.769531 C 512.570312 702.898438 510.515625 704.5 508.117188 706.332031 C 505.71875 708.164062 503.667969 709.769531 503.558594 709.902344 C 503.449219 710.035156 502.289062 710.933594 500.980469 711.898438 C 499.671875 712.863281 498.425781 713.792969 498.207031 713.960938 C 485.695312 723.515625 470.355469 734.144531 459.347656 740.882812 C 456.296875 742.75 452.28125 745.214844 450.429688 746.359375 C 440.691406 752.363281 420.570312 763.0625 409.390625 768.179688 C 404.714844 770.320312 399.179688 772.71875 395.117188 774.363281 C 390.578125 776.203125 390.1875 776.367188 387.597656 777.511719 C 386.160156 778.144531 381.402344 779.855469 370.933594 783.5 C 330.007812 797.742188 290.691406 801.046875 258.9375 792.90625 C 255.988281 792.148438 253.25 791.457031 252.859375 791.367188 C 250.191406 790.769531 234.59375 784.679688 229.1875 782.128906 C 227.332031 781.253906 223.320312 779.382812 220.265625 777.96875 C 217.210938 776.558594 210.699219 773.441406 205.792969 771.039062 C 200.886719 768.640625 195.089844 765.875 192.90625 764.898438 C 190.726562 763.914062 187.871094 762.625 186.566406 762.03125 C 182.042969 759.96875 177.109375 757.863281 176.792969 757.863281 C 176.617188 757.863281 175.535156 757.441406 174.382812 756.925781 C 173.230469 756.410156 171.398438 755.675781 170.308594 755.296875 C 169.21875 754.917969 167.96875 754.457031 167.53125 754.269531 C 157.375 749.921875 129.824219 743.40625 116.386719 742.171875 C 114.640625 742.011719 112.410156 741.804688 111.429688 741.714844 C 106.679688 741.273438 87.527344 741.179688 84.070312 741.582031 C 82 741.820312 77.894531 742.289062 74.953125 742.621094 C 53.230469 745.070312 29.128906 751.992188 3.683594 763.09375 L 0.015625 764.691406 L 0.015625 1013.996094 L 594.75 1013.996094 L 594.75 821.5 C 594.75 715.628906 594.703125 629.003906 594.648438 629.003906 C 594.589844 629.003906 593.722656 629.851562 592.722656 630.886719 " fill-opacity="1" fill-rule="evenodd"/></g><path fill="#ede2d9" d="M 525.234375 125.390625 C 525.234375 95.8125 501.542969 71.769531 472.316406 71.769531 C 443.089844 71.769531 419.402344 95.753906 419.402344 125.390625 C 419.402344 146.132812 431.011719 164.105469 447.980469 173.003906 C 447.511719 169.527344 447.097656 166.636719 447.097656 166.636719 C 447.097656 166.636719 446.921875 166.578125 446.332031 166.109375 C 445.742188 165.636719 445.332031 164.929688 445.332031 164.929688 C 445.332031 164.929688 445.800781 163.101562 446.039062 162.277344 C 446.273438 161.511719 446.804688 161.101562 446.804688 161.101562 C 446.804688 161.101562 446.921875 160.453125 446.863281 160.097656 C 446.804688 159.746094 446.863281 159.332031 448.394531 158.566406 C 449.925781 157.800781 452.8125 157.269531 457.46875 157.152344 C 462.125 157.035156 467.191406 158.390625 467.605469 159.097656 C 468.015625 159.804688 468.074219 161.039062 468.074219 161.039062 L 468.902344 162.21875 C 468.902344 162.21875 469.609375 164.457031 469.429688 164.929688 C 469.253906 165.402344 467.78125 166.519531 467.78125 166.519531 C 467.78125 166.519531 467.664062 167.285156 467.488281 168.523438 C 463.066406 169.113281 456.820312 169.46875 456.351562 170.410156 C 455.878906 171.292969 456.585938 172.414062 458.824219 172.472656 C 459.828125 172.472656 460.710938 172.472656 461.476562 172.414062 C 459.886719 172.53125 458.175781 172.707031 457.882812 172.824219 C 457.292969 173.0625 455.171875 173.179688 455.289062 174.359375 C 455.464844 176.242188 461.0625 175.652344 461.0625 175.652344 C 461.0625 175.652344 457.824219 176.007812 456.820312 176.242188 C 456.585938 176.300781 455.289062 176.773438 455.820312 177.835938 C 456.351562 178.894531 458.234375 178.953125 458.472656 178.953125 C 458.707031 178.953125 456.820312 179.128906 456.820312 180.367188 C 456.820312 181.546875 458.707031 181.664062 461.476562 181.371094 C 464.480469 181.015625 465.835938 181.132812 472.023438 180.015625 C 475.914062 179.308594 477.917969 178.835938 478.917969 178.601562 C 505.082031 175.242188 525.234375 152.671875 525.234375 125.390625 Z M 525.234375 125.390625 " fill-opacity="1" fill-rule="nonzero"/><path fill="#965123" d="M 440.085938 128.515625 C 436.550781 128.515625 432.25 128.398438 431.953125 128.398438 C 431.601562 128.398438 431.308594 128.101562 431.308594 127.691406 C 431.308594 127.277344 431.601562 127.042969 432.015625 127.042969 C 432.132812 127.042969 442.207031 127.277344 444.152344 127.042969 C 444.503906 126.984375 444.859375 127.277344 444.917969 127.628906 C 444.976562 127.984375 444.683594 128.335938 444.328125 128.398438 C 443.5625 128.515625 441.914062 128.515625 440.085938 128.515625 Z M 440.085938 128.515625 " fill-opacity="1" fill-rule="nonzero"/><path fill="#965123" d="M 466.71875 128.515625 C 466.367188 128.515625 466.070312 128.21875 466.070312 127.867188 C 466.070312 127.511719 466.367188 127.21875 466.71875 127.21875 C 466.898438 127.21875 468.195312 127.21875 469.902344 127.21875 C 473.261719 127.160156 478.269531 127.160156 479.625 127.160156 C 479.976562 127.160156 480.273438 127.453125 480.273438 127.808594 C 480.273438 128.160156 479.976562 128.457031 479.625 128.457031 C 478.269531 128.457031 473.261719 128.515625 469.902344 128.515625 C 468.195312 128.515625 466.898438 128.515625 466.71875 128.515625 Z M 466.71875 128.515625 " fill-opacity="1" fill-rule="nonzero"/><path fill="#965123" d="M 457.234375 146.839844 C 457.234375 146.839844 457.175781 146.839844 457.234375 146.839844 L 452.226562 146.605469 C 452.046875 146.605469 451.8125 146.488281 451.695312 146.308594 C 451.578125 146.132812 451.519531 145.957031 451.578125 145.71875 C 452.695312 141.949219 454.523438 135.761719 454.640625 135.171875 C 454.699219 134.820312 454.933594 134.582031 455.289062 134.582031 C 455.640625 134.582031 455.9375 134.878906 455.9375 135.230469 C 455.9375 135.351562 455.9375 135.644531 453.050781 145.25 L 457.175781 145.425781 C 457.527344 145.425781 457.824219 145.78125 457.824219 146.132812 C 457.882812 146.605469 457.585938 146.839844 457.234375 146.839844 Z M 457.234375 146.839844 " fill-opacity="1" fill-rule="nonzero"/><path fill="#965123" d="M 455.761719 155.679688 C 451.457031 155.679688 449.574219 152.261719 449.457031 152.144531 C 449.277344 151.847656 449.398438 151.4375 449.691406 151.257812 C 449.984375 151.082031 450.398438 151.199219 450.574219 151.496094 C 450.632812 151.613281 452.226562 154.382812 455.703125 154.382812 C 459.117188 154.382812 460.296875 151.789062 460.355469 151.671875 C 460.535156 151.316406 460.886719 151.199219 461.242188 151.316406 C 461.59375 151.496094 461.710938 151.847656 461.59375 152.203125 C 461.59375 152.320312 460.121094 155.679688 455.761719 155.679688 Z M 455.761719 155.679688 " fill-opacity="1" fill-rule="nonzero"/><path fill="#965123" d="M 456.527344 173.769531 C 456.527344 173.769531 456.46875 173.769531 456.527344 173.769531 C 455.230469 173.710938 454.582031 173.238281 454.226562 172.882812 C 453.875 172.53125 453.757812 172.058594 453.757812 171.53125 C 453.875 169.996094 455.289062 169.347656 459.355469 168.996094 C 463.007812 168.640625 466.308594 168.054688 469.785156 167.40625 C 470.902344 167.226562 472.023438 166.992188 473.203125 166.816406 C 473.554688 166.757812 473.910156 166.992188 473.96875 167.347656 C 474.027344 167.699219 473.792969 168.054688 473.4375 168.113281 C 472.257812 168.289062 471.140625 168.523438 470.019531 168.699219 C 466.484375 169.347656 463.183594 169.9375 459.472656 170.292969 C 455.171875 170.703125 455.113281 171.351562 455.054688 171.589844 C 455.054688 171.707031 455.113281 171.824219 455.171875 171.941406 C 455.289062 172.058594 455.640625 172.355469 456.46875 172.355469 C 456.820312 172.355469 457.117188 172.707031 457.117188 173.0625 C 457.175781 173.472656 456.878906 173.769531 456.527344 173.769531 Z M 456.527344 173.769531 " fill-opacity="1" fill-rule="nonzero"/><path fill="#965123" d="M 456.171875 176.773438 C 454.40625 176.773438 453.167969 176.421875 452.8125 175.066406 C 452.695312 174.59375 452.753906 174.121094 453.050781 173.710938 C 453.582031 173.003906 454.640625 172.53125 456.230469 172.414062 C 456.410156 172.414062 456.644531 172.414062 456.9375 172.355469 C 458.292969 172.296875 461.0625 172.117188 464.894531 171.351562 C 465.246094 171.292969 465.601562 171.53125 465.660156 171.882812 C 465.71875 172.238281 465.484375 172.589844 465.128906 172.648438 C 461.179688 173.414062 458.351562 173.589844 456.996094 173.652344 C 456.703125 173.652344 456.527344 173.652344 456.351562 173.710938 C 454.699219 173.828125 454.289062 174.300781 454.167969 174.417969 C 454.109375 174.476562 454.109375 174.59375 454.109375 174.652344 C 454.40625 175.59375 456.230469 175.476562 459.238281 175.183594 L 459.414062 175.183594 C 463.363281 174.828125 465.246094 174.300781 465.304688 174.238281 C 465.660156 174.121094 466.011719 174.359375 466.132812 174.710938 C 466.25 175.066406 466.011719 175.417969 465.660156 175.535156 C 465.601562 175.535156 463.597656 176.125 459.53125 176.480469 L 459.355469 176.480469 C 458.175781 176.714844 457.058594 176.773438 456.171875 176.773438 Z M 456.171875 176.773438 " fill-opacity="1" fill-rule="nonzero"/><path fill="#965123" d="M 457.644531 179.898438 C 456.527344 179.898438 455.523438 179.777344 454.757812 179.367188 C 453.875 178.894531 453.34375 178.128906 453.519531 177.304688 C 453.699219 176.359375 454.582031 175.652344 455.820312 175.476562 C 456.171875 175.417969 456.527344 175.714844 456.585938 176.066406 C 456.644531 176.421875 456.351562 176.773438 455.996094 176.832031 C 455.289062 176.949219 454.933594 177.246094 454.875 177.539062 C 454.816406 177.773438 455.054688 178.011719 455.40625 178.1875 C 456.644531 178.777344 459.179688 178.542969 461.242188 178.304688 C 461.59375 178.246094 461.886719 178.246094 462.242188 178.1875 C 463.773438 178.011719 465.542969 177.597656 465.601562 177.597656 C 465.953125 177.480469 466.308594 177.714844 466.425781 178.070312 C 466.542969 178.421875 466.308594 178.777344 465.953125 178.894531 C 465.894531 178.894531 464.011719 179.367188 462.417969 179.542969 C 462.125 179.601562 461.769531 179.601562 461.417969 179.660156 C 460.121094 179.71875 458.824219 179.898438 457.644531 179.898438 Z M 457.644531 179.898438 " fill-opacity="1" fill-rule="nonzero"/><path fill="#965123" d="M 458.410156 183.136719 C 456.054688 183.136719 454.757812 182.605469 454.464844 181.488281 C 454.289062 180.957031 454.40625 180.425781 454.699219 180.015625 C 455.230469 179.25 456.46875 178.71875 458.058594 178.601562 C 458.410156 178.601562 458.765625 178.835938 458.765625 179.191406 C 458.765625 179.542969 458.53125 179.898438 458.175781 179.898438 C 456.820312 180.015625 456.054688 180.425781 455.820312 180.78125 C 455.761719 180.898438 455.703125 181.015625 455.761719 181.132812 C 455.820312 181.253906 456.289062 182.371094 461.949219 181.546875 C 463.714844 181.253906 465.542969 180.898438 467.25 180.605469 C 468.371094 180.367188 469.429688 180.191406 470.550781 179.957031 C 470.964844 179.898438 471.433594 179.777344 471.90625 179.71875 C 476.148438 179.011719 483.277344 177.777344 489.761719 174.769531 C 497.832031 171.058594 504.492188 165.871094 509.5 159.390625 C 514.804688 152.554688 518.339844 144.542969 519.8125 136.058594 C 520.339844 133.109375 520.578125 130.105469 520.578125 127.101562 C 520.578125 98.050781 496.949219 74.421875 467.898438 74.421875 C 438.847656 74.421875 415.277344 97.933594 415.277344 126.984375 C 415.277344 147.015625 426.414062 165.046875 444.269531 174.0625 C 444.328125 174.0625 446.804688 175.359375 448.101562 175.652344 C 448.453125 175.714844 448.691406 176.066406 448.628906 176.480469 C 448.570312 176.890625 448.21875 177.066406 447.804688 177.007812 C 446.332031 176.65625 443.796875 175.359375 443.679688 175.300781 C 425.355469 166.050781 413.925781 147.605469 413.925781 127.042969 C 413.925781 97.285156 438.140625 73.066406 467.898438 73.066406 C 497.65625 73.066406 521.875 97.285156 521.875 127.042969 C 521.875 130.105469 521.636719 133.226562 521.109375 136.234375 C 519.632812 144.894531 515.980469 153.203125 510.5 160.15625 C 505.316406 166.816406 498.480469 172.117188 490.230469 175.949219 C 483.632812 179.011719 476.382812 180.25 472.082031 181.015625 C 471.550781 181.074219 471.140625 181.191406 470.726562 181.253906 C 469.609375 181.429688 468.546875 181.664062 467.425781 181.898438 C 465.660156 182.253906 463.890625 182.605469 462.066406 182.902344 C 460.710938 183.019531 459.472656 183.136719 458.410156 183.136719 Z M 458.410156 183.136719 " fill-opacity="1" fill-rule="nonzero"/><path fill="#965123" d="M 472.4375 168.171875 C 470.253906 168.171875 468.664062 167.640625 467.664062 167.285156 L 467.367188 167.167969 C 467.015625 167.050781 466.839844 166.699219 466.957031 166.34375 C 467.074219 165.992188 467.425781 165.8125 467.78125 165.929688 L 468.074219 166.050781 C 469.195312 166.402344 470.84375 166.992188 473.203125 166.816406 C 475.558594 166.636719 483.984375 165.636719 492.765625 159.566406 C 496.417969 157.035156 508.320312 147.253906 508.96875 127.160156 C 508.96875 126.804688 509.265625 126.511719 509.675781 126.511719 C 510.03125 126.511719 510.324219 126.804688 510.324219 127.21875 C 509.675781 147.902344 497.359375 158.09375 493.589844 160.6875 C 484.574219 166.933594 475.855469 167.992188 473.378906 168.171875 C 473.023438 168.171875 472.730469 168.171875 472.4375 168.171875 Z M 472.4375 168.171875 " fill-opacity="1" fill-rule="nonzero"/><path fill="#965123" d="M 457.058594 188.734375 C 456.820312 188.734375 456.644531 188.734375 456.410156 188.734375 C 450.632812 188.558594 449.160156 186.851562 449.042969 186.671875 C 448.984375 186.554688 448.925781 186.496094 448.925781 186.378906 L 446.15625 167.347656 C 446.097656 166.992188 446.332031 166.636719 446.746094 166.578125 C 447.097656 166.519531 447.453125 166.757812 447.511719 167.167969 L 450.28125 185.964844 C 450.632812 186.261719 452.226562 187.261719 456.527344 187.4375 C 460.886719 187.558594 462.832031 186.378906 463.304688 185.964844 L 463.890625 181.839844 C 463.949219 181.488281 464.304688 181.191406 464.65625 181.253906 C 465.011719 181.3125 465.246094 181.664062 465.246094 182.019531 L 464.597656 186.378906 C 464.597656 186.496094 464.539062 186.613281 464.421875 186.730469 C 464.246094 186.789062 462.359375 188.734375 457.058594 188.734375 Z M 457.058594 188.734375 " fill-opacity="1" fill-rule="nonzero"/><path fill="#965123" d="M 466.367188 169.289062 C 466.308594 169.289062 466.308594 169.289062 466.25 169.289062 C 465.894531 169.230469 465.660156 168.878906 465.660156 168.523438 L 465.894531 167.050781 C 465.953125 166.699219 466.308594 166.402344 466.660156 166.460938 C 467.015625 166.519531 467.25 166.875 467.25 167.226562 L 467.015625 168.699219 C 467.015625 169.054688 466.71875 169.289062 466.367188 169.289062 Z M 466.367188 169.289062 " fill-opacity="1" fill-rule="nonzero"/><path fill="#965123" d="M 456.644531 169.585938 C 450.632812 169.585938 444.503906 168.171875 444.503906 165.460938 C 444.503906 165.402344 444.503906 165.34375 444.503906 165.285156 L 444.976562 163.101562 C 445.035156 162.75 445.390625 162.515625 445.800781 162.574219 C 446.15625 162.632812 446.390625 162.984375 446.332031 163.398438 L 445.859375 165.460938 C 445.980469 166.578125 450.164062 168.171875 456.644531 168.171875 C 463.125 168.171875 467.308594 166.578125 467.425781 165.460938 L 466.957031 163.222656 C 466.898438 162.867188 467.132812 162.515625 467.488281 162.453125 C 467.839844 162.394531 468.195312 162.632812 468.253906 162.984375 L 468.78125 165.34375 C 468.78125 165.402344 468.78125 165.460938 468.78125 165.460938 C 468.78125 168.171875 462.714844 169.585938 456.644531 169.585938 Z M 456.644531 169.585938 " fill-opacity="1" fill-rule="nonzero"/><path fill="#965123" d="M 456.644531 167.285156 C 450.871094 167.285156 445.035156 165.929688 445.035156 163.339844 C 445.035156 162.632812 445.449219 161.984375 446.273438 161.453125 C 446.566406 161.277344 446.980469 161.335938 447.214844 161.628906 C 447.394531 161.925781 447.335938 162.335938 447.039062 162.574219 C 446.628906 162.867188 446.390625 163.160156 446.390625 163.398438 C 446.390625 164.457031 450.398438 166.050781 456.703125 166.050781 C 463.007812 166.050781 467.015625 164.515625 467.015625 163.398438 C 467.015625 163.160156 466.78125 162.867188 466.367188 162.632812 C 466.070312 162.394531 466.011719 161.984375 466.191406 161.6875 C 466.425781 161.394531 466.839844 161.335938 467.132812 161.511719 C 467.957031 162.042969 468.371094 162.691406 468.371094 163.398438 C 468.3125 165.929688 462.476562 167.285156 456.644531 167.285156 Z M 456.644531 167.285156 " fill-opacity="1" fill-rule="nonzero"/><path fill="#965123" d="M 456.644531 163.929688 C 452.695312 163.929688 446.039062 163.28125 446.039062 160.804688 C 446.039062 158.332031 452.695312 157.683594 456.644531 157.683594 C 460.59375 157.683594 467.25 158.332031 467.25 160.804688 C 467.25 163.28125 460.652344 163.929688 456.644531 163.929688 Z M 456.644531 158.976562 C 450.929688 158.976562 447.511719 160.15625 447.335938 160.804688 C 447.453125 161.394531 450.871094 162.574219 456.644531 162.574219 C 462.359375 162.574219 465.777344 161.394531 465.953125 160.746094 C 465.777344 160.15625 462.359375 158.976562 456.644531 158.976562 Z M 465.953125 160.804688 Z M 465.953125 160.804688 " fill-opacity="1" fill-rule="nonzero"/><path fill="#965123" d="M 456.703125 163.871094 C 454.875 163.871094 448.808594 163.691406 448.808594 161.746094 C 448.808594 159.804688 454.816406 159.625 456.703125 159.625 C 458.53125 159.625 464.597656 159.804688 464.597656 161.746094 C 464.539062 163.75 458.53125 163.871094 456.703125 163.871094 Z M 450.398438 161.746094 C 451.222656 162.101562 453.34375 162.515625 456.644531 162.515625 C 459.945312 162.515625 462.125 162.101562 462.890625 161.746094 C 462.066406 161.394531 459.945312 160.980469 456.644531 160.980469 C 453.34375 160.980469 451.222656 161.453125 450.398438 161.746094 Z M 463.242188 161.984375 Z M 463.242188 161.984375 " fill-opacity="1" fill-rule="nonzero"/><path fill="#965123" d="M 446.6875 163.988281 C 446.332031 163.988281 446.039062 163.691406 446.039062 163.339844 L 446.039062 160.804688 C 446.039062 160.453125 446.332031 160.15625 446.6875 160.15625 C 447.039062 160.15625 447.335938 160.453125 447.335938 160.804688 L 447.335938 163.339844 C 447.394531 163.691406 447.097656 163.988281 446.6875 163.988281 Z M 446.6875 163.988281 " fill-opacity="1" fill-rule="nonzero"/><path fill="#965123" d="M 466.660156 164.164062 C 466.308594 164.164062 466.011719 163.871094 466.011719 163.515625 L 466.011719 160.804688 C 466.011719 160.453125 466.308594 160.15625 466.660156 160.15625 C 467.015625 160.15625 467.308594 160.453125 467.308594 160.804688 L 467.308594 163.515625 C 467.308594 163.871094 467.015625 164.164062 466.660156 164.164062 Z M 466.660156 164.164062 " fill-opacity="1" fill-rule="nonzero"/><path fill="#965123" d="M 455.40625 160.039062 C 455.054688 160.039062 454.757812 159.804688 454.757812 159.449219 C 454.699219 159.097656 454.996094 158.742188 455.347656 158.683594 C 456.289062 158.566406 457.410156 158.566406 458.117188 158.625 C 458.472656 158.625 458.765625 158.976562 458.707031 159.332031 C 458.707031 159.6875 458.351562 159.980469 458 159.921875 C 457.292969 159.863281 456.289062 159.863281 455.464844 159.980469 C 455.464844 160.039062 455.464844 160.039062 455.40625 160.039062 Z M 455.40625 160.039062 " fill-opacity="1" fill-rule="nonzero"/><path fill="#965123" d="M 438.496094 139.945312 C 435.3125 139.945312 432.601562 137.941406 432.25 135.351562 C 432.191406 134.996094 432.484375 134.644531 432.839844 134.582031 C 433.191406 134.523438 433.546875 134.820312 433.605469 135.171875 C 433.839844 137.117188 435.960938 138.648438 438.496094 138.648438 C 440.792969 138.648438 442.796875 137.410156 443.269531 135.644531 C 443.386719 135.289062 443.738281 135.113281 444.09375 135.171875 C 444.445312 135.289062 444.625 135.644531 444.566406 135.996094 C 443.859375 138.296875 441.382812 139.945312 438.496094 139.945312 Z M 438.496094 139.945312 " fill-opacity="1" fill-rule="nonzero"/><path fill="#965123" d="M 472.90625 139.945312 C 469.726562 139.945312 467.074219 138 466.71875 135.410156 C 466.660156 135.054688 466.898438 134.703125 467.308594 134.644531 C 467.664062 134.582031 468.015625 134.820312 468.074219 135.230469 C 468.371094 137.175781 470.433594 138.648438 473.023438 138.589844 C 475.324219 138.589844 477.328125 137.292969 477.796875 135.585938 C 477.917969 135.230469 478.269531 134.996094 478.625 135.113281 C 478.976562 135.230469 479.210938 135.585938 479.09375 135.9375 C 478.386719 138.238281 475.855469 139.886719 472.90625 139.945312 C 472.964844 139.945312 472.964844 139.945312 472.90625 139.945312 Z M 472.90625 139.945312 " fill-opacity="1" fill-rule="nonzero"/><g clip-path="url(#e5330a81bf)"><path fill="#965123" d="M 534.011719 124.683594 C 533.660156 124.683594 533.363281 124.390625 533.363281 124.035156 C 533.363281 123.683594 533.660156 123.386719 534.011719 123.386719 L 594.175781 121.382812 C 594.527344 121.382812 594.824219 121.679688 594.882812 122.03125 C 594.882812 122.386719 594.585938 122.679688 594.234375 122.679688 L 534.011719 124.683594 C 534.070312 124.683594 534.070312 124.683594 534.011719 124.683594 Z M 534.011719 124.683594 " fill-opacity="1" fill-rule="nonzero"/></g><path fill="#965123" d="M 561.882812 212.070312 C 561.707031 212.070312 561.589844 212.011719 561.414062 211.894531 L 516.804688 171.53125 C 516.6875 171.410156 516.570312 171.234375 516.570312 171.058594 C 516.570312 170.882812 516.628906 170.761719 516.746094 170.585938 C 516.984375 170.292969 517.394531 170.292969 517.691406 170.527344 L 562.296875 210.890625 C 562.414062 211.007812 562.53125 211.1875 562.53125 211.363281 C 562.53125 211.539062 562.472656 211.65625 562.355469 211.832031 C 562.238281 212.011719 562.058594 212.070312 561.882812 212.070312 Z M 561.882812 212.070312 " fill-opacity="1" fill-rule="nonzero"/><g clip-path="url(#90d61ff00a)"><path fill="#965123" d="M 467.664062 254.023438 C 467.308594 254.023438 467.015625 253.730469 467.015625 253.375 L 467.015625 193.15625 C 467.015625 192.800781 467.308594 192.507812 467.664062 192.507812 C 468.015625 192.507812 468.3125 192.800781 468.3125 193.15625 L 468.3125 253.375 C 468.371094 253.730469 468.074219 254.023438 467.664062 254.023438 Z M 467.664062 254.023438 " fill-opacity="1" fill-rule="nonzero"/></g><path fill="#965123" d="M 379.628906 217.902344 C 379.453125 217.902344 379.277344 217.84375 379.160156 217.726562 C 379.039062 217.609375 378.980469 217.429688 378.980469 217.253906 C 378.980469 217.078125 379.039062 216.902344 379.160156 216.785156 L 420.996094 173.53125 C 421.230469 173.238281 421.703125 173.238281 421.9375 173.53125 C 422.054688 173.652344 422.113281 173.828125 422.113281 174.003906 C 422.113281 174.179688 422.054688 174.359375 421.9375 174.476562 L 380.101562 217.726562 C 379.984375 217.84375 379.808594 217.902344 379.628906 217.902344 Z M 379.628906 217.902344 " fill-opacity="1" fill-rule="nonzero"/><g clip-path="url(#149ea17657)"><path fill="#965123" d="M 341.625 131.046875 C 341.269531 131.046875 340.976562 130.753906 340.976562 130.398438 C 340.976562 130.046875 341.269531 129.75 341.625 129.75 L 401.785156 127.75 C 402.140625 127.75 402.433594 128.042969 402.492188 128.398438 C 402.492188 128.75 402.199219 129.042969 401.84375 129.042969 L 341.625 131.046875 C 341.683594 131.046875 341.625 131.046875 341.625 131.046875 Z M 341.625 131.046875 " fill-opacity="1" fill-rule="nonzero"/></g><path fill="#965123" d="M 419.167969 82.964844 C 418.992188 82.964844 418.875 82.90625 418.695312 82.789062 L 374.089844 42.425781 C 373.972656 42.308594 373.855469 42.132812 373.855469 41.953125 C 373.855469 41.777344 373.914062 41.660156 374.03125 41.484375 C 374.269531 41.1875 374.679688 41.1875 374.976562 41.425781 L 419.582031 81.789062 C 419.699219 81.90625 419.816406 82.082031 419.816406 82.257812 C 419.816406 82.433594 419.757812 82.554688 419.640625 82.730469 C 419.523438 82.90625 419.34375 82.964844 419.167969 82.964844 Z M 419.167969 82.964844 " fill-opacity="1" fill-rule="nonzero"/><path fill="#965123" d="M 467.664062 61.515625 C 467.308594 61.515625 467.015625 61.222656 467.015625 60.867188 L 467.015625 0.648438 C 467.015625 0.292969 467.308594 0 467.664062 0 C 468.015625 0 468.3125 0.292969 468.3125 0.648438 L 468.3125 60.867188 C 468.371094 61.164062 468.074219 61.515625 467.664062 61.515625 Z M 467.664062 61.515625 " fill-opacity="1" fill-rule="nonzero"/><path fill="#965123" d="M 513.386719 79.605469 C 513.210938 79.605469 513.035156 79.546875 512.917969 79.429688 C 512.800781 79.3125 512.742188 79.136719 512.742188 78.957031 C 512.742188 78.78125 512.800781 78.605469 512.917969 78.488281 L 554.753906 35.238281 C 554.988281 34.941406 555.460938 34.941406 555.695312 35.238281 C 555.8125 35.355469 555.875 35.53125 555.875 35.707031 C 555.875 35.886719 555.8125 36.0625 555.695312 36.179688 L 513.859375 79.429688 C 513.742188 79.546875 513.566406 79.605469 513.386719 79.605469 Z M 513.386719 79.605469 " fill-opacity="1" fill-rule="nonzero"/><path fill="#965123" d="M 564.179688 162.21875 C 564.121094 162.21875 564.003906 162.21875 563.945312 162.160156 L 530.003906 149.726562 C 529.710938 149.609375 529.59375 149.375 529.59375 149.078125 C 529.59375 149.019531 529.59375 148.902344 529.652344 148.84375 C 529.769531 148.488281 530.183594 148.3125 530.535156 148.429688 L 564.476562 160.863281 C 564.769531 160.980469 564.890625 161.21875 564.890625 161.511719 C 564.890625 161.570312 564.890625 161.6875 564.828125 161.746094 C 564.710938 162.042969 564.476562 162.21875 564.179688 162.21875 Z M 564.179688 162.21875 " fill-opacity="1" fill-rule="nonzero"/><path fill="#965123" d="M 512.621094 219.671875 C 512.386719 219.671875 512.152344 219.554688 512.035156 219.316406 L 496.300781 186.789062 C 496.242188 186.671875 496.242188 186.613281 496.242188 186.496094 C 496.242188 186.261719 496.359375 186.023438 496.59375 185.90625 C 496.949219 185.730469 497.300781 185.90625 497.480469 186.203125 L 513.210938 218.726562 C 513.269531 218.847656 513.269531 218.90625 513.269531 219.023438 C 513.269531 219.257812 513.152344 219.492188 512.917969 219.613281 C 512.800781 219.613281 512.679688 219.671875 512.621094 219.671875 Z M 512.621094 219.671875 " fill-opacity="1" fill-rule="nonzero"/><path fill="#965123" d="M 429.066406 222.261719 C 429.007812 222.261719 428.890625 222.261719 428.832031 222.203125 C 428.597656 222.085938 428.417969 221.851562 428.417969 221.554688 C 428.417969 221.496094 428.417969 221.378906 428.476562 221.320312 L 442.03125 187.851562 C 442.148438 187.496094 442.5625 187.320312 442.914062 187.496094 C 443.152344 187.617188 443.328125 187.851562 443.328125 188.144531 C 443.328125 188.203125 443.328125 188.324219 443.269531 188.382812 L 429.714844 221.851562 C 429.597656 222.085938 429.363281 222.261719 429.066406 222.261719 Z M 429.066406 222.261719 " fill-opacity="1" fill-rule="nonzero"/><path fill="#965123" d="M 374.148438 168.40625 C 373.914062 168.40625 373.679688 168.230469 373.5625 167.992188 C 373.5 167.933594 373.5 167.816406 373.5 167.699219 C 373.5 167.464844 373.679688 167.167969 373.914062 167.109375 L 406.910156 152.4375 C 407.265625 152.261719 407.617188 152.4375 407.796875 152.792969 C 407.855469 152.851562 407.855469 152.96875 407.855469 153.085938 C 407.855469 153.320312 407.679688 153.617188 407.441406 153.675781 L 374.445312 168.347656 C 374.328125 168.347656 374.207031 168.40625 374.148438 168.40625 Z M 374.148438 168.40625 " fill-opacity="1" fill-rule="nonzero"/><path fill="#965123" d="M 406.027344 104.296875 C 405.96875 104.296875 405.851562 104.296875 405.792969 104.238281 L 371.851562 91.804688 C 371.558594 91.6875 371.4375 91.449219 371.4375 91.15625 C 371.4375 91.097656 371.4375 90.980469 371.5 90.921875 C 371.617188 90.566406 372.027344 90.390625 372.382812 90.507812 L 406.324219 102.941406 C 406.617188 103.058594 406.734375 103.292969 406.734375 103.589844 C 406.734375 103.648438 406.734375 103.765625 406.675781 103.824219 C 406.558594 104.121094 406.324219 104.296875 406.027344 104.296875 Z M 406.027344 104.296875 " fill-opacity="1" fill-rule="nonzero"/><path fill="#965123" d="M 439.203125 68.058594 C 438.96875 68.058594 438.730469 67.941406 438.613281 67.703125 L 422.878906 35.179688 C 422.820312 35.058594 422.820312 35 422.820312 34.882812 C 422.820312 34.648438 422.9375 34.410156 423.175781 34.292969 C 423.527344 34.117188 423.882812 34.292969 424.058594 34.589844 L 439.792969 67.113281 C 439.851562 67.234375 439.851562 67.292969 439.851562 67.410156 C 439.851562 67.644531 439.734375 67.882812 439.496094 68 C 439.378906 68.058594 439.320312 68.058594 439.203125 68.058594 Z M 439.203125 68.058594 " fill-opacity="1" fill-rule="nonzero"/><path fill="#965123" d="M 492.234375 66.113281 C 492.175781 66.113281 492.058594 66.113281 492 66.054688 C 491.761719 65.9375 491.585938 65.699219 491.585938 65.40625 C 491.585938 65.347656 491.585938 65.230469 491.644531 65.171875 L 505.199219 31.703125 C 505.316406 31.347656 505.726562 31.171875 506.082031 31.347656 C 506.316406 31.464844 506.496094 31.703125 506.496094 31.996094 C 506.496094 32.054688 506.496094 32.171875 506.433594 32.230469 L 492.882812 65.699219 C 492.765625 65.9375 492.53125 66.113281 492.234375 66.113281 Z M 492.234375 66.113281 " fill-opacity="1" fill-rule="nonzero"/><path fill="#965123" d="M 528.0625 100.054688 C 527.824219 100.054688 527.589844 99.878906 527.472656 99.640625 C 527.414062 99.582031 527.414062 99.464844 527.414062 99.347656 C 527.414062 99.109375 527.589844 98.816406 527.824219 98.757812 L 560.824219 84.085938 C 561.175781 83.910156 561.53125 84.085938 561.707031 84.4375 C 561.765625 84.496094 561.765625 84.617188 561.765625 84.734375 C 561.765625 84.96875 561.589844 85.265625 561.351562 85.324219 L 528.355469 99.996094 C 528.238281 100.054688 528.179688 100.054688 528.0625 100.054688 Z M 528.0625 100.054688 " fill-opacity="1" fill-rule="nonzero"/></svg>