<svg xmlns="http://www.w3.org/2000/svg" xmlns:xlink="http://www.w3.org/1999/xlink" width="400" zoomAndPan="magnify" viewBox="0 0 300 225" height="300" preserveAspectRatio="xMidYMid meet" version="1.0"><defs><clipPath id="67b4f69b51"><path d="M 52.730469 118.042969 L 81.476562 118.042969 L 81.476562 147.863281 L 52.730469 147.863281 Z M 52.730469 118.042969 " clip-rule="nonzero"/></clipPath></defs><path className="cupFill" fill="#ede2d9" d="M 84.898438 77.570312 C 120.953125 71.21875 144.675781 55.527344 145.984375 54.6875 L 151.496094 167.324219 C 147.757812 164.710938 138.136719 156.398438 132.160156 150.886719 C 126.183594 145.375 119.269531 140.238281 114.414062 138.652344 C 109.652344 137.0625 108.625 138.933594 108.8125 140.519531 C 108.996094 142.109375 109.839844 146.3125 116.003906 152.847656 C 122.167969 159.386719 131.601562 171.902344 140.101562 179.1875 C 146.171875 184.417969 150.558594 187.78125 152.523438 189.273438 L 152.707031 192.355469 C 152.707031 192.355469 144.769531 206.742188 108.625 214.867188 C 70.703125 223.367188 53.890625 210.851562 53.890625 210.851562 L 8.5 76.820312 C 8.59375 76.726562 32.597656 86.816406 84.898438 77.570312 Z M 84.898438 77.570312 " fill-opacity="1" fill-rule="nonzero"/><path fill="#965123" d="M 154.015625 166.953125 C 154.578125 166.953125 155.042969 166.484375 155.042969 165.925781 L 150.375 55.246094 C 150.375 54.683594 149.90625 54.21875 149.347656 54.3125 C 148.785156 54.3125 148.414062 54.777344 148.414062 55.339844 L 153.082031 166.019531 C 152.988281 166.578125 153.457031 166.953125 154.015625 166.953125 Z M 154.015625 166.953125 " fill-opacity="1" fill-rule="nonzero"/><path fill="#965123" d="M 83.871094 214.304688 C 91.15625 214.304688 99.9375 213.464844 110.585938 211.128906 C 148.691406 202.816406 155.605469 190.023438 155.882812 189.460938 C 155.976562 189.273438 155.976562 189.179688 155.976562 188.996094 L 155.976562 187.96875 C 155.976562 187.40625 155.511719 186.941406 154.949219 187.03125 C 154.390625 187.03125 154.015625 187.5 154.015625 188.058594 L 154.015625 188.808594 C 152.988281 190.394531 144.582031 201.695312 110.210938 209.261719 C 75.746094 216.828125 60.148438 208.234375 58 206.925781 L 14.757812 80.652344 C 14.570312 80.089844 14.011719 79.808594 13.449219 79.996094 C 12.890625 80.183594 12.609375 80.742188 12.796875 81.304688 L 56.132812 207.859375 C 56.226562 208.046875 56.320312 208.234375 56.507812 208.328125 C 56.972656 208.609375 65.101562 214.304688 83.871094 214.304688 Z M 83.871094 214.304688 " fill-opacity="1" fill-rule="nonzero"/><path className="cupLid" fill="#965123" d="M 41.65625 85.132812 C 54.453125 85.132812 69.023438 83.640625 84.058594 80.835938 C 105.074219 76.820312 124.316406 70.65625 138.417969 63.371094 C 152.800781 55.898438 159.992188 48.054688 158.6875 41.328125 C 158.6875 41.234375 158.6875 41.144531 158.59375 41.144531 L 152.429688 26.945312 C 152.242188 26.480469 151.585938 26.199219 151.121094 26.386719 C 150.652344 26.570312 150.375 27.226562 150.558594 27.691406 L 156.726562 41.796875 C 157.660156 47.492188 150.652344 54.777344 137.484375 61.597656 C 123.660156 68.789062 104.515625 74.953125 83.6875 78.875 C 62.859375 82.800781 42.871094 84.105469 27.367188 82.425781 C 12.515625 80.835938 3.363281 76.726562 2.148438 71.03125 L 2.523438 54.40625 C 2.523438 53.84375 2.054688 53.378906 1.585938 53.378906 C 1.027344 53.378906 0.558594 53.84375 0.558594 54.3125 L 0.1875 71.03125 C 0.1875 71.125 0.1875 71.21875 0.1875 71.21875 C 1.496094 77.941406 11.019531 82.613281 27.179688 84.386719 C 31.570312 84.945312 36.425781 85.132812 41.65625 85.132812 Z M 41.65625 85.132812 " fill-opacity="1" fill-rule="nonzero"/><path className="cupLid" fill="#965123" d="M 40.441406 69.164062 C 52.675781 69.164062 66.6875 67.761719 80.976562 65.054688 C 101.058594 61.222656 119.550781 55.339844 133 48.335938 C 146.730469 41.144531 153.644531 33.671875 152.429688 27.132812 C 151.773438 23.582031 148.785156 20.59375 143.460938 18.351562 C 142.996094 18.167969 142.339844 18.351562 142.15625 18.914062 C 141.96875 19.378906 142.15625 20.035156 142.714844 20.222656 C 147.292969 22.183594 149.90625 24.609375 150.46875 27.507812 C 151.496094 33.015625 144.769531 39.929688 132.066406 46.558594 C 118.804688 53.472656 100.589844 59.355469 80.605469 63.089844 C 60.710938 66.828125 41.5625 68.042969 26.710938 66.453125 C 12.421875 64.960938 3.640625 60.945312 2.613281 55.433594 C 2.054688 52.628906 3.550781 49.457031 6.910156 46.09375 C 7.285156 45.71875 7.285156 45.066406 6.910156 44.691406 C 6.539062 44.316406 5.882812 44.316406 5.511719 44.691406 C 1.585938 48.613281 0 52.351562 0.652344 55.804688 C 1.867188 62.34375 11.019531 66.828125 26.527344 68.414062 C 30.820312 68.882812 35.492188 69.164062 40.441406 69.164062 Z M 40.441406 69.164062 " fill-opacity="1" fill-rule="nonzero"/><path className="cupLid" fill="#965123" d="M 34.652344 46.652344 C 46.886719 46.652344 61.550781 45.160156 76.679688 42.261719 C 94.988281 38.808594 111.800781 33.765625 124.128906 28.160156 C 133.09375 24.050781 143.554688 17.792969 142.433594 11.347656 C 141.3125 4.902344 129.171875 2.941406 119.273438 2.382812 C 105.730469 1.632812 88.167969 3.128906 69.957031 6.585938 C 51.648438 10.039062 34.839844 15.085938 22.507812 20.6875 C 13.542969 24.796875 3.082031 31.054688 4.203125 37.5 C 5.324219 43.945312 17.464844 45.90625 27.367188 46.464844 C 29.699219 46.558594 32.128906 46.652344 34.652344 46.652344 Z M 111.984375 4.15625 C 114.507812 4.15625 116.84375 4.25 119.179688 4.34375 C 131.785156 5.089844 139.726562 7.800781 140.472656 11.722656 C 141.21875 15.644531 134.777344 21.0625 123.382812 26.292969 C 111.144531 31.894531 94.519531 36.847656 76.402344 40.300781 C 58.28125 43.757812 40.910156 45.160156 27.554688 44.410156 C 14.945312 43.664062 7.003906 40.957031 6.257812 37.03125 C 5.511719 33.109375 11.957031 27.691406 23.351562 22.460938 C 35.585938 16.859375 52.210938 11.910156 70.328125 8.453125 C 85.367188 5.652344 99.84375 4.15625 111.984375 4.15625 Z M 111.984375 4.15625 " fill-opacity="1" fill-rule="nonzero"/><path className="cupLid" fill="#965123" d="M 42.125 45.625 C 51.929688 45.625 64.539062 44.226562 76.585938 41.890625 C 100.964844 37.3125 126.089844 28.628906 124.78125 21.527344 C 123.472656 14.523438 96.855469 15.550781 72.476562 20.222656 C 48.101562 24.796875 22.976562 33.484375 24.285156 40.582031 C 25.03125 44.132812 32.128906 45.625 42.125 45.625 Z M 106.757812 18.539062 C 116.65625 18.539062 122.445312 19.941406 122.820312 21.902344 C 123.566406 25.636719 106.101562 34.230469 76.214844 39.929688 C 46.328125 45.625 26.992188 43.851562 26.246094 40.207031 C 25.5 36.472656 42.964844 27.878906 72.851562 22.183594 C 86.675781 19.566406 98.257812 18.539062 106.757812 18.539062 Z M 106.757812 18.539062 " fill-opacity="1" fill-rule="nonzero"/><path className="cupLid" fill="#965123" d="M 144.675781 29.65625 C 144.769531 29.65625 144.769531 29.65625 144.863281 29.65625 C 145.421875 29.5625 145.796875 29 145.703125 28.441406 L 142.433594 11.347656 C 142.339844 10.789062 141.78125 10.414062 141.21875 10.507812 C 140.660156 10.601562 140.285156 11.160156 140.378906 11.722656 L 143.648438 28.8125 C 143.742188 29.28125 144.210938 29.65625 144.675781 29.65625 Z M 144.675781 29.65625 " fill-opacity="1" fill-rule="nonzero"/><path className="cupLid" fill="#965123" d="M 8.6875 56.648438 C 8.78125 56.648438 8.78125 56.648438 8.871094 56.648438 C 9.433594 56.554688 9.808594 55.992188 9.714844 55.433594 L 6.257812 37.125 C 6.164062 36.566406 5.605469 36.191406 5.042969 36.285156 C 4.484375 36.378906 4.109375 36.941406 4.203125 37.5 L 7.660156 55.804688 C 7.753906 56.273438 8.21875 56.648438 8.6875 56.648438 Z M 8.6875 56.648438 " fill-opacity="1" fill-rule="nonzero"/><path className="cupLid" fill="#965123" d="M 60.429688 20.6875 C 60.804688 20.6875 61.269531 20.59375 61.644531 20.5 C 66.3125 19.101562 73.226562 17.699219 78.828125 17.140625 C 79.949219 17.046875 80.882812 16.484375 81.632812 15.644531 C 82.378906 14.804688 82.660156 13.683594 82.566406 12.65625 C 82.472656 11.535156 81.910156 10.601562 81.070312 9.855469 C 80.230469 9.199219 79.203125 8.828125 78.082031 9.011719 C 72.011719 9.667969 64.539062 11.160156 59.308594 12.65625 C 58.28125 12.9375 57.441406 13.683594 56.878906 14.617188 C 56.320312 15.550781 56.226562 16.671875 56.601562 17.699219 C 57.066406 19.472656 58.65625 20.6875 60.429688 20.6875 Z M 78.457031 10.882812 C 78.921875 10.882812 79.390625 11.066406 79.761719 11.347656 C 80.230469 11.722656 80.511719 12.1875 80.511719 12.75 C 80.605469 13.308594 80.417969 13.871094 80.042969 14.335938 C 79.671875 14.804688 79.203125 15.085938 78.644531 15.085938 C 72.945312 15.644531 65.847656 17.046875 61.082031 18.539062 C 60.898438 18.632812 60.710938 18.632812 60.429688 18.632812 C 59.496094 18.632812 58.65625 17.980469 58.375 17.140625 C 58 16.019531 58.65625 14.804688 59.777344 14.523438 C 64.820312 13.027344 72.199219 11.535156 78.175781 10.882812 C 78.269531 10.882812 78.363281 10.882812 78.457031 10.882812 Z M 78.457031 10.882812 " fill-opacity="1" fill-rule="nonzero"/><path className="cupDeco" fill="#965123" d="M 52.585938 113.621094 C 63.980469 113.621094 77.054688 112.3125 90.597656 109.605469 C 118.898438 103.90625 141.59375 94.101562 151.308594 83.171875 C 151.679688 82.800781 151.679688 82.144531 151.214844 81.769531 C 150.839844 81.398438 150.1875 81.398438 149.8125 81.863281 C 129.917969 104.1875 53.425781 119.691406 24.003906 107.363281 C 23.535156 107.175781 22.882812 107.363281 22.695312 107.921875 C 22.507812 108.390625 22.695312 109.042969 23.257812 109.230469 C 30.261719 112.21875 40.535156 113.621094 52.585938 113.621094 Z M 52.585938 113.621094 " fill-opacity="1" fill-rule="nonzero"/><path className="cupDeco" fill="#965123" d="M 75.746094 171.621094 C 84.058594 171.621094 93.304688 170.875 102.832031 168.820312 C 111.238281 166.953125 119.085938 164.710938 126.183594 162 C 126.742188 161.816406 126.929688 161.253906 126.742188 160.695312 C 126.558594 160.132812 125.996094 159.945312 125.4375 160.132812 C 118.523438 162.75 110.773438 164.992188 102.367188 166.859375 C 76.585938 172.460938 52.863281 168.167969 43.898438 166.019531 C 43.335938 165.925781 42.777344 166.203125 42.683594 166.765625 C 42.589844 167.324219 42.871094 167.886719 43.429688 167.980469 C 49.222656 169.378906 61.082031 171.621094 75.746094 171.621094 Z M 75.746094 171.621094 " fill-opacity="1" fill-rule="nonzero"/><path className="cupDeco" fill="#965123" d="M 140.101562 155.464844 C 140.285156 155.464844 140.472656 155.464844 140.566406 155.371094 C 146.078125 152.195312 150.46875 148.832031 153.644531 145.285156 C 154.015625 144.910156 154.015625 144.257812 153.550781 143.882812 C 153.175781 143.507812 152.523438 143.507812 152.148438 143.976562 C 149.066406 147.339844 144.863281 150.605469 139.539062 153.597656 C 139.070312 153.875 138.886719 154.4375 139.164062 154.996094 C 139.445312 155.277344 139.726562 155.464844 140.101562 155.464844 Z M 140.101562 155.464844 " fill-opacity="1" fill-rule="nonzero"/><path fill="#965123" d="M 244.054688 159.011719 C 244.519531 159.011719 244.988281 158.640625 245.082031 158.171875 C 246.015625 151.355469 247.976562 94.285156 248.816406 70.003906 C 248.910156 66.546875 249.003906 63.933594 249.097656 62.4375 C 249.5625 50.109375 249.003906 43.199219 245.082031 42.542969 C 244.242188 42.449219 243.214844 42.355469 242.277344 43.011719 C 240.410156 44.316406 239.382812 47.960938 237.234375 60.664062 C 234.621094 76.632812 230.882812 111.472656 230.882812 111.847656 C 230.789062 112.40625 231.257812 112.875 231.816406 112.96875 C 232.378906 113.058594 232.84375 112.59375 232.9375 112.03125 C 232.9375 111.660156 236.675781 76.914062 239.289062 61.035156 C 240.878906 51.230469 242.09375 45.71875 243.492188 44.691406 C 243.773438 44.503906 244.054688 44.410156 244.800781 44.503906 C 247.789062 44.972656 247.324219 57.113281 247.136719 62.34375 C 247.042969 63.933594 246.949219 66.546875 246.855469 69.910156 C 246.109375 92.140625 244.054688 151.167969 243.121094 157.890625 C 243.027344 158.453125 243.398438 158.917969 243.960938 159.011719 C 243.960938 159.011719 244.054688 159.011719 244.054688 159.011719 Z M 244.054688 159.011719 " fill-opacity="1" fill-rule="nonzero"/><path fill="#965123" d="M 233.125 126.601562 C 233.125 126.601562 233.21875 126.601562 233.21875 126.601562 C 233.78125 126.511719 234.152344 126.042969 234.152344 125.484375 C 234.058594 124.828125 227.148438 56.460938 224.066406 41.144531 C 221.449219 28.160156 219.675781 23.023438 217.246094 21.527344 C 216.40625 21.0625 215.566406 20.96875 214.632812 21.15625 C 212.484375 21.808594 211.644531 25.824219 211.363281 36.753906 C 211.175781 47.867188 212.296875 64.585938 213.324219 77.941406 C 213.886719 85.789062 214.351562 92.605469 214.445312 96.808594 C 214.820312 111.753906 215.191406 114.648438 215.191406 114.742188 C 215.285156 115.300781 215.753906 115.675781 216.3125 115.582031 C 216.875 115.488281 217.246094 115.023438 217.15625 114.460938 C 217.15625 114.460938 216.78125 111.472656 216.40625 96.714844 C 216.3125 92.511719 215.847656 85.695312 215.285156 77.753906 C 214.351562 64.398438 213.136719 47.773438 213.324219 36.753906 C 213.511719 25.453125 214.539062 23.304688 215.097656 23.023438 C 215.472656 22.929688 215.847656 22.929688 216.128906 23.117188 C 218.367188 24.515625 220.328125 33.109375 222.011719 41.421875 C 225.09375 56.648438 232.003906 124.921875 232.097656 125.574219 C 232.191406 126.136719 232.660156 126.601562 233.125 126.601562 Z M 233.125 126.601562 " fill-opacity="1" fill-rule="nonzero"/><path fill="#965123" d="M 205.757812 119.785156 C 205.851562 119.785156 206.039062 119.785156 206.132812 119.691406 C 206.601562 119.503906 206.878906 118.851562 206.601562 118.382812 C 206.320312 117.730469 176.992188 52.445312 175.5 48.707031 L 175.125 47.773438 C 173.816406 44.691406 171.203125 38.246094 172.324219 35.726562 C 172.507812 35.351562 172.695312 35.070312 173.070312 34.886719 C 175.5 33.859375 178.671875 37.03125 182.503906 44.316406 C 185.117188 49.175781 214.070312 107.457031 214.445312 108.015625 C 214.726562 108.484375 215.285156 108.671875 215.753906 108.484375 C 216.21875 108.203125 216.40625 107.644531 216.21875 107.175781 C 215.941406 106.617188 186.894531 48.242188 184.277344 43.382812 C 181.382812 38.058594 176.992188 31.148438 172.324219 33.109375 C 171.480469 33.484375 170.828125 34.136719 170.453125 34.976562 C 169.148438 38.058594 171.203125 43.570312 173.257812 48.519531 L 173.628906 49.457031 C 175.125 53.191406 203.613281 116.515625 204.730469 119.226562 C 205.011719 119.503906 205.386719 119.785156 205.757812 119.785156 Z M 205.757812 119.785156 " fill-opacity="1" fill-rule="nonzero"/><path fill="#965123" d="M 276.183594 221.496094 C 276.742188 221.496094 277.117188 221.125 277.210938 220.5625 C 277.210938 220.003906 276.835938 219.535156 276.277344 219.441406 C 269.832031 218.882812 264.132812 218.507812 258.902344 218.042969 C 240.316406 216.640625 229.109375 215.707031 216.035156 213.277344 C 198.660156 210.101562 177.644531 204.21875 153.457031 185.257812 C 132.535156 168.726562 115.253906 147.429688 112.265625 142.855469 C 110.023438 139.492188 109.652344 136.972656 110.304688 136.128906 C 110.773438 135.382812 112.265625 135.664062 113.015625 135.941406 C 118.152344 137.34375 127.957031 144.910156 133 149.300781 C 133.65625 149.859375 134.589844 150.792969 135.710938 151.820312 C 143.554688 159.292969 159.898438 174.890625 175.5 175.265625 C 175.777344 175.265625 176.058594 175.265625 176.339844 175.265625 C 193.242188 175.265625 201.089844 161.441406 203.144531 153.222656 C 204.917969 145.84375 204.824219 134.914062 193.992188 125.203125 C 181.382812 113.996094 161.488281 117.449219 155.699219 118.757812 C 154.671875 119.039062 153.457031 119.316406 152.242188 119.691406 C 151.679688 119.878906 151.402344 120.4375 151.585938 121 C 151.773438 121.558594 152.335938 121.839844 152.894531 121.652344 C 154.015625 121.28125 155.136719 121 156.164062 120.71875 C 161.769531 119.410156 180.820312 116.050781 192.683594 126.695312 C 202.769531 135.757812 202.957031 145.84375 201.277344 152.753906 C 201.089844 153.597656 196.046875 173.304688 176.433594 173.304688 C 176.152344 173.304688 175.871094 173.304688 175.589844 173.304688 C 160.742188 172.929688 144.769531 157.707031 137.109375 150.421875 C 135.988281 149.300781 135.054688 148.457031 134.308594 147.804688 C 129.171875 143.226562 118.992188 135.476562 113.574219 133.980469 C 110.679688 133.140625 109.371094 134.074219 108.71875 134.914062 C 107.410156 136.691406 108.15625 140.054688 110.679688 143.882812 C 114.695312 150.046875 132.441406 171.0625 152.242188 186.753906 C 176.710938 205.992188 198.007812 211.972656 215.660156 215.238281 C 228.921875 217.667969 240.128906 218.507812 258.8125 220.003906 C 263.949219 220.5625 269.644531 220.9375 276.183594 221.496094 Z M 276.183594 221.496094 " fill-opacity="1" fill-rule="nonzero"/><path fill="#965123" d="M 204.265625 117.171875 C 204.546875 117.171875 204.917969 116.984375 205.105469 116.703125 C 205.386719 116.234375 205.292969 115.582031 204.824219 115.300781 C 204.078125 114.835938 185.398438 102.785156 167.183594 103.628906 C 161.957031 103.90625 157.003906 104.65625 151.867188 106.148438 C 151.308594 106.335938 151.027344 106.894531 151.214844 107.363281 C 151.402344 107.921875 151.960938 108.203125 152.429688 108.015625 C 157.472656 106.617188 162.234375 105.773438 167.277344 105.589844 C 184.839844 104.746094 203.519531 116.890625 203.703125 116.984375 C 203.890625 117.078125 204.078125 117.171875 204.265625 117.171875 Z M 204.265625 117.171875 " fill-opacity="1" fill-rule="nonzero"/><path fill="#965123" d="M 244.894531 157.519531 L 245.453125 157.519531 C 264.320312 157.519531 276.742188 157.519531 299.066406 156.023438 C 299.625 156.023438 300 155.464844 300 154.996094 C 300 154.4375 299.53125 154.0625 298.972656 154.0625 C 276.648438 155.558594 264.320312 155.558594 245.546875 155.558594 L 244.988281 155.558594 C 244.425781 155.558594 243.960938 156.023438 243.960938 156.585938 C 243.867188 157.050781 244.332031 157.519531 244.894531 157.519531 Z M 244.894531 157.519531 " fill-opacity="1" fill-rule="nonzero"/><path className="cupDeco" fill="#965123" d="M 150.1875 83.453125 C 150.1875 83.453125 128.050781 100.078125 107.875 104.28125 C 87.703125 108.484375 67.433594 114.273438 48.660156 112.5 C 29.886719 110.726562 23.164062 108.296875 23.164062 108.296875 L 43.152344 167.046875 C 43.152344 167.046875 62.765625 171.808594 84.527344 170.128906 C 106.289062 168.539062 125.25 161.160156 125.25 161.160156 C 125.15625 160.414062 118.335938 152.382812 115.253906 148.644531 C 112.171875 144.910156 108.25 139.398438 109.371094 136.503906 C 110.492188 133.609375 113.386719 134.730469 114.882812 135.664062 C 116.375 136.503906 127.492188 142.292969 131.039062 145.9375 C 134.496094 149.578125 140.007812 154.15625 140.007812 154.15625 C 140.007812 154.15625 147.011719 150.515625 150 147.804688 C 152.988281 145.097656 152.988281 144.535156 152.988281 144.535156 Z M 150.1875 83.453125 " fill-opacity="1" fill-rule="nonzero"/><g clip-path="url(#67b4f69b51)"><path className="cupDeco" fill="#965123" d="M 52.730469 118.042969 L 81.476562 118.042969 L 81.476562 147.910156 L 52.730469 147.910156 Z M 52.730469 118.042969 " fill-opacity="1" fill-rule="nonzero"/></g></svg>