<svg xmlns="http://www.w3.org/2000/svg" xmlns:xlink="http://www.w3.org/1999/xlink" width="500" zoomAndPan="magnify" viewBox="0 0 375 374.999991" height="500" preserveAspectRatio="xMidYMid meet" version="1.0"><path stroke-linecap="butt" transform="matrix(0.710839, -0.239183, 0.239183, 0.710839, 187.285934, 361.74607)" fill="none" stroke-linejoin="miter" d="M 0.00158146 2.000844 L 107.318519 2.001373 " stroke="#ede2d9" stroke-width="4" stroke-opacity="1" stroke-miterlimit="4"/><path fill="#ede2d9" d="M 191.875 374.839844 C 133.519531 374.839844 82.652344 333.515625 70.664062 276.574219 C 58.125 241.167969 67.351562 178.3125 101.34375 140.535156 C 104.339844 137.226562 109.226562 136.355469 113.171875 138.566406 C 117.113281 140.773438 119.007812 145.347656 117.746094 149.683594 C 116.167969 155.125 116.089844 163.011719 117.585938 172.082031 C 118.851562 179.574219 123.660156 187.617188 129.023438 194.164062 C 123.265625 145.347656 141.324219 124.132812 158.910156 103.550781 C 176.65625 82.730469 193.375 63.09375 189.433594 11.359375 C 189.117188 7.179688 191.484375 3.316406 195.425781 1.738281 C 199.289062 0.160156 203.785156 1.265625 206.464844 4.5 C 253.546875 61.675781 243.53125 110.964844 236.90625 143.613281 C 232.332031 165.929688 231.386719 174.84375 238.957031 179.96875 C 242.507812 182.335938 244.558594 181.78125 246.609375 180.207031 C 254.101562 174.371094 260.171875 152.839844 251.65625 129.101562 C 250.234375 125.238281 251.417969 120.980469 254.652344 118.375 C 257.804688 115.773438 262.300781 115.539062 265.773438 117.585938 C 304.019531 141.011719 314.035156 202.917969 315.769531 250.707031 C 316.875 282.570312 305.046875 313.011719 282.410156 336.511719 C 258.675781 360.878906 225.710938 374.839844 191.875 374.839844 Z M 89.355469 272.160156 C 99.292969 320.503906 142.351562 355.597656 191.796875 355.597656 C 220.503906 355.597656 248.421875 343.765625 268.296875 323.105469 C 287.300781 303.46875 297.238281 277.996094 296.292969 251.339844 C 294.792969 208.910156 287.300781 175.789062 274.761719 154.652344 C 274.289062 171.925781 268.53125 187.304688 258.28125 195.269531 C 249.289062 202.285156 238.011719 202.445312 228.074219 195.820312 C 209.070312 182.964844 213.40625 161.988281 217.902344 139.667969 C 223.421875 112.699219 230.046875 80.207031 208.4375 41.25 C 204.890625 79.023438 188.40625 98.425781 173.5 115.929688 C 154.652344 138.011719 138.40625 157.175781 152.367188 215.0625 C 153.15625 218.21875 152.289062 221.53125 150.078125 223.894531 C 147.871094 226.261719 144.636719 227.367188 141.484375 226.8125 C 127.601562 224.527344 104.417969 199.527344 99.210938 177.917969 C 83.753906 209.148438 80.601562 247.632812 88.960938 270.503906 C 89.117188 271.054688 89.277344 271.609375 89.355469 272.160156 Z M 89.355469 272.160156 " fill-opacity="1" fill-rule="nonzero"/></svg>