<svg xmlns="http://www.w3.org/2000/svg" xmlns:xlink="http://www.w3.org/1999/xlink" width="500" zoomAndPan="magnify" viewBox="0 0 375 374.999991" height="500" preserveAspectRatio="xMidYMid meet" version="1.0"><path stroke-linecap="butt" transform="matrix(0.555951, -0.503407, 0.503407, 0.555951, 92.60624, 214.239888)" fill="none" stroke-linejoin="miter" d="M 0.000426891 1.999979 L 95.73212 2.001116 " stroke="#ede2d9" stroke-width="4" stroke-opacity="1" stroke-miterlimit="4"/><path fill="#ede2d9" d="M 83.101562 266.003906 C 91.726562 240.015625 107.964844 217.542969 126.636719 197.824219 C 161.722656 160.769531 205.039062 132.570312 235.121094 90.761719 C 251.769531 67.628906 263.816406 41.351562 269.011719 13.265625 C 269.390625 11.222656 269.089844 9.40625 268.347656 7.878906 C 267.253906 5.039062 264.777344 2.742188 260.878906 2.585938 C 196.230469 -0.0078125 131.777344 26.796875 86.984375 73.328125 C 41.015625 121.085938 19.609375 188.492188 26.792969 254.160156 C 30.804688 290.835938 43.089844 326.191406 64.003906 356.671875 C 66.261719 361.917969 72.578125 362.25 76.578125 359.410156 C 79.730469 357.410156 81.574219 353.710938 79.558594 349.761719 C 73 322.011719 74.105469 293.109375 83.101562 266.007812 Z M 49.507812 173.433594 C 65.167969 114.375 106.960938 66.328125 161.789062 39.972656 C 189.484375 26.65625 219.785156 19.628906 250.421875 19.324219 C 238.097656 67.765625 204.980469 104.878906 167.597656 137.246094 C 127.460938 172 85.152344 208.152344 67.351562 259.960938 C 61.667969 276.5 58.804688 293.8125 58.550781 311.175781 C 40.617188 267.957031 37.429688 218.984375 49.507812 173.433594 Z M 49.507812 173.433594 " fill-opacity="1" fill-rule="nonzero"/><path fill="#ede2d9" d="M 345.8125 119.0625 C 340.363281 82.632812 322.917969 49.5625 296.242188 24.21875 C 294.242188 22.320312 291.980469 21.675781 289.847656 21.886719 C 286.402344 21.714844 283.050781 23.507812 282.144531 27.941406 C 282.105469 28.121094 282.0625 28.296875 282.023438 28.472656 C 281.941406 28.765625 281.871094 29.0625 281.824219 29.367188 C 270.605469 81.226562 230.65625 119.011719 192.722656 153.25 C 155.40625 186.929688 116.246094 222.140625 98.523438 270.59375 C 87.355469 301.128906 86.542969 334.890625 95.597656 366.050781 C 96.378906 368.742188 98.050781 370.4375 100.042969 371.296875 C 101.089844 371.839844 102.3125 372.1875 103.730469 372.246094 C 172.578125 375.011719 242.386719 349.320312 288.859375 297.703125 C 331.917969 249.878906 355.421875 183.320312 345.8125 119.0625 Z M 324.40625 198.027344 C 308.6875 257.613281 266.507812 309.238281 210.320312 334.910156 C 179.148438 349.152344 144.515625 355.988281 110.273438 355.546875 C 102.152344 322.0625 106.84375 287.003906 123.222656 256.5 C 138.621094 227.816406 161.84375 204.464844 185.535156 182.554688 C 227.957031 143.324219 276.886719 103.738281 294.617188 47.007812 C 330.292969 88.519531 338.40625 144.96875 324.40625 198.027344 Z M 324.40625 198.027344 " fill-opacity="1" fill-rule="nonzero"/></svg>