<svg xmlns="http://www.w3.org/2000/svg" xmlns:xlink="http://www.w3.org/1999/xlink" width="500" zoomAndPan="magnify" viewBox="0 0 375 374.999991" height="500" preserveAspectRatio="xMidYMid meet" version="1.0"><path fill="#ede2d9" d="M 321.714844 34.089844 L 289.773438 34.089844 L 289.773438 17.046875 C 289.773438 16.488281 289.746094 15.929688 289.691406 15.375 C 289.636719 14.820312 289.554688 14.269531 289.445312 13.71875 C 289.335938 13.171875 289.199219 12.632812 289.039062 12.097656 C 288.875 11.5625 288.6875 11.039062 288.476562 10.523438 C 288.261719 10.007812 288.023438 9.503906 287.761719 9.011719 C 287.496094 8.519531 287.210938 8.039062 286.898438 7.574219 C 286.589844 7.113281 286.257812 6.664062 285.902344 6.230469 C 285.550781 5.800781 285.175781 5.386719 284.78125 4.992188 C 284.386719 4.597656 283.972656 4.222656 283.539062 3.867188 C 283.109375 3.515625 282.660156 3.183594 282.195312 2.871094 C 281.734375 2.5625 281.253906 2.277344 280.761719 2.011719 C 280.269531 1.75 279.765625 1.511719 279.25 1.296875 C 278.734375 1.082031 278.210938 0.894531 277.675781 0.734375 C 277.140625 0.570312 276.601562 0.4375 276.050781 0.328125 C 275.503906 0.21875 274.953125 0.136719 274.398438 0.0820312 C 273.84375 0.0273438 273.285156 0 272.726562 0 C 272.167969 0 271.613281 0.0273438 271.054688 0.0820312 C 270.5 0.136719 269.949219 0.21875 269.402344 0.328125 C 268.855469 0.4375 268.3125 0.570312 267.777344 0.734375 C 267.246094 0.894531 266.71875 1.082031 266.203125 1.296875 C 265.6875 1.511719 265.183594 1.75 264.691406 2.011719 C 264.199219 2.277344 263.722656 2.5625 263.257812 2.871094 C 262.792969 3.183594 262.34375 3.515625 261.914062 3.867188 C 261.480469 4.222656 261.070312 4.597656 260.675781 4.992188 C 260.28125 5.386719 259.90625 5.800781 259.550781 6.230469 C 259.195312 6.664062 258.863281 7.113281 258.554688 7.574219 C 258.246094 8.039062 257.957031 8.519531 257.695312 9.011719 C 257.429688 9.503906 257.191406 10.007812 256.980469 10.523438 C 256.765625 11.039062 256.578125 11.5625 256.414062 12.097656 C 256.253906 12.632812 256.117188 13.171875 256.007812 13.71875 C 255.898438 14.269531 255.820312 14.820312 255.765625 15.375 C 255.710938 15.929688 255.683594 16.488281 255.683594 17.046875 L 255.683594 34.089844 L 204.546875 34.089844 L 204.546875 17.046875 C 204.546875 16.488281 204.519531 15.929688 204.464844 15.375 C 204.410156 14.820312 204.328125 14.269531 204.21875 13.71875 C 204.109375 13.171875 203.972656 12.632812 203.8125 12.097656 C 203.648438 11.5625 203.460938 11.039062 203.246094 10.523438 C 203.035156 10.007812 202.796875 9.503906 202.53125 9.011719 C 202.269531 8.519531 201.984375 8.039062 201.671875 7.574219 C 201.363281 7.113281 201.03125 6.664062 200.675781 6.230469 C 200.320312 5.800781 199.949219 5.386719 199.554688 4.992188 C 199.15625 4.597656 198.746094 4.222656 198.3125 3.867188 C 197.882812 3.515625 197.433594 3.183594 196.96875 2.871094 C 196.503906 2.5625 196.027344 2.277344 195.535156 2.011719 C 195.042969 1.75 194.539062 1.511719 194.023438 1.296875 C 193.507812 1.082031 192.980469 0.894531 192.449219 0.734375 C 191.914062 0.570312 191.371094 0.4375 190.824219 0.328125 C 190.277344 0.21875 189.726562 0.136719 189.171875 0.0820312 C 188.613281 0.0273438 188.058594 0 187.5 0 C 186.941406 0 186.386719 0.0273438 185.828125 0.0820312 C 185.273438 0.136719 184.722656 0.21875 184.175781 0.328125 C 183.628906 0.4375 183.085938 0.570312 182.550781 0.734375 C 182.019531 0.894531 181.492188 1.082031 180.976562 1.296875 C 180.460938 1.511719 179.957031 1.75 179.464844 2.011719 C 178.972656 2.277344 178.496094 2.5625 178.03125 2.871094 C 177.566406 3.183594 177.117188 3.515625 176.6875 3.867188 C 176.253906 4.222656 175.839844 4.597656 175.445312 4.992188 C 175.050781 5.386719 174.679688 5.800781 174.324219 6.230469 C 173.96875 6.664062 173.636719 7.113281 173.328125 7.574219 C 173.015625 8.039062 172.730469 8.519531 172.46875 9.011719 C 172.203125 9.503906 171.964844 10.007812 171.753906 10.523438 C 171.539062 11.039062 171.351562 11.5625 171.1875 12.097656 C 171.027344 12.632812 170.890625 13.171875 170.78125 13.71875 C 170.671875 14.269531 170.589844 14.820312 170.535156 15.375 C 170.480469 15.929688 170.453125 16.488281 170.453125 17.046875 L 170.453125 34.089844 L 119.316406 34.089844 L 119.316406 17.046875 C 119.316406 16.488281 119.289062 15.929688 119.234375 15.375 C 119.179688 14.820312 119.097656 14.269531 118.992188 13.71875 C 118.882812 13.171875 118.746094 12.632812 118.585938 12.097656 C 118.421875 11.5625 118.234375 11.039062 118.019531 10.523438 C 117.808594 10.007812 117.570312 9.503906 117.304688 9.011719 C 117.042969 8.519531 116.753906 8.039062 116.445312 7.574219 C 116.136719 7.113281 115.804688 6.664062 115.449219 6.230469 C 115.09375 5.800781 114.71875 5.386719 114.324219 4.992188 C 113.929688 4.597656 113.519531 4.222656 113.085938 3.867188 C 112.65625 3.515625 112.207031 3.183594 111.742188 2.871094 C 111.277344 2.5625 110.800781 2.277344 110.308594 2.011719 C 109.816406 1.75 109.3125 1.511719 108.796875 1.296875 C 108.28125 1.082031 107.753906 0.894531 107.222656 0.734375 C 106.6875 0.570312 106.144531 0.4375 105.597656 0.328125 C 105.050781 0.21875 104.5 0.136719 103.945312 0.0820312 C 103.386719 0.0273438 102.832031 0 102.273438 0 C 101.714844 0 101.15625 0.0273438 100.601562 0.0820312 C 100.046875 0.136719 99.496094 0.21875 98.949219 0.328125 C 98.398438 0.4375 97.859375 0.570312 97.324219 0.734375 C 96.789062 0.894531 96.265625 1.082031 95.75 1.296875 C 95.234375 1.511719 94.730469 1.75 94.238281 2.011719 C 93.746094 2.277344 93.265625 2.5625 92.804688 2.871094 C 92.339844 3.183594 91.890625 3.515625 91.460938 3.867188 C 91.027344 4.222656 90.613281 4.597656 90.21875 4.992188 C 89.824219 5.386719 89.449219 5.800781 89.097656 6.230469 C 88.742188 6.664062 88.410156 7.113281 88.101562 7.574219 C 87.789062 8.039062 87.503906 8.519531 87.238281 9.011719 C 86.976562 9.503906 86.738281 10.007812 86.523438 10.523438 C 86.3125 11.039062 86.125 11.5625 85.960938 12.097656 C 85.800781 12.632812 85.664062 13.171875 85.554688 13.71875 C 85.445312 14.269531 85.363281 14.820312 85.308594 15.375 C 85.253906 15.929688 85.226562 16.488281 85.226562 17.046875 L 85.226562 34.089844 L 53.285156 34.089844 C 51.539062 34.09375 49.800781 34.179688 48.0625 34.351562 C 46.328125 34.523438 44.605469 34.78125 42.894531 35.121094 C 41.183594 35.464844 39.496094 35.886719 37.824219 36.394531 C 36.15625 36.902344 34.515625 37.492188 32.90625 38.160156 C 31.292969 38.828125 29.71875 39.574219 28.179688 40.394531 C 26.644531 41.21875 25.148438 42.113281 23.699219 43.082031 C 22.25 44.050781 20.847656 45.089844 19.5 46.195312 C 18.152344 47.304688 16.859375 48.472656 15.628906 49.707031 C 14.394531 50.941406 13.222656 52.230469 12.117188 53.578125 C 11.007812 54.925781 9.972656 56.324219 9 57.773438 C 8.03125 59.226562 7.136719 60.71875 6.3125 62.257812 C 5.488281 63.792969 4.742188 65.367188 4.074219 66.980469 C 3.40625 68.589844 2.816406 70.230469 2.308594 71.898438 C 1.800781 73.570312 1.378906 75.257812 1.035156 76.96875 C 0.691406 78.679688 0.4375 80.402344 0.261719 82.136719 C 0.0898438 83.875 0.00390625 85.613281 0 87.359375 L 0 321.734375 C 0.00390625 323.476562 0.0898438 325.21875 0.261719 326.953125 C 0.4375 328.6875 0.691406 330.410156 1.035156 332.121094 C 1.378906 333.832031 1.800781 335.523438 2.308594 337.191406 C 2.816406 338.859375 3.40625 340.5 4.074219 342.109375 C 4.742188 343.722656 5.488281 345.296875 6.3125 346.835938 C 7.136719 348.371094 8.03125 349.867188 9 351.316406 C 9.972656 352.765625 11.007812 354.164062 12.117188 355.511719 C 13.222656 356.859375 14.394531 358.152344 15.628906 359.382812 C 16.859375 360.617188 18.152344 361.789062 19.5 362.894531 C 20.847656 364 22.25 365.039062 23.699219 366.007812 C 25.148438 366.976562 26.644531 367.871094 28.179688 368.695312 C 29.71875 369.519531 31.292969 370.265625 32.90625 370.933594 C 34.515625 371.601562 36.15625 372.1875 37.824219 372.695312 C 39.496094 373.203125 41.183594 373.625 42.894531 373.96875 C 44.605469 374.308594 46.328125 374.566406 48.0625 374.738281 C 49.800781 374.910156 51.539062 375 53.285156 375 L 321.714844 375 C 323.460938 375 325.199219 374.910156 326.9375 374.738281 C 328.671875 374.566406 330.394531 374.308594 332.105469 373.96875 C 333.816406 373.625 335.503906 373.203125 337.175781 372.695312 C 338.84375 372.1875 340.484375 371.601562 342.09375 370.933594 C 343.707031 370.265625 345.28125 369.519531 346.820312 368.695312 C 348.355469 367.871094 349.851562 366.976562 351.300781 366.007812 C 352.75 365.039062 354.152344 364 355.5 362.894531 C 356.847656 361.789062 358.140625 360.617188 359.371094 359.382812 C 360.605469 358.152344 361.777344 356.859375 362.882812 355.511719 C 363.992188 354.164062 365.027344 352.765625 366 351.316406 C 366.96875 349.867188 367.863281 348.371094 368.6875 346.835938 C 369.511719 345.296875 370.257812 343.722656 370.925781 342.109375 C 371.59375 340.5 372.183594 338.859375 372.691406 337.191406 C 373.199219 335.523438 373.621094 333.832031 373.964844 332.121094 C 374.308594 330.410156 374.5625 328.6875 374.738281 326.953125 C 374.910156 325.21875 374.996094 323.476562 375 321.734375 L 375 87.359375 C 374.996094 85.613281 374.910156 83.875 374.738281 82.136719 C 374.5625 80.402344 374.308594 78.679688 373.964844 76.96875 C 373.621094 75.257812 373.199219 73.570312 372.691406 71.898438 C 372.183594 70.230469 371.59375 68.589844 370.925781 66.980469 C 370.257812 65.367188 369.511719 63.792969 368.6875 62.257812 C 367.863281 60.71875 366.96875 59.226562 366 57.773438 C 365.027344 56.324219 363.992188 54.925781 362.882812 53.578125 C 361.777344 52.230469 360.605469 50.941406 359.371094 49.707031 C 358.140625 48.472656 356.847656 47.304688 355.5 46.195312 C 354.152344 45.089844 352.75 44.050781 351.300781 43.082031 C 349.851562 42.113281 348.355469 41.21875 346.820312 40.394531 C 345.28125 39.574219 343.707031 38.828125 342.09375 38.160156 C 340.484375 37.492188 338.84375 36.902344 337.175781 36.394531 C 335.503906 35.886719 333.816406 35.464844 332.105469 35.121094 C 330.394531 34.78125 328.671875 34.523438 326.9375 34.351562 C 325.199219 34.179688 323.460938 34.09375 321.714844 34.089844 Z M 34.089844 87.359375 C 34.09375 86.730469 34.125 86.101562 34.1875 85.476562 C 34.25 84.851562 34.34375 84.234375 34.464844 83.617188 C 34.589844 83 34.742188 82.394531 34.925781 81.792969 C 35.109375 81.191406 35.320312 80.601562 35.5625 80.019531 C 35.800781 79.441406 36.070312 78.875 36.367188 78.320312 C 36.664062 77.765625 36.988281 77.230469 37.335938 76.707031 C 37.6875 76.183594 38.058594 75.679688 38.457031 75.195312 C 38.859375 74.710938 39.277344 74.246094 39.722656 73.800781 C 40.167969 73.359375 40.632812 72.9375 41.117188 72.539062 C 41.605469 72.140625 42.109375 71.765625 42.628906 71.417969 C 43.152344 71.070312 43.691406 70.746094 44.246094 70.449219 C 44.796875 70.15625 45.367188 69.886719 45.945312 69.644531 C 46.527344 69.40625 47.117188 69.195312 47.71875 69.011719 C 48.320312 68.828125 48.925781 68.675781 49.542969 68.554688 C 50.160156 68.429688 50.78125 68.335938 51.40625 68.277344 C 52.03125 68.214844 52.65625 68.183594 53.285156 68.183594 L 85.226562 68.183594 L 85.226562 85.226562 C 85.226562 85.785156 85.253906 86.34375 85.308594 86.898438 C 85.363281 87.453125 85.445312 88.003906 85.554688 88.550781 C 85.664062 89.101562 85.800781 89.640625 85.960938 90.175781 C 86.125 90.710938 86.3125 91.234375 86.523438 91.75 C 86.738281 92.265625 86.976562 92.769531 87.238281 93.261719 C 87.503906 93.753906 87.789062 94.234375 88.101562 94.695312 C 88.410156 95.160156 88.742188 95.609375 89.097656 96.039062 C 89.449219 96.472656 89.824219 96.886719 90.21875 97.28125 C 90.613281 97.675781 91.027344 98.050781 91.460938 98.402344 C 91.890625 98.757812 92.339844 99.089844 92.804688 99.398438 C 93.265625 99.710938 93.746094 99.996094 94.238281 100.261719 C 94.730469 100.523438 95.234375 100.761719 95.75 100.976562 C 96.265625 101.1875 96.789062 101.375 97.324219 101.539062 C 97.859375 101.699219 98.398438 101.835938 98.949219 101.945312 C 99.496094 102.054688 100.046875 102.136719 100.601562 102.191406 C 101.15625 102.246094 101.714844 102.273438 102.273438 102.273438 C 102.832031 102.273438 103.386719 102.246094 103.945312 102.191406 C 104.5 102.136719 105.050781 102.054688 105.597656 101.945312 C 106.144531 101.835938 106.6875 101.699219 107.222656 101.539062 C 107.753906 101.375 108.28125 101.1875 108.796875 100.976562 C 109.3125 100.761719 109.816406 100.523438 110.308594 100.261719 C 110.800781 99.996094 111.277344 99.710938 111.742188 99.398438 C 112.207031 99.089844 112.65625 98.757812 113.085938 98.402344 C 113.519531 98.050781 113.929688 97.675781 114.324219 97.28125 C 114.71875 96.886719 115.09375 96.472656 115.449219 96.039062 C 115.804688 95.609375 116.136719 95.160156 116.445312 94.695312 C 116.753906 94.234375 117.042969 93.753906 117.304688 93.261719 C 117.570312 92.769531 117.808594 92.265625 118.019531 91.75 C 118.234375 91.234375 118.421875 90.710938 118.585938 90.175781 C 118.746094 89.640625 118.882812 89.101562 118.992188 88.550781 C 119.097656 88.003906 119.179688 87.453125 119.234375 86.898438 C 119.289062 86.34375 119.316406 85.785156 119.316406 85.226562 L 119.316406 68.183594 L 170.453125 68.183594 L 170.453125 85.226562 C 170.453125 85.785156 170.480469 86.34375 170.535156 86.898438 C 170.589844 87.453125 170.671875 88.003906 170.78125 88.550781 C 170.890625 89.101562 171.027344 89.640625 171.1875 90.175781 C 171.351562 90.710938 171.539062 91.234375 171.753906 91.75 C 171.964844 92.265625 172.203125 92.769531 172.46875 93.261719 C 172.730469 93.753906 173.015625 94.234375 173.328125 94.695312 C 173.636719 95.160156 173.96875 95.609375 174.324219 96.039062 C 174.679688 96.472656 175.050781 96.886719 175.445312 97.28125 C 175.839844 97.675781 176.253906 98.050781 176.6875 98.402344 C 177.117188 98.757812 177.566406 99.089844 178.03125 99.398438 C 178.496094 99.710938 178.972656 99.996094 179.464844 100.261719 C 179.957031 100.523438 180.460938 100.761719 180.976562 100.976562 C 181.492188 101.1875 182.019531 101.375 182.550781 101.539062 C 183.085938 101.699219 183.628906 101.835938 184.175781 101.945312 C 184.722656 102.054688 185.273438 102.136719 185.828125 102.191406 C 186.386719 102.246094 186.941406 102.273438 187.5 102.273438 C 188.058594 102.273438 188.613281 102.246094 189.171875 102.191406 C 189.726562 102.136719 190.277344 102.054688 190.824219 101.945312 C 191.371094 101.835938 191.914062 101.699219 192.449219 101.539062 C 192.980469 101.375 193.507812 101.1875 194.023438 100.976562 C 194.539062 100.761719 195.042969 100.523438 195.535156 100.261719 C 196.027344 99.996094 196.503906 99.710938 196.96875 99.398438 C 197.433594 99.089844 197.882812 98.757812 198.3125 98.402344 C 198.746094 98.050781 199.15625 97.675781 199.554688 97.28125 C 199.949219 96.886719 200.320312 96.472656 200.675781 96.039062 C 201.03125 95.609375 201.363281 95.160156 201.671875 94.695312 C 201.984375 94.234375 202.269531 93.753906 202.53125 93.261719 C 202.796875 92.769531 203.035156 92.265625 203.246094 91.75 C 203.460938 91.234375 203.648438 90.710938 203.8125 90.175781 C 203.972656 89.640625 204.109375 89.101562 204.21875 88.550781 C 204.328125 88.003906 204.410156 87.453125 204.464844 86.898438 C 204.519531 86.34375 204.546875 85.785156 204.546875 85.226562 L 204.546875 68.183594 L 255.683594 68.183594 L 255.683594 85.226562 C 255.683594 85.785156 255.710938 86.34375 255.765625 86.898438 C 255.820312 87.453125 255.898438 88.003906 256.007812 88.550781 C 256.117188 89.101562 256.253906 89.640625 256.414062 90.175781 C 256.578125 90.710938 256.765625 91.234375 256.980469 91.75 C 257.191406 92.265625 257.429688 92.769531 257.695312 93.261719 C 257.957031 93.753906 258.246094 94.234375 258.554688 94.695312 C 258.863281 95.160156 259.195312 95.609375 259.550781 96.039062 C 259.90625 96.472656 260.28125 96.886719 260.675781 97.28125 C 261.070312 97.675781 261.480469 98.050781 261.914062 98.402344 C 262.34375 98.757812 262.792969 99.089844 263.257812 99.398438 C 263.722656 99.710938 264.199219 99.996094 264.691406 100.261719 C 265.183594 100.523438 265.6875 100.761719 266.203125 100.976562 C 266.71875 101.1875 267.246094 101.375 267.777344 101.539062 C 268.3125 101.699219 268.855469 101.835938 269.402344 101.945312 C 269.949219 102.054688 270.5 102.136719 271.054688 102.191406 C 271.613281 102.246094 272.167969 102.273438 272.726562 102.273438 C 273.285156 102.273438 273.84375 102.246094 274.398438 102.191406 C 274.953125 102.136719 275.503906 102.054688 276.050781 101.945312 C 276.601562 101.835938 277.140625 101.699219 277.675781 101.539062 C 278.210938 101.375 278.734375 101.1875 279.25 100.976562 C 279.765625 100.761719 280.269531 100.523438 280.761719 100.261719 C 281.253906 99.996094 281.734375 99.710938 282.195312 99.398438 C 282.660156 99.089844 283.109375 98.757812 283.539062 98.402344 C 283.972656 98.050781 284.386719 97.675781 284.78125 97.28125 C 285.175781 96.886719 285.550781 96.472656 285.902344 96.039062 C 286.257812 95.609375 286.589844 95.160156 286.898438 94.695312 C 287.210938 94.234375 287.496094 93.753906 287.761719 93.261719 C 288.023438 92.769531 288.261719 92.265625 288.476562 91.75 C 288.6875 91.234375 288.875 90.710938 289.039062 90.175781 C 289.199219 89.640625 289.335938 89.101562 289.445312 88.550781 C 289.554688 88.003906 289.636719 87.453125 289.691406 86.898438 C 289.746094 86.34375 289.773438 85.785156 289.773438 85.226562 L 289.773438 68.183594 L 321.714844 68.183594 C 322.34375 68.183594 322.96875 68.214844 323.59375 68.277344 C 324.21875 68.335938 324.839844 68.429688 325.457031 68.554688 C 326.074219 68.675781 326.679688 68.828125 327.28125 69.011719 C 327.882812 69.195312 328.472656 69.40625 329.054688 69.644531 C 329.632812 69.886719 330.203125 70.15625 330.753906 70.449219 C 331.308594 70.746094 331.847656 71.070312 332.371094 71.417969 C 332.890625 71.765625 333.394531 72.140625 333.882812 72.539062 C 334.367188 72.9375 334.832031 73.359375 335.277344 73.800781 C 335.722656 74.246094 336.140625 74.710938 336.542969 75.195312 C 336.941406 75.679688 337.3125 76.183594 337.664062 76.707031 C 338.011719 77.230469 338.335938 77.765625 338.632812 78.320312 C 338.929688 78.875 339.199219 79.441406 339.4375 80.019531 C 339.679688 80.601562 339.890625 81.191406 340.074219 81.792969 C 340.257812 82.394531 340.410156 83 340.535156 83.617188 C 340.65625 84.234375 340.75 84.851562 340.8125 85.476562 C 340.875 86.101562 340.90625 86.730469 340.910156 87.359375 L 340.910156 136.363281 L 34.089844 136.363281 Z M 340.910156 321.734375 C 340.90625 322.359375 340.875 322.988281 340.8125 323.613281 C 340.75 324.238281 340.65625 324.859375 340.535156 325.472656 C 340.410156 326.089844 340.257812 326.699219 340.074219 327.296875 C 339.890625 327.898438 339.679688 328.488281 339.4375 329.070312 C 339.199219 329.648438 338.929688 330.214844 338.632812 330.769531 C 338.335938 331.324219 338.011719 331.863281 337.664062 332.382812 C 337.3125 332.90625 336.941406 333.410156 336.542969 333.894531 C 336.140625 334.378906 335.722656 334.84375 335.277344 335.289062 C 334.832031 335.734375 334.367188 336.152344 333.882812 336.550781 C 333.394531 336.949219 332.890625 337.324219 332.371094 337.671875 C 331.847656 338.023438 331.308594 338.34375 330.753906 338.640625 C 330.203125 338.9375 329.632812 339.203125 329.054688 339.445312 C 328.472656 339.6875 327.882812 339.898438 327.28125 340.078125 C 326.679688 340.261719 326.074219 340.414062 325.457031 340.539062 C 324.839844 340.660156 324.21875 340.753906 323.59375 340.816406 C 322.96875 340.878906 322.34375 340.910156 321.714844 340.910156 L 53.285156 340.910156 C 52.65625 340.910156 52.03125 340.878906 51.40625 340.816406 C 50.78125 340.753906 50.160156 340.660156 49.542969 340.539062 C 48.925781 340.414062 48.320312 340.261719 47.71875 340.078125 C 47.117188 339.898438 46.527344 339.6875 45.945312 339.445312 C 45.367188 339.203125 44.796875 338.9375 44.246094 338.640625 C 43.691406 338.34375 43.152344 338.023438 42.628906 337.671875 C 42.109375 337.324219 41.605469 336.949219 41.117188 336.550781 C 40.632812 336.152344 40.167969 335.734375 39.722656 335.289062 C 39.277344 334.84375 38.859375 334.378906 38.457031 333.894531 C 38.058594 333.410156 37.6875 332.90625 37.335938 332.382812 C 36.988281 331.863281 36.664062 331.324219 36.367188 330.769531 C 36.070312 330.214844 35.800781 329.648438 35.5625 329.070312 C 35.320312 328.488281 35.109375 327.898438 34.925781 327.296875 C 34.742188 326.699219 34.589844 326.089844 34.464844 325.472656 C 34.34375 324.859375 34.25 324.238281 34.1875 323.613281 C 34.125 322.988281 34.09375 322.359375 34.089844 321.734375 L 34.089844 170.453125 L 340.910156 170.453125 Z M 340.910156 321.734375 " fill-opacity="1" fill-rule="nonzero"/><path fill="#ede2d9" d="M 158.402344 301.824219 C 158.796875 302.21875 159.210938 302.59375 159.644531 302.945312 C 160.074219 303.300781 160.523438 303.632812 160.984375 303.941406 C 161.449219 304.253906 161.929688 304.539062 162.421875 304.800781 C 162.914062 305.066406 163.417969 305.304688 163.933594 305.515625 C 164.449219 305.730469 164.972656 305.917969 165.507812 306.082031 C 166.042969 306.242188 166.582031 306.378906 167.128906 306.488281 C 167.675781 306.597656 168.230469 306.679688 168.785156 306.734375 C 169.339844 306.789062 169.894531 306.816406 170.453125 306.816406 C 171.011719 306.816406 171.570312 306.789062 172.125 306.734375 C 172.679688 306.679688 173.230469 306.597656 173.78125 306.488281 C 174.328125 306.378906 174.867188 306.242188 175.402344 306.082031 C 175.9375 305.917969 176.460938 305.730469 176.976562 305.515625 C 177.492188 305.304688 177.996094 305.066406 178.488281 304.800781 C 178.980469 304.539062 179.457031 304.253906 179.921875 303.941406 C 180.386719 303.632812 180.835938 303.300781 181.265625 302.945312 C 181.699219 302.59375 182.109375 302.21875 182.503906 301.824219 L 250.6875 233.640625 C 251.070312 233.246094 251.433594 232.832031 251.777344 232.398438 C 252.121094 231.964844 252.441406 231.515625 252.742188 231.054688 C 253.042969 230.589844 253.316406 230.113281 253.570312 229.621094 C 253.824219 229.132812 254.054688 228.628906 254.257812 228.117188 C 254.464844 227.605469 254.640625 227.082031 254.796875 226.554688 C 254.949219 226.023438 255.078125 225.488281 255.179688 224.945312 C 255.28125 224.402344 255.355469 223.855469 255.40625 223.304688 C 255.453125 222.753906 255.476562 222.203125 255.472656 221.652344 C 255.464844 221.101562 255.433594 220.550781 255.375 220 C 255.320312 219.453125 255.234375 218.90625 255.121094 218.367188 C 255.011719 217.824219 254.875 217.292969 254.710938 216.765625 C 254.546875 216.238281 254.359375 215.71875 254.144531 215.210938 C 253.933594 214.699219 253.695312 214.203125 253.433594 213.714844 C 253.171875 213.230469 252.886719 212.757812 252.578125 212.300781 C 252.269531 211.839844 251.941406 211.398438 251.589844 210.972656 C 251.242188 210.546875 250.871094 210.136719 250.480469 209.746094 C 250.089844 209.355469 249.679688 208.988281 249.253906 208.636719 C 248.828125 208.285156 248.386719 207.957031 247.925781 207.648438 C 247.46875 207.339844 246.996094 207.054688 246.511719 206.792969 C 246.023438 206.53125 245.527344 206.292969 245.019531 206.082031 C 244.507812 205.867188 243.992188 205.679688 243.464844 205.515625 C 242.9375 205.351562 242.402344 205.214844 241.859375 205.105469 C 241.320312 204.992188 240.777344 204.910156 240.226562 204.851562 C 239.675781 204.792969 239.128906 204.761719 238.574219 204.753906 C 238.023438 204.75 237.472656 204.773438 236.921875 204.820312 C 236.371094 204.871094 235.824219 204.945312 235.285156 205.046875 C 234.742188 205.148438 234.203125 205.277344 233.675781 205.429688 C 233.144531 205.585938 232.621094 205.765625 232.109375 205.96875 C 231.597656 206.171875 231.09375 206.402344 230.605469 206.65625 C 230.113281 206.910156 229.636719 207.1875 229.171875 207.484375 C 228.710938 207.785156 228.261719 208.105469 227.828125 208.449219 C 227.398438 208.792969 226.980469 209.15625 226.585938 209.539062 L 170.453125 265.671875 L 148.414062 243.628906 C 148.019531 243.246094 147.601562 242.882812 147.171875 242.539062 C 146.738281 242.195312 146.289062 241.875 145.828125 241.574219 C 145.363281 241.277344 144.886719 241 144.394531 240.746094 C 143.90625 240.492188 143.402344 240.265625 142.890625 240.058594 C 142.378906 239.855469 141.855469 239.675781 141.324219 239.523438 C 140.796875 239.367188 140.257812 239.238281 139.714844 239.136719 C 139.175781 239.035156 138.628906 238.960938 138.078125 238.914062 C 137.527344 238.863281 136.976562 238.839844 136.425781 238.847656 C 135.871094 238.851562 135.324219 238.882812 134.773438 238.941406 C 134.222656 239 133.679688 239.082031 133.140625 239.195312 C 132.597656 239.304688 132.0625 239.445312 131.535156 239.605469 C 131.007812 239.769531 130.492188 239.957031 129.980469 240.171875 C 129.472656 240.386719 128.976562 240.621094 128.488281 240.882812 C 128.003906 241.144531 127.53125 241.429688 127.070312 241.738281 C 126.613281 242.046875 126.171875 242.375 125.746094 242.726562 C 125.320312 243.078125 124.910156 243.449219 124.519531 243.839844 C 124.128906 244.226562 123.757812 244.636719 123.410156 245.0625 C 123.058594 245.488281 122.726562 245.933594 122.421875 246.390625 C 122.113281 246.847656 121.828125 247.320312 121.566406 247.808594 C 121.304688 248.292969 121.066406 248.789062 120.851562 249.300781 C 120.640625 249.808594 120.453125 250.328125 120.289062 250.855469 C 120.125 251.382812 119.988281 251.917969 119.875 252.457031 C 119.765625 252.996094 119.679688 253.542969 119.621094 254.089844 C 119.5625 254.640625 119.53125 255.191406 119.527344 255.742188 C 119.523438 256.296875 119.546875 256.847656 119.59375 257.394531 C 119.644531 257.945312 119.71875 258.492188 119.820312 259.035156 C 119.921875 259.578125 120.050781 260.113281 120.203125 260.644531 C 120.355469 261.175781 120.535156 261.695312 120.742188 262.207031 C 120.945312 262.722656 121.175781 263.222656 121.429688 263.714844 C 121.679688 264.203125 121.957031 264.679688 122.257812 265.144531 C 122.558594 265.609375 122.878906 266.054688 123.222656 266.488281 C 123.566406 266.921875 123.929688 267.335938 124.3125 267.734375 Z M 158.402344 301.824219 " fill-opacity="1" fill-rule="nonzero"/><path stroke-linecap="butt" transform="matrix(0.75, 0, 0, 0.75, 127.499996, 154.373486)" fill="none" stroke-linejoin="miter" d="M 0.00000516333 2.002019 L 160.000016 2.002019 " stroke="#ede2d9" stroke-width="4" stroke-opacity="1" stroke-miterlimit="4"/></svg>