<svg xmlns="http://www.w3.org/2000/svg" xmlns:xlink="http://www.w3.org/1999/xlink" width="500" zoomAndPan="magnify" viewBox="0 0 375 374.999991" height="500" preserveAspectRatio="xMidYMid meet" version="1.0"><path stroke-linecap="butt" transform="matrix(0.74807, -0.0537635, 0.0537635, 0.74807, 187.870816, 363.093492)" fill="none" stroke-linejoin="miter" d="M -0.00238826 2.00011 L 122.13474 2.000262 " stroke="#ede2d9" stroke-width="4" stroke-opacity="1" stroke-miterlimit="4"/><path fill="#ede2d9" d="M 187.5 60.238281 C 218.773438 60.238281 244.15625 85.621094 244.15625 116.894531 C 244.15625 148.171875 218.773438 173.554688 187.5 173.554688 C 156.226562 173.554688 130.84375 148.171875 130.84375 116.894531 C 130.84375 85.621094 156.226562 60.238281 187.5 60.238281 Z M 187.5 86.386719 C 170.660156 86.386719 156.992188 100.054688 156.992188 116.894531 C 156.992188 133.734375 170.660156 147.402344 187.5 147.402344 C 204.339844 147.402344 218.007812 133.734375 218.007812 116.894531 C 218.007812 100.054688 204.339844 86.386719 187.5 86.386719 Z M 187.5 86.386719 " fill-opacity="1" fill-rule="evenodd"/><path fill="#ede2d9" d="M 117.765625 217.136719 C 124.984375 217.136719 130.84375 222.996094 130.84375 230.210938 C 130.84375 237.429688 124.984375 243.285156 117.765625 243.285156 L 94.265625 243.285156 C 88.355469 243.285156 83.160156 247.261719 81.644531 252.996094 L 60.726562 331.445312 C 59.679688 335.367188 60.515625 339.554688 62.992188 342.777344 C 65.46875 346.003906 69.285156 347.886719 73.347656 347.886719 L 301.652344 347.886719 C 305.714844 347.886719 309.53125 346.003906 312.007812 342.777344 C 314.484375 339.554688 315.320312 335.367188 314.273438 331.445312 L 293.355469 252.996094 C 291.839844 247.261719 286.644531 243.285156 280.734375 243.285156 L 257.234375 243.285156 C 250.015625 243.285156 244.15625 237.429688 244.15625 230.210938 C 244.15625 222.996094 250.015625 217.136719 257.234375 217.136719 L 280.734375 217.136719 C 298.496094 217.136719 314.046875 229.078125 318.632812 246.25 L 339.554688 324.699219 C 342.691406 336.484375 340.179688 349.035156 332.753906 358.710938 C 325.328125 368.371094 313.839844 374.035156 301.652344 374.035156 L 73.347656 374.035156 C 61.160156 374.035156 49.671875 368.371094 42.246094 358.710938 C 34.820312 349.035156 32.308594 336.484375 35.445312 324.699219 L 56.367188 246.25 C 60.953125 229.078125 76.503906 217.136719 94.265625 217.136719 Z M 117.765625 217.136719 " fill-opacity="1" fill-rule="evenodd"/><path fill="#ede2d9" d="M 187.5 -0.78125 C 252.4375 -0.78125 305.175781 51.957031 305.175781 116.894531 C 305.175781 226.792969 195.867188 318.703125 195.867188 318.703125 C 191.023438 322.746094 183.976562 322.746094 179.132812 318.703125 C 179.132812 318.703125 69.824219 226.792969 69.824219 116.894531 C 69.824219 51.957031 122.5625 -0.78125 187.5 -0.78125 Z M 187.5 25.371094 C 136.976562 25.371094 95.976562 66.375 95.976562 116.894531 C 95.976562 198.519531 163.476562 268.738281 187.5 291.140625 C 211.539062 268.738281 279.023438 198.519531 279.023438 116.894531 C 279.023438 66.375 238.023438 25.371094 187.5 25.371094 Z M 187.5 25.371094 " fill-opacity="1" fill-rule="evenodd"/></svg>