<svg xmlns="http://www.w3.org/2000/svg" xmlns:xlink="http://www.w3.org/1999/xlink" width="500" zoomAndPan="magnify" viewBox="0 0 375 374.999991" height="500" preserveAspectRatio="xMidYMid meet" version="1.0"><defs><clipPath id="5dbb5fddc1"><path d="M 50 141 L 375 141 L 375 348.640625 L 50 348.640625 Z M 50 141 " clip-rule="nonzero"/></clipPath><clipPath id="1c6347ab61"><path d="M 0 26.140625 L 325 26.140625 L 325 234 L 0 234 Z M 0 26.140625 " clip-rule="nonzero"/></clipPath></defs><path stroke-linecap="butt" transform="matrix(0.738259, -0.132188, 0.132188, 0.738259, 172.005857, 334.911072)" fill="none" stroke-linejoin="miter" d="M -0.000717079 1.998692 L 103.58412 2.000428 " stroke="#ede2d9" stroke-width="4" stroke-opacity="1" stroke-miterlimit="4"/><g clip-path="url(#5dbb5fddc1)"><path fill="#ede2d9" d="M 375.070312 230.164062 L 321.929688 141.246094 L 268.785156 230.164062 L 304.589844 230.164062 C 287.1875 279.882812 239.414062 316.484375 183.351562 316.484375 C 142.570312 316.484375 103.835938 296.773438 79.726562 263.808594 C 74.445312 256.585938 64.304688 254.992188 57.082031 260.277344 C 49.859375 265.5625 48.285156 275.695312 53.566406 282.917969 C 68.183594 302.898438 87.492188 319.46875 109.414062 330.847656 C 132.082031 342.613281 157.648438 348.832031 183.351562 348.832031 C 205.03125 348.832031 226.078125 344.578125 245.902344 336.195312 C 265.035156 328.105469 282.21875 316.515625 296.976562 301.765625 C 311.726562 287.011719 323.308594 269.894531 331.40625 250.757812 C 334.261719 244.007812 336.628906 237.210938 338.519531 230.164062 L 375.070312 230.164062 " fill-opacity="1" fill-rule="nonzero"/></g><g clip-path="url(#1c6347ab61)"><path fill="#ede2d9" d="M 0.175781 144.824219 L 53.316406 233.746094 L 106.457031 144.824219 L 70.652344 144.824219 C 88.058594 95.105469 135.832031 58.507812 191.894531 58.507812 C 232.671875 58.507812 271.410156 78.21875 295.519531 111.179688 C 300.800781 118.40625 310.941406 119.996094 318.164062 114.710938 C 325.386719 109.429688 326.957031 99.296875 321.679688 92.070312 C 307.066406 72.09375 287.753906 55.519531 265.828125 44.144531 C 243.164062 32.375 217.59375 26.15625 191.894531 26.15625 C 170.207031 26.15625 149.164062 30.40625 129.34375 38.796875 C 110.207031 46.886719 93.027344 58.476562 78.273438 73.226562 C 63.519531 87.976562 51.9375 105.097656 43.839844 124.234375 C 40.984375 130.984375 38.617188 137.78125 36.726562 144.824219 L 0.175781 144.824219 " fill-opacity="1" fill-rule="nonzero"/></g></svg>