<svg xmlns="http://www.w3.org/2000/svg" xmlns:xlink="http://www.w3.org/1999/xlink" width="500" zoomAndPan="magnify" viewBox="0 0 375 374.999991" height="500" preserveAspectRatio="xMidYMid meet" version="1.0"><path stroke-linecap="butt" transform="matrix(0.74988, 0.0134291, -0.0134291, 0.74988, 103.430477, 197.289421)" fill="none" stroke-linejoin="miter" d="M -0.00170256 1.999873 L 112.146542 2.002227 " stroke="#ede2d9" stroke-width="4" stroke-opacity="1" stroke-miterlimit="4"/><path fill="#ede2d9" d="M 364.613281 29.460938 C 362.585938 28.546875 313.980469 7.574219 269.359375 29.65625 C 232.121094 48.082031 184.625 99.234375 199.914062 150.78125 C 195.011719 161.234375 191.355469 172.144531 188.804688 183.445312 C 184.558594 167.832031 163.851562 102.894531 109.363281 78.65625 C 47.300781 51.085938 5.617188 86.300781 3.917969 87.800781 C 1.109375 90.21875 -0.0664062 94.007812 0.847656 97.601562 C 1.175781 98.777344 30.96875 210.101562 150 210.101562 C 157.121094 210.101562 164.570312 209.710938 172.410156 208.859375 C 172.667969 208.859375 172.867188 208.730469 173.128906 208.730469 C 177.636719 216.503906 181.03125 224.800781 182.796875 233.425781 C 177.375 301.695312 180.574219 357.945312 180.574219 358.597656 C 180.902344 363.824219 185.214844 367.808594 190.375 367.808594 C 190.570312 367.808594 190.765625 367.808594 190.960938 367.808594 C 196.386719 367.484375 200.5 362.84375 200.175781 357.421875 C 200.175781 356.703125 195.925781 282.292969 205.660156 201.414062 C 207.035156 190.109375 209.710938 179.332031 213.699219 168.878906 C 213.960938 168.878906 214.21875 169.007812 214.546875 169.007812 C 214.808594 169.007812 215.070312 169.007812 215.332031 169.007812 C 216.898438 168.878906 374.671875 155.617188 370.621094 37.953125 C 370.492188 34.230469 368.207031 30.832031 364.808594 29.332031 Z M 21.820312 99.105469 C 32.992188 92.179688 62.066406 79.046875 101.460938 96.554688 C 132.097656 110.144531 150.589844 140.457031 160.648438 163.195312 C 129.09375 133.792969 91.265625 116.546875 88.71875 115.4375 C 83.820312 113.214844 78.003906 115.4375 75.785156 120.402344 C 73.5625 125.367188 75.785156 131.117188 80.75 133.335938 C 81.402344 133.664062 129.355469 155.484375 159.667969 190.304688 C 62.914062 195.53125 29.660156 121.707031 21.820312 99.105469 Z M 223.433594 148.496094 C 238.980469 121.839844 264.199219 98.1875 299.609375 77.085938 C 304.246094 74.34375 305.75 68.269531 303.003906 63.628906 C 300.261719 58.992188 294.1875 57.488281 289.546875 60.230469 C 258.320312 78.851562 234.277344 99.496094 217.160156 122.363281 C 221.929688 88.519531 255.96875 58.140625 278.113281 47.164062 C 290.199219 41.21875 302.875 39.195312 314.4375 39.195312 C 329.988281 39.195312 343.574219 42.789062 350.894531 45.207031 C 348.671875 124.453125 254.464844 144.117188 223.367188 148.429688 Z M 223.433594 148.496094 " fill-opacity="1" fill-rule="nonzero"/></svg>