<svg xmlns="http://www.w3.org/2000/svg" xmlns:xlink="http://www.w3.org/1999/xlink" width="310" zoomAndPan="magnify" viewBox="0 0 232.5 187.499995" height="250" preserveAspectRatio="xMidYMid meet" version="1.0"><defs><clipPath id="209a4a6f2f"><path d="M 34.734375 0 L 185 0 L 185 179.519531 L 34.734375 179.519531 Z M 34.734375 0 " clip-rule="nonzero"/></clipPath><clipPath id="4aeebb1843"><path d="M 92 62.199219 L 197.050781 62.199219 L 197.050781 157.757812 L 92 157.757812 Z M 92 62.199219 " clip-rule="nonzero"/></clipPath><clipPath id="296a1242ee"><path d="M 74 159 L 158 159 L 158 187 L 74 187 Z M 74 159 " clip-rule="nonzero"/></clipPath></defs><g clip-path="url(#209a4a6f2f)"><path fill="#38220f" d="M 41.648438 40.222656 C 41.433594 39.984375 41.089844 39.464844 41.1875 38.722656 L 42.890625 25.382812 C 43.011719 24.433594 43.824219 23.71875 44.78125 23.71875 L 174.558594 23.71875 C 175.511719 23.71875 176.324219 24.433594 176.445312 25.382812 L 178.144531 38.722656 C 178.242188 39.464844 177.902344 39.984375 177.6875 40.226562 C 177.472656 40.464844 177.007812 40.871094 176.257812 40.871094 L 43.078125 40.871094 C 42.328125 40.871094 41.859375 40.464844 41.648438 40.222656 Z M 62.101562 6.289062 L 157.230469 6.289062 L 162.988281 17.519531 L 56.34375 17.519531 Z M 175.613281 173.058594 L 158.984375 173.058594 L 164.128906 116.007812 C 164.28125 114.304688 163.023438 112.796875 161.316406 112.644531 C 159.597656 112.492188 158.105469 113.746094 157.953125 115.453125 L 152.757812 173.058594 L 66.574219 173.058594 L 64.015625 144.675781 L 77.363281 144.675781 C 79.074219 144.675781 80.460938 143.289062 80.460938 141.574219 C 80.460938 139.863281 79.074219 138.476562 77.363281 138.476562 L 63.457031 138.476562 L 62.53125 128.1875 L 72.363281 128.1875 C 74.078125 128.1875 75.464844 126.800781 75.464844 125.085938 C 75.464844 123.375 74.078125 121.988281 72.363281 121.988281 L 61.972656 121.988281 L 59.835938 98.273438 L 59.152344 90.71875 L 88.128906 90.71875 C 89.84375 90.71875 91.230469 89.332031 91.230469 87.617188 C 91.230469 85.90625 89.84375 84.515625 88.128906 84.515625 L 58.59375 84.515625 L 57.667969 74.234375 L 101.785156 74.234375 C 103.5 74.234375 104.886719 72.847656 104.886719 71.132812 C 104.886719 69.421875 103.5 68.03125 101.785156 68.03125 L 57.109375 68.03125 L 55.21875 47.070312 L 164.117188 47.070312 L 163.652344 52.203125 C 163.5 53.910156 164.757812 55.414062 166.460938 55.570312 C 168.148438 55.6875 169.675781 54.464844 169.832031 52.761719 L 170.34375 47.070312 L 176.257812 47.070312 C 178.585938 47.070312 180.800781 46.066406 182.339844 44.320312 C 183.878906 42.574219 184.59375 40.25 184.296875 37.941406 L 182.597656 24.597656 C 182.078125 20.558594 178.621094 17.519531 174.558594 17.519531 L 169.957031 17.519531 L 161.886719 1.773438 C 161.355469 0.738281 160.289062 0.0859375 159.125 0.0859375 L 60.207031 0.0859375 C 59.042969 0.0859375 57.980469 0.738281 57.449219 1.773438 L 49.375 17.519531 L 44.78125 17.519531 C 40.710938 17.519531 37.253906 20.5625 36.738281 24.597656 L 35.035156 37.941406 C 34.742188 40.25 35.457031 42.574219 36.992188 44.320312 C 38.53125 46.066406 40.75 47.070312 43.078125 47.070312 L 48.992188 47.070312 L 60.347656 173.058594 L 43.722656 173.058594 C 42.007812 173.058594 40.621094 174.445312 40.621094 176.15625 C 40.621094 177.871094 42.007812 179.257812 43.722656 179.257812 L 175.613281 179.257812 C 177.328125 179.257812 178.714844 177.871094 178.714844 176.15625 C 178.714844 174.445312 177.328125 173.058594 175.613281 173.058594 " fill-opacity="1" fill-rule="nonzero"/></g><g clip-path="url(#4aeebb1843)"><path fill="#38220f" d="M 196.261719 70.128906 C 195.050781 67.84375 192.898438 66.25 190.355469 65.753906 L 179.769531 63.703125 C 179.75 63.699219 179.726562 63.695312 179.703125 63.691406 L 179.148438 63.582031 C 167.636719 61.355469 155.792969 62.480469 144.90625 66.847656 L 107.59375 81.808594 C 106.003906 82.445312 105.234375 84.25 105.871094 85.839844 C 106.507812 87.433594 108.316406 88.203125 109.902344 87.5625 L 147.210938 72.601562 C 155.742188 69.183594 164.925781 67.96875 174 69.054688 L 171.921875 72.253906 L 144.214844 82.800781 C 142.617188 83.410156 141.8125 85.203125 142.421875 86.796875 C 142.890625 88.035156 144.070312 88.796875 145.320312 88.796875 C 145.6875 88.796875 146.058594 88.730469 146.421875 88.59375 L 175.074219 77.6875 C 175.691406 77.453125 176.214844 77.027344 176.574219 76.476562 L 180.648438 70.191406 L 189.175781 71.84375 C 190.121094 72.027344 190.585938 72.667969 190.78125 73.03125 C 190.972656 73.398438 191.242188 74.144531 190.863281 75.027344 C 187.539062 82.785156 181.070312 88.859375 173.121094 91.691406 L 128.605469 107.550781 L 134.484375 93.449219 C 134.964844 92.296875 134.710938 90.972656 133.839844 90.082031 C 132.964844 89.195312 131.652344 88.910156 130.492188 89.371094 L 94.074219 103.691406 C 92.480469 104.316406 91.699219 106.117188 92.328125 107.710938 C 92.953125 109.304688 94.746094 110.09375 96.34375 109.460938 L 125.945312 97.820312 L 104.953125 148.140625 C 100.871094 149.617188 96.621094 151.101562 95.410156 151.445312 C 94.203125 151.539062 93.113281 152.34375 92.710938 153.566406 C 92.335938 154.695312 92.644531 155.945312 93.496094 156.773438 C 94.078125 157.335938 94.449219 157.695312 95.316406 157.695312 C 96.839844 157.695312 99.902344 156.582031 108.351562 153.503906 C 109.164062 153.207031 109.820312 152.585938 110.152344 151.785156 L 125.378906 115.28125 C 125.402344 115.273438 125.425781 115.265625 125.453125 115.257812 L 175.199219 97.535156 C 184.773438 94.125 192.558594 86.8125 196.5625 77.46875 C 197.582031 75.089844 197.472656 72.417969 196.261719 70.128906 " fill-opacity="1" fill-rule="nonzero"/></g><g clip-path="url(#296a1242ee)"><path stroke-linecap="butt" transform="matrix(0.747533, -0.0265671, 0.0265671, 0.747533, 91.010017, 176.359686)" fill="none" stroke-linejoin="miter" d="M -0.000904136 2.000925 L 66.718573 1.999727 " stroke="#38220f" stroke-width="4" stroke-opacity="1" stroke-miterlimit="4"/></g></svg>