<svg xmlns="http://www.w3.org/2000/svg" xmlns:xlink="http://www.w3.org/1999/xlink" width="310" zoomAndPan="magnify" viewBox="0 0 232.5 187.499995" height="250" preserveAspectRatio="xMidYMid meet" version="1.0"><defs><clipPath id="a78a7dac2f"><path d="M 32.621094 57 L 201 57 L 201 183.261719 L 32.621094 183.261719 Z M 32.621094 57 " clip-rule="nonzero"/></clipPath></defs><path fill="#38220f" d="M 110.730469 26.902344 C 109.609375 28.390625 109.902344 30.503906 111.390625 31.628906 C 116.007812 35.117188 114.851562 37.945312 110.371094 45.136719 C 106.578125 51.234375 101.378906 59.578125 109.019531 67.71875 C 109.683594 68.425781 110.578125 68.78125 111.476562 68.78125 C 112.304688 68.78125 113.136719 68.480469 113.785156 67.867188 C 115.144531 66.59375 115.210938 64.457031 113.9375 63.101562 C 110.234375 59.15625 111.75 55.683594 116.097656 48.707031 C 120.027344 42.398438 125.40625 33.761719 115.457031 26.246094 C 113.96875 25.121094 111.855469 25.417969 110.730469 26.902344 Z M 110.730469 26.902344 " fill-opacity="1" fill-rule="nonzero"/><path fill="#38220f" d="M 125.210938 38.707031 C 125.875 39.414062 126.773438 39.773438 127.671875 39.773438 C 128.5 39.773438 129.328125 39.46875 129.980469 38.859375 C 131.339844 37.582031 131.40625 35.449219 130.128906 34.089844 C 127.035156 30.792969 128.277344 27.976562 132.085938 21.863281 C 135.433594 16.484375 140.496094 8.363281 131.421875 1.507812 C 129.9375 0.386719 127.820312 0.683594 126.699219 2.167969 C 125.574219 3.65625 125.871094 5.769531 127.355469 6.894531 C 131.019531 9.660156 130.472656 11.691406 126.359375 18.296875 C 122.941406 23.785156 118.257812 31.300781 125.210938 38.707031 Z M 125.210938 38.707031 " fill-opacity="1" fill-rule="nonzero"/><path fill="#38220f" d="M 104 39.382812 C 104.664062 40.089844 105.5625 40.445312 106.460938 40.445312 C 107.289062 40.445312 108.117188 40.144531 108.769531 39.53125 C 110.128906 38.257812 110.195312 36.121094 108.917969 34.765625 C 105.671875 31.308594 106.964844 28.371094 110.925781 22.011719 C 114.359375 16.496094 119.550781 8.164062 110.265625 1.152344 C 108.78125 0.0273438 106.664062 0.324219 105.542969 1.808594 C 104.417969 3.296875 104.714844 5.410156 106.199219 6.535156 C 110.050781 9.441406 109.484375 11.5625 105.199219 18.445312 C 101.6875 24.082031 96.882812 31.800781 104 39.382812 Z M 104 39.382812 " fill-opacity="1" fill-rule="nonzero"/><g clip-path="url(#a78a7dac2f)"><path fill="#38220f" d="M 177.066406 73.035156 C 176.976562 72.507812 176.882812 71.984375 176.78125 71.460938 C 176.429688 66.230469 169.101562 63.71875 162.691406 62.109375 C 155.097656 60.207031 144.683594 58.789062 132.578125 58.007812 C 130.714844 57.898438 129.113281 59.300781 128.992188 61.15625 C 128.875 63.015625 130.285156 64.621094 132.144531 64.742188 C 155.746094 66.261719 166.855469 69.855469 169.59375 71.835938 C 168.257812 72.789062 164.109375 74.914062 152.222656 76.828125 C 141.027344 78.625 126.546875 79.617188 111.457031 79.617188 C 96.363281 79.617188 81.886719 78.625 70.691406 76.828125 C 58.800781 74.914062 54.65625 72.789062 53.320312 71.835938 C 56.078125 69.835938 67.328125 66.207031 91.265625 64.710938 C 93.125 64.59375 94.539062 62.992188 94.421875 61.132812 C 94.304688 59.273438 92.707031 57.859375 90.84375 57.976562 C 78.609375 58.742188 68.074219 60.15625 60.382812 62.070312 C 50.515625 64.523438 46.113281 67.542969 46.113281 71.855469 C 46.113281 72.058594 46.128906 72.257812 46.148438 72.453125 C 45.234375 77.566406 44.765625 82.804688 44.765625 88.050781 C 44.765625 109.925781 52.734375 129.695312 65.511719 143.710938 C 49.800781 146.558594 32.621094 151.890625 32.621094 161.585938 C 32.621094 168.355469 40.933594 173.792969 57.335938 177.746094 C 71.855469 181.246094 91.113281 183.175781 111.554688 183.175781 C 131.996094 183.175781 151.253906 181.246094 165.773438 177.746094 C 182.175781 173.792969 190.488281 168.355469 190.488281 161.585938 C 190.488281 151.914062 173.449219 146.582031 157.597656 143.710938 C 160.039062 141.035156 162.300781 138.144531 164.371094 135.070312 C 165.953125 135.304688 167.535156 135.425781 169.105469 135.425781 C 175.777344 135.425781 182.257812 133.324219 187.746094 129.3125 C 194.582031 124.316406 199.066406 116.957031 200.371094 108.585938 C 202.890625 92.382812 192.609375 77.089844 177.066406 73.035156 Z M 52.03125 78.847656 C 55.445312 80.480469 60.394531 81.855469 67.039062 83.046875 C 78.9375 85.1875 94.710938 86.363281 111.457031 86.363281 C 128.203125 86.363281 143.976562 85.1875 155.871094 83.046875 C 162.636719 81.832031 167.648438 80.433594 171.070312 78.757812 C 171.417969 81.835938 171.597656 84.941406 171.597656 88.050781 C 171.597656 126.738281 144.664062 158.214844 111.554688 158.214844 C 78.445312 158.214844 51.511719 126.738281 51.511719 88.050781 C 51.511719 84.96875 51.6875 81.894531 52.03125 78.847656 Z M 183.742188 161.585938 C 183.742188 162.945312 180.230469 167.320312 164.195312 171.1875 C 150.175781 174.566406 131.480469 176.429688 111.554688 176.429688 C 91.628906 176.429688 72.9375 174.566406 58.914062 171.1875 C 42.878906 167.320312 39.367188 162.945312 39.367188 161.585938 C 39.367188 159.820312 44.96875 153.863281 69.851562 149.8125 C 70.34375 149.730469 70.792969 149.539062 71.183594 149.277344 C 82.40625 159.109375 96.398438 164.960938 111.554688 164.960938 C 126.625 164.960938 140.539062 159.179688 151.726562 149.453125 C 151.980469 149.558594 152.242188 149.648438 152.523438 149.691406 C 175.265625 153.304688 183.742188 158.90625 183.742188 161.585938 Z M 193.703125 107.550781 C 191.789062 119.855469 181.140625 128.675781 169.054688 128.675781 C 168.785156 128.675781 168.519531 128.667969 168.25 128.660156 C 174.644531 116.867188 178.34375 102.945312 178.34375 88.050781 C 178.34375 85.5 178.230469 82.953125 178.011719 80.421875 C 188.738281 84.550781 195.542969 95.742188 193.703125 107.550781 Z M 193.703125 107.550781 " fill-opacity="1" fill-rule="nonzero"/></g><path fill="#38220f" d="M 103.71875 151.011719 C 105.578125 151.011719 107.089844 149.503906 107.089844 147.640625 C 107.089844 145.777344 105.578125 144.265625 103.71875 144.265625 C 91.183594 144.265625 73.894531 127.652344 71.171875 115.957031 C 70.75 114.144531 68.933594 113.015625 67.121094 113.4375 C 65.304688 113.859375 64.179688 115.671875 64.601562 117.488281 C 68.621094 134.753906 90.042969 151.011719 103.71875 151.011719 Z M 103.71875 151.011719 " fill-opacity="1" fill-rule="nonzero"/><path stroke-linecap="butt" transform="matrix(0.748005, 0, 0, 0.748005, 117.759641, 176.678918)" fill="none" stroke-linejoin="miter" d="M -0.00244388 2.00114 L 42.396781 2.00114 " stroke="#38220f" stroke-width="4" stroke-opacity="1" stroke-miterlimit="4"/></svg>