<svg xmlns="http://www.w3.org/2000/svg" xmlns:xlink="http://www.w3.org/1999/xlink" width="310" zoomAndPan="magnify" viewBox="0 0 232.5 187.499995" height="250" preserveAspectRatio="xMidYMid meet" version="1.0"><defs><clipPath id="119fbb8ad3"><path d="M 167.046875 26.320312 L 186.148438 26.320312 L 186.148438 46.890625 L 167.046875 46.890625 Z M 167.046875 26.320312 " clip-rule="nonzero"/></clipPath><clipPath id="471718ed9a"><path d="M 45.523438 131.460938 L 110.285156 131.460938 L 110.285156 186.957031 L 45.523438 186.957031 Z M 45.523438 131.460938 " clip-rule="nonzero"/></clipPath></defs><g clip-path="url(#119fbb8ad3)"><path fill="#38220f" d="M 180.246094 46.605469 C 179.316406 46.605469 178.398438 46.179688 177.800781 45.375 C 176.808594 44.027344 177.09375 42.125 178.441406 41.128906 C 179.515625 40.335938 180.195312 39.207031 180.355469 37.941406 C 180.511719 36.714844 180.152344 35.496094 179.351562 34.507812 C 177.589844 32.335938 174.292969 31.949219 172.003906 33.640625 C 170.65625 34.636719 168.757812 34.347656 167.761719 33 C 166.765625 31.652344 167.050781 29.753906 168.398438 28.757812 C 173.257812 25.167969 180.289062 26.03125 184.066406 30.683594 C 185.921875 32.972656 186.742188 35.820312 186.375 38.707031 C 186.003906 41.628906 184.464844 44.222656 182.046875 46.011719 C 181.503906 46.414062 180.871094 46.605469 180.246094 46.605469 " fill-opacity="1" fill-rule="nonzero"/></g><path fill="#38220f" d="M 167.15625 36.480469 C 166.226562 36.480469 165.308594 36.054688 164.714844 35.25 C 163.71875 33.902344 164.003906 32.003906 165.351562 31.007812 L 168.394531 28.753906 C 169.746094 27.757812 171.644531 28.042969 172.640625 29.394531 C 173.636719 30.742188 173.351562 32.640625 172.003906 33.636719 L 168.957031 35.886719 C 168.414062 36.289062 167.785156 36.480469 167.15625 36.480469 " fill-opacity="1" fill-rule="nonzero"/><path fill="#38220f" d="M 167.15625 56.273438 C 166.226562 56.273438 165.308594 55.847656 164.714844 55.042969 C 163.71875 53.695312 164.003906 51.792969 165.351562 50.800781 L 178.441406 41.128906 C 179.789062 40.136719 181.691406 40.421875 182.683594 41.769531 C 183.679688 43.117188 183.394531 45.015625 182.046875 46.011719 L 168.957031 55.679688 C 168.414062 56.082031 167.785156 56.273438 167.15625 56.273438 " fill-opacity="1" fill-rule="nonzero"/><path fill="#38220f" d="M 157.777344 130.84375 L 100.769531 130.84375 C 99.90625 130.84375 99.082031 130.476562 98.507812 129.832031 C 97.933594 129.1875 97.660156 128.328125 97.753906 127.46875 C 99.503906 112.035156 90.445312 97.902344 90.351562 97.761719 C 89.9375 97.125 89.777344 96.351562 89.90625 95.601562 C 89.933594 95.441406 92.617188 79.492188 93.507812 66.992188 C 93.226562 62.3125 91.476562 58.765625 88.304688 56.449219 C 87.523438 55.878906 87.058594 54.96875 87.058594 54 L 87.058594 12.449219 C 87.058594 5.605469 92.628906 0.0351562 99.472656 0.0351562 L 157.777344 0.0351562 C 164.621094 0.0351562 170.191406 5.605469 170.191406 12.449219 L 170.191406 63.175781 C 170.191406 64.851562 168.832031 66.210938 167.15625 66.210938 C 165.480469 66.210938 164.121094 64.851562 164.121094 63.175781 L 164.121094 12.449219 C 164.121094 8.949219 161.273438 6.105469 157.777344 6.105469 L 99.472656 6.105469 C 95.976562 6.105469 93.128906 8.949219 93.128906 12.449219 L 93.128906 52.542969 C 96.09375 55.136719 99.203125 59.566406 99.578125 66.859375 C 99.585938 66.980469 99.585938 67.105469 99.578125 67.226562 C 98.804688 78.261719 96.714844 91.5625 96.074219 95.488281 C 98.148438 99.023438 104.464844 110.960938 104.027344 124.773438 L 157.777344 124.773438 C 161.273438 124.773438 164.121094 121.929688 164.121094 118.429688 L 164.121094 113.078125 C 164.121094 111.402344 165.480469 110.042969 167.15625 110.042969 C 168.832031 110.042969 170.191406 111.402344 170.191406 113.078125 L 170.191406 118.429688 C 170.191406 125.277344 164.621094 130.84375 157.777344 130.84375 " fill-opacity="1" fill-rule="nonzero"/><path fill="#38220f" d="M 103.5 168.414062 C 102.90625 168.414062 102.308594 168.238281 101.78125 167.878906 C 100.402344 166.929688 100.050781 165.039062 101.003906 163.65625 L 105.921875 156.507812 C 106.28125 155.988281 106.789062 155.59375 107.382812 155.378906 C 107.648438 155.28125 134.410156 145.304688 143.097656 127.441406 C 143.828125 125.9375 145.644531 125.308594 147.152344 126.042969 C 148.660156 126.773438 149.289062 128.589844 148.554688 130.097656 C 139.65625 148.394531 115.511719 158.707031 110.386719 160.722656 L 106.003906 167.097656 C 105.414062 167.953125 104.464844 168.414062 103.5 168.414062 " fill-opacity="1" fill-rule="nonzero"/><path fill="#38220f" d="M 64.671875 139.550781 C 64.03125 139.550781 63.378906 139.347656 62.828125 138.925781 C 61.5 137.90625 61.246094 136 62.265625 134.671875 L 66.109375 129.660156 C 66.214844 122.097656 66.832031 95.421875 70.277344 88.742188 C 73.898438 81.703125 78.441406 70.148438 79.53125 55.089844 C 79.679688 52.980469 80.886719 51.078125 82.753906 50.007812 C 84.6875 48.898438 87.035156 48.832031 89.03125 49.816406 C 90.035156 50.3125 90.996094 50.898438 91.890625 51.554688 C 95.15625 53.9375 99.148438 58.535156 99.578125 66.859375 C 99.585938 66.980469 99.585938 67.105469 99.578125 67.226562 C 98.804688 78.261719 96.714844 91.558594 96.074219 95.488281 C 98.316406 99.304688 105.507812 112.941406 103.785156 128.152344 C 103.554688 130.222656 103.152344 132.28125 102.59375 134.269531 C 102.140625 135.882812 100.464844 136.824219 98.851562 136.371094 C 97.238281 135.917969 96.296875 134.242188 96.75 132.628906 C 97.222656 130.957031 97.558594 129.222656 97.753906 127.472656 C 99.503906 112.035156 90.445312 97.902344 90.351562 97.761719 C 89.9375 97.125 89.777344 96.351562 89.90625 95.601562 C 89.933594 95.441406 92.617188 79.492188 93.507812 66.992188 C 93.226562 62.3125 91.476562 58.765625 88.304688 56.449219 C 87.691406 56 87.03125 55.597656 86.339844 55.261719 C 86.078125 55.128906 85.855469 55.226562 85.773438 55.273438 C 85.59375 55.375 85.585938 55.484375 85.585938 55.523438 C 84.421875 71.605469 79.554688 83.976562 75.671875 91.519531 C 73.378906 95.96875 72.304688 117.9375 72.164062 130.742188 C 72.15625 131.394531 71.9375 132.03125 71.539062 132.554688 L 67.085938 138.363281 C 66.488281 139.140625 65.585938 139.550781 64.671875 139.550781 " fill-opacity="1" fill-rule="nonzero"/><path fill="#38220f" d="M 169.699219 99.136719 C 169.253906 99.136719 168.800781 99.238281 168.375 99.445312 L 164.449219 101.359375 C 163.421875 101.859375 162.652344 102.730469 162.277344 103.8125 C 161.90625 104.890625 161.976562 106.050781 162.476562 107.078125 L 162.761719 107.660156 C 163.792969 109.78125 166.359375 110.664062 168.480469 109.628906 L 171.910156 107.957031 C 172.769531 107.539062 173.417969 106.808594 173.730469 105.902344 C 174.042969 104.996094 173.984375 104.023438 173.5625 103.164062 L 172.433594 100.84375 C 171.90625 99.765625 170.824219 99.136719 169.699219 99.136719 Z M 166.621094 116.128906 C 162.789062 116.128906 159.097656 113.992188 157.304688 110.316406 L 157.019531 109.738281 C 155.8125 107.253906 155.640625 104.445312 156.539062 101.832031 C 157.441406 99.21875 159.304688 97.113281 161.789062 95.902344 L 165.714844 93.988281 C 170.226562 91.789062 175.691406 93.671875 177.886719 98.183594 L 179.019531 100.503906 C 180.148438 102.824219 180.308594 105.441406 179.46875 107.878906 C 178.628906 110.316406 176.886719 112.285156 174.570312 113.414062 L 171.140625 115.085938 C 169.683594 115.792969 168.140625 116.128906 166.621094 116.128906 " fill-opacity="1" fill-rule="nonzero"/><path fill="#38220f" d="M 169.699219 82.394531 C 169.253906 82.394531 168.800781 82.492188 168.375 82.699219 L 164.449219 84.613281 C 163.421875 85.113281 162.652344 85.984375 162.277344 87.0625 C 161.90625 88.144531 161.976562 89.304688 162.476562 90.332031 L 162.761719 90.914062 C 163.261719 91.941406 164.132812 92.710938 165.210938 93.082031 C 166.292969 93.457031 167.453125 93.386719 168.480469 92.882812 L 171.910156 91.210938 C 173.6875 90.34375 174.429688 88.195312 173.5625 86.417969 L 172.433594 84.097656 C 171.90625 83.019531 170.824219 82.394531 169.699219 82.394531 Z M 166.613281 99.390625 C 165.480469 99.390625 164.339844 99.203125 163.234375 98.820312 C 160.621094 97.921875 158.515625 96.054688 157.304688 93.570312 L 157.019531 92.992188 C 155.8125 90.507812 155.640625 87.699219 156.539062 85.085938 C 157.441406 82.472656 159.304688 80.367188 161.789062 79.15625 L 165.714844 77.242188 C 170.226562 75.042969 175.691406 76.925781 177.886719 81.4375 L 179.019531 83.757812 C 181.351562 88.542969 179.355469 94.335938 174.570312 96.667969 L 171.140625 98.339844 C 169.707031 99.039062 168.164062 99.390625 166.613281 99.390625 " fill-opacity="1" fill-rule="nonzero"/><path fill="#38220f" d="M 169.703125 65.644531 C 169.246094 65.644531 168.796875 65.75 168.375 65.953125 L 164.449219 67.867188 C 163.421875 68.367188 162.652344 69.238281 162.277344 70.316406 C 161.90625 71.398438 161.976562 72.558594 162.476562 73.585938 L 162.761719 74.167969 C 163.261719 75.191406 164.132812 75.964844 165.210938 76.335938 C 166.292969 76.710938 167.453125 76.636719 168.480469 76.136719 L 171.910156 74.464844 C 173.6875 73.597656 174.429688 71.449219 173.5625 69.671875 L 172.433594 67.351562 C 172.078125 66.625 171.460938 66.074219 170.695312 65.8125 C 170.371094 65.699219 170.035156 65.644531 169.703125 65.644531 Z M 166.613281 82.644531 C 165.480469 82.644531 164.339844 82.457031 163.234375 82.074219 C 160.621094 81.175781 158.515625 79.3125 157.304688 76.824219 L 157.019531 76.246094 C 155.8125 73.761719 155.640625 70.953125 156.539062 68.339844 C 157.441406 65.726562 159.304688 63.621094 161.789062 62.410156 L 165.714844 60.5 C 167.902344 59.429688 170.371094 59.28125 172.671875 60.074219 C 174.96875 60.867188 176.824219 62.503906 177.890625 64.691406 L 179.019531 67.011719 C 181.351562 71.796875 179.355469 77.589844 174.570312 79.921875 L 171.140625 81.59375 C 169.707031 82.292969 168.164062 82.644531 166.613281 82.644531 " fill-opacity="1" fill-rule="nonzero"/><g clip-path="url(#471718ed9a)"><path fill="#38220f" d="M 98.636719 186.957031 C 98.007812 186.957031 97.375 186.761719 96.828125 186.355469 C 95.484375 185.355469 95.203125 183.457031 96.203125 182.109375 L 103.519531 172.273438 C 104.335938 171.171875 104.109375 169.613281 103.007812 168.796875 L 61.785156 138.148438 C 61.253906 137.753906 60.597656 137.585938 59.941406 137.683594 C 59.285156 137.78125 58.707031 138.125 58.308594 138.65625 L 50.996094 148.496094 C 49.996094 149.84375 48.09375 150.121094 46.75 149.121094 C 45.402344 148.121094 45.125 146.222656 46.125 144.875 L 53.441406 135.035156 C 54.804688 133.203125 56.796875 132.011719 59.058594 131.679688 C 61.316406 131.34375 63.570312 131.914062 65.40625 133.277344 L 106.628906 163.925781 C 110.414062 166.742188 111.203125 172.109375 108.390625 175.890625 L 101.074219 185.730469 C 100.480469 186.53125 99.566406 186.957031 98.636719 186.957031 " fill-opacity="1" fill-rule="nonzero"/></g><path fill="#38220f" d="M 133.863281 18.792969 L 123.382812 18.792969 C 121.707031 18.792969 120.347656 17.433594 120.347656 15.757812 C 120.347656 14.082031 121.707031 12.722656 123.382812 12.722656 L 133.863281 12.722656 C 135.539062 12.722656 136.898438 14.082031 136.898438 15.757812 C 136.898438 17.433594 135.539062 18.792969 133.863281 18.792969 " fill-opacity="1" fill-rule="nonzero"/><path fill="#38220f" d="M 166.378906 30.515625 L 90.089844 30.515625 C 88.414062 30.515625 87.058594 29.15625 87.058594 27.480469 C 87.058594 25.804688 88.414062 24.449219 90.089844 24.449219 L 166.378906 24.449219 C 168.054688 24.449219 169.414062 25.804688 169.414062 27.480469 C 169.414062 29.15625 168.054688 30.515625 166.378906 30.515625 " fill-opacity="1" fill-rule="nonzero"/><path fill="#38220f" d="M 159.121094 109.515625 L 97.832031 109.515625 C 96.15625 109.515625 94.796875 108.15625 94.796875 106.480469 C 94.796875 104.804688 96.15625 103.445312 97.832031 103.445312 L 159.121094 103.445312 C 160.800781 103.445312 162.160156 104.804688 162.160156 106.480469 C 162.160156 108.15625 160.800781 109.515625 159.121094 109.515625 " fill-opacity="1" fill-rule="nonzero"/><path fill="#38220f" d="M 62.132812 146.195312 C 59.851562 146.195312 57.996094 148.050781 57.996094 150.332031 C 57.996094 152.613281 59.851562 154.46875 62.132812 154.46875 C 64.414062 154.46875 66.273438 152.613281 66.273438 150.332031 C 66.273438 148.050781 64.414062 146.195312 62.132812 146.195312 " fill-opacity="1" fill-rule="nonzero"/><path fill="#38220f" d="M 109.679688 55.636719 L 105.890625 55.636719 L 105.890625 45.09375 L 116.429688 45.09375 L 116.429688 48.882812 L 109.679688 48.882812 L 109.679688 55.636719 " fill-opacity="1" fill-rule="nonzero"/><path fill="#38220f" d="M 150.582031 55.636719 L 146.792969 55.636719 L 146.792969 48.882812 L 140.039062 48.882812 L 140.039062 45.09375 L 150.582031 45.09375 L 150.582031 55.636719 " fill-opacity="1" fill-rule="nonzero"/><path fill="#38220f" d="M 116.429688 89.785156 L 105.890625 89.785156 L 105.890625 79.246094 L 109.679688 79.246094 L 109.679688 86 L 116.429688 86 L 116.429688 89.785156 " fill-opacity="1" fill-rule="nonzero"/><path fill="#38220f" d="M 150.582031 89.785156 L 140.039062 89.785156 L 140.039062 86 L 146.792969 86 L 146.792969 79.246094 L 150.582031 79.246094 L 150.582031 89.785156 " fill-opacity="1" fill-rule="nonzero"/><path fill="#38220f" d="M 122.355469 61.558594 L 117.054688 61.558594 L 117.054688 56.257812 L 122.355469 56.257812 Z M 113.265625 52.472656 L 113.265625 65.347656 L 126.144531 65.347656 L 126.144531 52.472656 L 113.265625 52.472656 " fill-opacity="1" fill-rule="nonzero"/><path fill="#38220f" d="M 139.417969 61.558594 L 134.117188 61.558594 L 134.117188 56.257812 L 139.417969 56.257812 Z M 130.328125 52.472656 L 130.328125 65.347656 L 143.203125 65.347656 L 143.203125 52.472656 L 130.328125 52.472656 " fill-opacity="1" fill-rule="nonzero"/><path fill="#38220f" d="M 122.355469 78.625 L 117.054688 78.625 L 117.054688 73.320312 L 122.355469 73.320312 Z M 113.265625 69.53125 L 113.265625 82.410156 L 126.144531 82.410156 L 126.144531 69.53125 L 113.265625 69.53125 " fill-opacity="1" fill-rule="nonzero"/><path fill="#38220f" d="M 138.765625 78.21875 L 138.765625 82.511719 L 143.058594 82.511719 L 143.058594 73.929688 L 138.765625 73.929688 L 138.765625 69.636719 L 130.183594 69.636719 L 130.183594 73.929688 L 134.476562 73.929688 L 134.476562 78.21875 L 138.765625 78.21875 " fill-opacity="1" fill-rule="nonzero"/><path fill="#38220f" d="M 130.183594 82.511719 L 134.476562 82.511719 L 134.476562 78.21875 L 130.183594 78.21875 L 130.183594 82.511719 " fill-opacity="1" fill-rule="nonzero"/><path stroke-linecap="butt" transform="matrix(0.747533, -0.0265671, 0.0265671, 0.747533, 103.639362, 127.456402)" fill="none" stroke-linejoin="miter" d="M -0.00153482 2.002162 L 66.717942 2.000963 " stroke="#38220f" stroke-width="4" stroke-opacity="1" stroke-miterlimit="4"/></svg>