<svg xmlns="http://www.w3.org/2000/svg" xmlns:xlink="http://www.w3.org/1999/xlink" width="310" zoomAndPan="magnify" viewBox="0 0 232.5 187.499995" height="250" preserveAspectRatio="xMidYMid meet" version="1.0"><defs><clipPath id="4694fe7e7a"><path d="M 24.183594 1.683594 L 207.445312 1.683594 L 207.445312 184.945312 L 24.183594 184.945312 Z M 24.183594 1.683594 " clip-rule="nonzero"/></clipPath></defs><g clip-path="url(#4694fe7e7a)"><path fill="#38220f" d="M 55.09375 135.152344 C 49.089844 135.152344 44.207031 140.039062 44.207031 146.042969 C 44.207031 152.046875 49.089844 156.929688 55.09375 156.929688 C 61.097656 156.929688 65.984375 152.046875 65.984375 146.042969 C 65.984375 140.039062 61.097656 135.152344 55.09375 135.152344 Z M 55.09375 152.355469 C 51.613281 152.355469 48.777344 149.519531 48.777344 146.039062 C 48.777344 142.554688 51.613281 139.722656 55.09375 139.722656 C 58.578125 139.722656 61.410156 142.554688 61.410156 146.039062 C 61.410156 149.519531 58.578125 152.355469 55.09375 152.355469 Z M 207.335938 151.765625 L 193.3125 133.519531 C 192.878906 132.957031 192.210938 132.628906 191.5 132.628906 L 176.050781 132.628906 L 176.050781 128.320312 C 176.050781 128.320312 176.054688 128.316406 176.054688 128.316406 C 182.171875 117.785156 185.40625 105.742188 185.40625 93.5 C 185.40625 80.21875 181.644531 67.308594 174.523438 56.167969 C 167.722656 45.527344 158.179688 36.960938 146.90625 31.34375 L 146.90625 3.96875 C 146.90625 2.707031 145.882812 1.683594 144.621094 1.683594 L 87.371094 1.683594 C 86.109375 1.683594 85.085938 2.707031 85.085938 3.96875 L 85.085938 31.339844 C 73.808594 36.960938 64.265625 45.527344 57.464844 56.175781 C 50.347656 67.3125 46.585938 80.21875 46.585938 93.496094 C 46.585938 103.898438 48.941406 114.210938 53.410156 123.53125 C 37.148438 124.40625 24.183594 137.914062 24.183594 154.394531 C 24.183594 171.441406 38.050781 185.308594 55.09375 185.308594 C 71.574219 185.308594 85.085938 172.34375 85.960938 156.074219 C 95.277344 160.542969 105.585938 162.902344 115.996094 162.902344 C 116.234375 162.902344 116.476562 162.898438 116.714844 162.894531 L 116.714844 176.179688 C 116.714844 177.441406 117.742188 178.464844 119 178.464844 L 127.195312 178.464844 C 128.214844 182.398438 131.789062 185.308594 136.035156 185.308594 C 140.277344 185.308594 143.851562 182.398438 144.867188 178.464844 L 180.808594 178.464844 C 181.824219 182.398438 185.402344 185.308594 189.648438 185.308594 C 193.890625 185.308594 197.46875 182.398438 198.484375 178.464844 L 205.523438 178.464844 C 206.78125 178.464844 207.808594 177.441406 207.808594 176.179688 L 207.808594 153.160156 C 207.808594 152.660156 207.640625 152.167969 207.335938 151.765625 Z M 190.375 137.199219 L 200.886719 150.875 L 176.054688 150.875 L 176.054688 137.199219 Z M 171.480469 159.382812 L 121.285156 159.382812 L 121.285156 128.050781 L 171.480469 128.050781 Z M 109.339844 6.253906 L 122.652344 6.253906 L 122.652344 17.46875 L 117.648438 12.222656 C 117.21875 11.769531 116.621094 11.511719 115.996094 11.511719 C 115.371094 11.511719 114.773438 11.769531 114.34375 12.222656 L 109.339844 17.46875 Z M 89.65625 6.253906 L 104.769531 6.253906 L 104.769531 23.179688 C 104.769531 24.113281 105.335938 24.957031 106.203125 25.304688 C 106.480469 25.414062 106.769531 25.46875 107.054688 25.46875 C 107.667969 25.46875 108.269531 25.21875 108.707031 24.757812 L 115.996094 17.113281 L 123.285156 24.757812 C 123.925781 25.4375 124.917969 25.648438 125.785156 25.304688 C 126.65625 24.957031 127.222656 24.113281 127.222656 23.179688 L 127.222656 6.253906 L 142.335938 6.253906 L 142.335938 58.9375 L 89.65625 58.9375 Z M 38.664062 174.960938 C 42.101562 169.160156 48.296875 165.597656 55.09375 165.597656 C 61.902344 165.597656 68.09375 169.15625 71.527344 174.960938 C 67.019531 178.566406 61.308594 180.734375 55.09375 180.734375 C 48.886719 180.734375 43.175781 178.566406 38.664062 174.960938 Z M 74.90625 171.730469 C 70.558594 165.070312 63.179688 161.023438 55.097656 161.023438 C 47.03125 161.023438 39.644531 165.070312 35.292969 171.730469 C 31.226562 167.09375 28.753906 161.027344 28.753906 154.394531 C 28.753906 139.871094 40.574219 128.054688 55.09375 128.054688 C 69.617188 128.054688 81.433594 139.875 81.433594 154.394531 C 81.4375 161.027344 78.964844 167.09375 74.90625 171.730469 Z M 115.996094 158.335938 C 105.46875 158.335938 95.050781 155.757812 85.804688 150.882812 C 84.183594 136.640625 72.851562 125.308594 58.605469 123.691406 C 53.734375 114.441406 51.15625 104.019531 51.15625 93.496094 C 51.15625 69.4375 64.082031 47.859375 85.082031 36.492188 L 85.082031 61.222656 C 85.082031 62.484375 86.105469 63.511719 87.367188 63.511719 L 144.621094 63.511719 C 145.882812 63.511719 146.90625 62.484375 146.90625 61.222656 L 146.90625 36.492188 C 167.90625 47.859375 180.832031 69.433594 180.832031 93.496094 C 180.832031 103.96875 178.292969 114.269531 173.488281 123.480469 L 119 123.480469 C 117.742188 123.480469 116.714844 124.503906 116.714844 125.765625 L 116.714844 158.324219 C 116.476562 158.328125 116.234375 158.335938 115.996094 158.335938 Z M 121.285156 163.953125 L 171.480469 163.953125 L 171.480469 173.894531 L 144.863281 173.894531 C 143.847656 169.964844 140.269531 167.050781 136.03125 167.050781 C 131.785156 167.050781 128.210938 169.960938 127.191406 173.894531 L 121.285156 173.894531 Z M 136.03125 180.734375 C 133.519531 180.734375 131.472656 178.695312 131.472656 176.179688 C 131.472656 173.664062 133.515625 171.625 136.03125 171.625 C 138.539062 171.625 140.585938 173.664062 140.585938 176.179688 C 140.585938 178.695312 138.539062 180.734375 136.03125 180.734375 Z M 189.644531 180.734375 C 187.132812 180.734375 185.085938 178.695312 185.085938 176.179688 C 185.085938 173.664062 187.128906 171.625 189.644531 171.625 C 192.15625 171.625 194.199219 173.664062 194.199219 176.179688 C 194.199219 178.695312 192.152344 180.734375 189.644531 180.734375 Z M 198.480469 173.894531 C 197.464844 169.964844 193.886719 167.050781 189.644531 167.050781 C 185.398438 167.050781 181.820312 169.960938 180.804688 173.894531 L 176.050781 173.894531 L 176.050781 155.449219 L 203.234375 155.449219 L 203.234375 173.894531 Z M 137.316406 52.230469 C 137.316406 53.492188 136.292969 54.515625 135.03125 54.515625 L 124.503906 54.515625 C 123.242188 54.515625 122.214844 53.492188 122.214844 52.230469 C 122.214844 50.96875 123.242188 49.945312 124.503906 49.945312 L 135.03125 49.945312 C 136.292969 49.945312 137.316406 50.96875 137.316406 52.230469 Z M 144.078125 78.640625 C 144.1875 77.65625 143.640625 76.714844 142.734375 76.308594 C 130.839844 71.03125 117.082031 71.902344 105.921875 78.640625 C 95.285156 85.066406 88.71875 95.785156 87.902344 108.050781 C 87.84375 108.976562 88.34375 109.847656 89.175781 110.253906 C 94.398438 112.820312 99.960938 114.101562 105.527344 114.101562 C 111.726562 114.101562 117.925781 112.511719 123.65625 109.355469 C 135.070312 103.0625 142.703125 91.578125 144.078125 78.640625 Z M 94.332031 107.503906 C 103.574219 99.234375 111.449219 94.273438 121.683594 90.191406 C 122.855469 89.722656 123.429688 88.394531 122.960938 87.222656 C 122.492188 86.046875 121.160156 85.476562 119.988281 85.945312 C 108.832031 90.394531 100.941406 95.726562 93.460938 102.171875 C 95.585938 94.035156 100.785156 87.078125 108.285156 82.550781 C 117.679688 76.878906 129.15625 75.898438 139.3125 79.835938 C 137.644531 90.597656 131.058594 100.046875 121.445312 105.347656 C 112.917969 110.054688 103.207031 110.792969 94.332031 107.503906 Z M 94.332031 107.503906 " fill-opacity="1" fill-rule="nonzero"/></g><path stroke-linecap="butt" transform="matrix(0.748005, 0, 0, 0.748005, 142.909988, 175.029345)" fill="none" stroke-linejoin="miter" d="M 0.000224965 1.997436 L 48.316228 1.997436 " stroke="#38220f" stroke-width="4" stroke-opacity="1" stroke-miterlimit="4"/></svg>